SplineFontDB: 3.2
FontName: NeanesStathisSeries
FullName: NeanesStathisSeries
FamilyName: NeanesStathisSeries
Weight: Book
Copyright: 
Version: 1.0.1
ItalicAngle: 0
UnderlinePosition: 0
UnderlineWidth: 0
Ascent: 800
Descent: 200
InvalidEm: 0
LayerCount: 2
Layer: 0 1 "Back" 1
Layer: 1 1 "Fore" 0
XUID: [1021 904 -49705511 19466]
StyleMap: 0x0040
FSType: 0
OS2Version: 4
OS2_WeightWidthSlopeOnly: 0
OS2_UseTypoMetrics: 1
CreationTime: 1646795337
ModificationTime: 1749854691
PfmFamily: 17
TTFWeight: 400
TTFWidth: 5
LineGap: 0
VLineGap: 0
Panose: 2 0 5 3 0 0 0 0 0 0
OS2TypoAscent: 1400
OS2TypoAOffset: 0
OS2TypoDescent: -466
OS2TypoDOffset: 0
OS2TypoLinegap: 0
OS2WinAscent: 1400
OS2WinAOffset: 0
OS2WinDescent: 466
OS2WinDOffset: 0
HheadAscent: 1400
HheadAOffset: 0
HheadDescent: -466
HheadDOffset: 0
OS2SubXSize: 650
OS2SubYSize: 699
OS2SubXOff: 0
OS2SubYOff: 140
OS2SupXSize: 650
OS2SupYSize: 699
OS2SupXOff: 0
OS2SupYOff: 479
OS2StrikeYSize: 49
OS2StrikeYPos: 258
OS2Vendor: 'PfEd'
OS2CodePages: 80000001.00000000
OS2UnicodeRanges: 80000001.12000000.01000000.00000000
Lookup: 3 0 0 "'salt' Stylistic Alternatives in Byzantine Music lookup 0" { "'salt' Stylistic Alternatives in Byzantine Music lookup 0 subtable"  } ['salt' ('DFLT' <'dflt' > 'byzm' <'dflt' > ) ]
Lookup: 6 0 0 "'rclt' Required Contextual Alternates lookup 1" { "'rclt' Required Contextual Alternates lookup 1 subtable"  } ['rclt' ('DFLT' <'dflt' > 'byzm' <'dflt' > 'latn' <'dflt' > ) ]
Lookup: 4 0 0 "'ccmp' Glyph Composition/Decomposition lookup 2" { "'ccmp' Glyph Composition/Decomposition lookup 2 subtable"  } ['ccmp' ('DFLT' <'dflt' > 'byzm' <'dflt' > 'latn' <'dflt' > ) ]
Lookup: 1 0 0 "Single Substitution lookup 3" { "Single Substitution lookup 3 subtable"  } []
Lookup: 5 0 0 "'rclt' Required Contextual Alternates lookup 4" { "'rclt' Required Contextual Alternates lookup 4 subtable"  } ['rclt' ('DFLT' <'dflt' > 'byzm' <'dflt' > 'latn' <'dflt' > ) ]

StartChar: .notdef
Encoding: 1114112 -1 0
Width: 500
GlyphClass: 1
Flags: W
LayerCount: 2
Fore
SplineSet
50 0 m 1,0,-1
 50 533 l 1,1,-1
 450 533 l 1,2,-1
 450 0 l 1,3,-1
 50 0 l 1,0,-1
100 50 m 1,4,-1
 400 50 l 1,5,-1
 400 483 l 1,6,-1
 100 483 l 1,7,-1
 100 50 l 1,4,-1
EndSplineSet
EndChar

StartChar: ison
Encoding: 57344 57344 5
Width: 1524
GlyphClass: 2
Flags: W
AnchorPoint: "gorgonTop" 786 505 basechar 0
AnchorPoint: "apli" 803 30 basechar 0
AnchorPoint: "klasmaTop" 873 487 basechar 0
AnchorPoint: "yfesis" 1316 619 basechar 0
AnchorPoint: "diesis" 400 133 basechar 0
AnchorPoint: "psifiston" 840 113 basechar 0
AnchorPoint: "gorgonBottom" 713 125 basechar 0
AnchorPoint: "antikenoma" 820 165 basechar 0
AnchorPoint: "heteron" 1027 207 basechar 0
AnchorPoint: "fthoraTop" 788 507 basechar 0
AnchorPoint: "fthoraBottom" 789 209 basechar 0
AnchorPoint: "noteTop" 314 676 basechar 0
AnchorPoint: "omalonConnecting" 1471 133 basechar 0
AnchorPoint: "omalon" 1031 133 basechar 0
AnchorPoint: "heteronConnecting" 1700 -19 basechar 0
AnchorPoint: "measureNumber" 172 753 basechar 0
AnchorPoint: "isonIndicator" 792 913 basechar 0
AnchorPoint: "endofonon" 802 -62 basechar 0
AnchorPoint: "koronis" 783 801 basechar 0
AnchorPoint: "yfenAbove" 930 641 basechar 0
AnchorPoint: "yfenBelow" 929 -40 basechar 0
LayerCount: 2
Fore
SplineSet
131 534 m 0,0,1
 140 537 140 537 152 537 c 2,2,-1
 182 537 l 2,3,4
 237 537 237 537 293 523.5 c 128,-1,5
 349 510 349 510 408 481 c 1,6,-1
 487 423 l 1,7,8
 476 423 476 423 455 424.5 c 128,-1,9
 434 426 434 426 401 429 c 0,10,11
 370 432 370 432 346 433.5 c 128,-1,12
 322 435 322 435 309 436 c 0,13,14
 279 436 279 436 256 428 c 0,15,16
 237 420 237 420 237 404 c 0,17,18
 237 396 237 396 243 385 c 0,19,20
 251 371 251 371 255.5 361.5 c 128,-1,21
 260 352 260 352 266 350 c 0,22,23
 283 344 283 344 298 340.5 c 128,-1,24
 313 337 313 337 330 334 c 2,25,-1
 382 323 l 2,26,27
 391 321 391 321 408.5 320.5 c 128,-1,28
 426 320 426 320 452 320 c 0,29,30
 536 328 536 328 616 336 c 0,31,32
 696 343 696 343 773 350 c 0,33,34
 924 364 924 364 1094 364 c 0,35,36
 1207 364 1207 364 1373 269 c 1,37,-1
 1410 226 l 1,38,-1
 1387 231 l 1,39,-1
 1321 242 l 1,40,-1
 1221 251 l 2,41,42
 1129 261 1129 261 1048 261 c 1,43,-1
 999 258 l 2,44,45
 974 257 974 257 937.5 256 c 128,-1,46
 901 255 901 255 852 251 c 0,47,48
 833 250 833 250 802 250 c 2,49,-1
 727 250 l 2,50,51
 693 250 693 250 658 251 c 128,-1,52
 623 252 623 252 585 253 c 0,53,54
 510 256 510 256 416 267 c 0,55,56
 351 274 351 274 289 297 c 128,-1,57
 227 320 227 320 165 355 c 0,58,59
 43 422 43 422 43 479 c 0,60,61
 43 520 43 520 131 534 c 0,0,1
EndSplineSet
EndChar

StartChar: oligon
Encoding: 57345 57345 6
Width: 1515
GlyphClass: 2
Flags: W
AnchorPoint: "gorgonTop" 780 500 basechar 0
AnchorPoint: "apli" 803 30 basechar 0
AnchorPoint: "klasmaTop" 793 487 basechar 0
AnchorPoint: "yfesis" 1316 619 basechar 0
AnchorPoint: "diesis" 400 133 basechar 0
AnchorPoint: "psifiston" 840 113 basechar 0
AnchorPoint: "gorgonBottom" 667 125 basechar 0
AnchorPoint: "antikenoma" 820 165 basechar 0
AnchorPoint: "heteron" 1087 227 basechar 0
AnchorPoint: "fthoraTop" 788 507 basechar 0
AnchorPoint: "fthoraBottom" 789 209 basechar 0
AnchorPoint: "noteTop" 314 676 basechar 0
AnchorPoint: "omalonConnecting" 1471 133 basechar 0
AnchorPoint: "omalon" 1031 133 basechar 0
AnchorPoint: "heteronConnecting" 1692 -19 basechar 0
AnchorPoint: "measureNumber" 172 753 basechar 0
AnchorPoint: "isonIndicator" 792 913 basechar 0
AnchorPoint: "endofonon" 802 -62 basechar 0
AnchorPoint: "koronis" 686 801 basechar 0
AnchorPoint: "yfenAbove" 930 641 basechar 0
AnchorPoint: "yfenBelow" 929 -40 basechar 0
LayerCount: 2
Fore
SplineSet
220 265 m 0,0,1
 155 275 155 275 73 365 c 1,2,-1
 73 392 l 1,3,4
 109 379 109 379 148 371.5 c 128,-1,5
 187 364 187 364 230 362 c 0,6,7
 274 361 274 361 328 360 c 128,-1,8
 382 359 382 359 453 359 c 0,9,10
 548 359 548 359 773 364 c 256,11,12
 998 369 998 369 1115 368 c 0,13,14
 1222 368 1222 368 1390 270 c 1,15,16
 1399 257 1399 257 1409.5 247 c 128,-1,17
 1420 237 1420 237 1429 226 c 1,18,19
 1428 226 1428 226 1421.5 226 c 128,-1,20
 1415 226 1415 226 1404 229 c 0,21,22
 1374 233 1374 233 1358.5 237 c 128,-1,23
 1343 241 1343 241 1340 241 c 2,24,-1
 1251 249 l 2,25,26
 1210 252 1210 252 1171 254.5 c 128,-1,27
 1132 257 1132 257 1095 257 c 0,28,29
 1040 257 1040 257 857 248 c 256,30,31
 674 239 674 239 584 239 c 0,32,33
 537 239 537 239 491.5 240 c 128,-1,34
 446 241 446 241 401 245 c 0,35,36
 356 248 356 248 310.5 253 c 128,-1,37
 265 258 265 258 220 265 c 0,0,1
EndSplineSet
EndChar

StartChar: oligonKentimaMiddle
Encoding: 57346 57346 7
Width: 1794
GlyphClass: 3
Flags: W
AnchorPoint: "gorgonTop" 708 459 basechar 0
AnchorPoint: "apli" 803 30 basechar 0
AnchorPoint: "klasmaTop" 793 487 basechar 0
AnchorPoint: "yfesis" 1316 619 basechar 0
AnchorPoint: "diesis" 400 133 basechar 0
AnchorPoint: "psifiston" 840 113 basechar 0
AnchorPoint: "gorgonBottom" 667 125 basechar 0
AnchorPoint: "antikenoma" 820 165 basechar 0
AnchorPoint: "heteron" 1087 227 basechar 0
AnchorPoint: "fthoraTop" 788 507 basechar 0
AnchorPoint: "fthoraBottom" 789 209 basechar 0
AnchorPoint: "noteTop" 314 676 basechar 0
AnchorPoint: "omalonConnecting" 1471 133 basechar 0
AnchorPoint: "omalon" 1031 133 basechar 0
AnchorPoint: "heteronConnecting" 1970 -19 basechar 0
AnchorPoint: "measureNumber" 172 753 basechar 0
AnchorPoint: "isonIndicator" 792 913 basechar 0
AnchorPoint: "endofonon" 802 -62 basechar 0
AnchorPoint: "koronis" 783 801 basechar 0
AnchorPoint: "yfenAbove" 930 641 basechar 0
AnchorPoint: "yfenBelow" 929 -40 basechar 0
LayerCount: 2
Fore
SplineSet
214 262 m 0,0,1
 145 271 145 271 63 361 c 1,2,-1
 63 388 l 1,3,4
 101 375 101 375 140.5 367.5 c 128,-1,5
 180 360 180 360 224 359 c 0,6,7
 269 358 269 358 325 357 c 128,-1,8
 381 356 381 356 452 356 c 0,9,10
 549 356 549 356 780 360 c 0,11,12
 1010 365 1010 365 1130 365 c 0,13,14
 1240 365 1240 365 1412 266 c 1,15,16
 1422 254 1422 254 1431.5 244 c 128,-1,17
 1441 234 1441 234 1451 223 c 1,18,19
 1449 223 1449 223 1442 223 c 128,-1,20
 1435 223 1435 223 1425 226 c 0,21,22
 1395 231 1395 231 1379.5 234.5 c 128,-1,23
 1364 238 1364 238 1361 238 c 2,24,-1
 1270 246 l 2,25,26
 1227 249 1227 249 1187 251.5 c 128,-1,27
 1147 254 1147 254 1108 254 c 0,28,29
 1051 254 1051 254 866 244 c 0,30,31
 677 234 677 234 586 235 c 0,32,33
 537 235 537 235 491 236.5 c 128,-1,34
 445 238 445 238 399 241 c 0,35,36
 354 244 354 244 307 249 c 128,-1,37
 260 254 260 254 214 262 c 0,0,1
1452 406 m 1,38,-1
 1509 409 l 2,39,40
 1527 410 1527 410 1540 410 c 0,41,42
 1552 411 1552 411 1562 411 c 0,43,44
 1646 413 1646 413 1691 325 c 0,45,46
 1717 274 1717 274 1735 259 c 0,47,48
 1750 246 1750 246 1774 249 c 0,49,50
 1797 250 1797 250 1797 248 c 0,51,52
 1797 245 1797 245 1796.5 243.5 c 128,-1,53
 1796 242 1796 242 1793 238 c 0,54,55
 1779 221 1779 221 1737 215 c 0,56,57
 1688 208 1688 208 1617 219 c 128,-1,58
 1546 230 1546 230 1493 346 c 0,59,60
 1471 395 1471 395 1451 389 c 1,61,-1
 1452 406 l 1,38,-1
EndSplineSet
Ligature2: "'ccmp' Glyph Composition/Decomposition lookup 2 subtable" oligon kentima
EndChar

StartChar: oligonKentimaBelow
Encoding: 57347 57347 8
Width: 1515
GlyphClass: 2
Flags: W
AnchorPoint: "gorgonTop" 780 500 basechar 0
AnchorPoint: "apli" 763 -180 basechar 0
AnchorPoint: "klasmaTop" 793 487 basechar 0
AnchorPoint: "yfesis" 1316 619 basechar 0
AnchorPoint: "diesis" 400 133 basechar 0
AnchorPoint: "psifiston" 840 60 basechar 0
AnchorPoint: "gorgonBottom" 450 125 basechar 0
AnchorPoint: "antikenoma" 820 -55 basechar 0
AnchorPoint: "heteron" 1027 -33 basechar 0
AnchorPoint: "fthoraTop" 788 507 basechar 0
AnchorPoint: "fthoraBottom" 420 107 basechar 0
AnchorPoint: "noteTop" 314 676 basechar 0
AnchorPoint: "omalonConnecting" 1473 -53 basechar 0
AnchorPoint: "omalon" 1033 -67 basechar 0
AnchorPoint: "heteronConnecting" 1692 -51 basechar 0
AnchorPoint: "measureNumber" 172 753 basechar 0
AnchorPoint: "isonIndicator" 792 913 basechar 0
AnchorPoint: "endofonon" 802 -62 basechar 0
AnchorPoint: "koronis" 783 801 basechar 0
AnchorPoint: "yfenAbove" 930 641 basechar 0
AnchorPoint: "yfenBelow" 929 -200 basechar 0
LayerCount: 2
Fore
SplineSet
962 163 m 1,0,1
 968 164 968 164 977.5 166 c 128,-1,2
 987 168 987 168 1002 169 c 0,3,4
 1015 170 1015 170 1024 172.5 c 128,-1,5
 1033 175 1033 175 1040 176 c 0,6,7
 1101 183 1101 183 1139 108 c 0,8,9
 1150 87 1150 87 1158.5 73 c 128,-1,10
 1167 59 1167 59 1174 53 c 0,11,12
 1186 43 1186 43 1204 47 c 0,13,14
 1207 47 1207 47 1210 48 c 128,-1,15
 1213 49 1213 49 1217 49 c 2,16,-1
 1220 49 l 1,17,18
 1220 41 1220 41 1218 39 c 0,19,20
 1209 23 1209 23 1181 14 c 0,21,22
 1164 9 1164 9 1143 7 c 128,-1,23
 1122 5 1122 5 1095 8 c 0,24,25
 1044 13 1044 13 997 111 c 0,26,27
 975 152 975 152 963 147 c 1,28,-1
 962 163 l 1,0,1
229 263 m 0,29,30
 164 273 164 273 82 363 c 1,31,-1
 82 389 l 1,32,33
 118 377 118 377 157 369 c 128,-1,34
 196 361 196 361 240 360 c 0,35,36
 284 358 284 358 338 357.5 c 128,-1,37
 392 357 392 357 462 357 c 0,38,39
 557 357 557 357 782 362 c 0,40,41
 1007 366 1007 366 1125 366 c 0,42,43
 1232 366 1232 366 1399 268 c 1,44,45
 1408 255 1408 255 1418.5 245 c 128,-1,46
 1429 235 1429 235 1438 224 c 1,47,48
 1437 224 1437 224 1430.5 224 c 128,-1,49
 1424 224 1424 224 1414 227 c 0,50,51
 1384 232 1384 232 1368.5 236 c 128,-1,52
 1353 240 1353 240 1349 240 c 2,53,-1
 1260 247 l 2,54,55
 1219 250 1219 250 1180.5 252.5 c 128,-1,56
 1142 255 1142 255 1104 255 c 0,57,58
 1049 255 1049 255 867 246 c 0,59,60
 684 237 684 237 593 237 c 0,61,62
 546 237 546 237 501 238.5 c 128,-1,63
 456 240 456 240 410 242 c 0,64,65
 365 245 365 245 319.5 250.5 c 128,-1,66
 274 256 274 256 229 263 c 0,29,30
EndSplineSet
EndChar

StartChar: oligonKentimaAbove
Encoding: 57348 57348 9
Width: 1515
GlyphClass: 2
Flags: W
AnchorPoint: "gorgonTop" 1138 500 basechar 0
AnchorPoint: "apli" 803 30 basechar 0
AnchorPoint: "klasmaBottom" 785 160 basechar 0
AnchorPoint: "klasmaTop" 383 487 basechar 0
AnchorPoint: "yfesis" 1316 619 basechar 0
AnchorPoint: "diesis" 400 133 basechar 0
AnchorPoint: "psifiston" 840 113 basechar 0
AnchorPoint: "gorgonBottom" 667 125 basechar 0
AnchorPoint: "antikenoma" 820 165 basechar 0
AnchorPoint: "heteron" 1087 227 basechar 0
AnchorPoint: "fthoraTop" 1253 440 basechar 0
AnchorPoint: "fthoraBottom" 789 209 basechar 0
AnchorPoint: "noteTop" 314 676 basechar 0
AnchorPoint: "omalonConnecting" 1471 133 basechar 0
AnchorPoint: "omalon" 1031 133 basechar 0
AnchorPoint: "heteronConnecting" 1692 -19 basechar 0
AnchorPoint: "measureNumber" 172 753 basechar 0
AnchorPoint: "isonIndicator" 792 913 basechar 0
AnchorPoint: "endofonon" 802 -62 basechar 0
AnchorPoint: "koronis" 783 891 basechar 0
AnchorPoint: "yfenAbove" 930 911 basechar 0
AnchorPoint: "yfenBelow" 929 -40 basechar 0
LayerCount: 2
Fore
SplineSet
233 270 m 0,0,1
 168 280 168 280 86 370 c 1,2,-1
 86 396 l 1,3,4
 122 383 122 383 161 375.5 c 128,-1,5
 200 368 200 368 244 367 c 256,6,7
 288 366 288 366 342 365 c 128,-1,8
 396 364 396 364 466 364 c 0,9,10
 561 364 561 364 786 368 c 0,11,12
 1011 373 1011 373 1128 373 c 0,13,14
 1235 373 1235 373 1403 274 c 1,15,16
 1412 262 1412 262 1422.5 252 c 128,-1,17
 1433 242 1433 242 1442 231 c 1,18,19
 1441 231 1441 231 1434.5 231 c 128,-1,20
 1428 231 1428 231 1417 234 c 0,21,22
 1387 239 1387 239 1371.5 242.5 c 128,-1,23
 1356 246 1356 246 1353 246 c 2,24,-1
 1264 254 l 2,25,26
 1223 257 1223 257 1184.5 259.5 c 128,-1,27
 1146 262 1146 262 1108 262 c 0,28,29
 1053 262 1053 262 871 253 c 0,30,31
 688 243 688 243 597 243 c 0,32,33
 550 243 550 243 504.5 244.5 c 128,-1,34
 459 246 459 246 414 249 c 256,35,36
 369 252 369 252 323.5 257.5 c 128,-1,37
 278 263 278 263 233 270 c 0,0,1
636 704 m 1,38,-1
 681 709 l 1,39,-1
 724 712 l 2,40,41
 792 717 792 717 828 631 c 0,42,43
 850 580 850 580 864 567 c 0,44,45
 877 555 877 555 896 557 c 0,46,47
 915 560 915 560 914 557 c 0,48,49
 914 554 914 554 911 548 c 0,50,51
 900 530 900 530 867 523 c 0,52,53
 828 514 828 514 772 523 c 256,54,55
 716 532 716 532 670 645 c 0,56,57
 651 692 651 692 636 687 c 1,58,-1
 636 704 l 1,38,-1
EndSplineSet
EndChar

StartChar: oligonYpsiliRight
Encoding: 57349 57349 10
Width: 1515
GlyphClass: 2
Flags: W
AnchorPoint: "gorgonTop" 708 500 basechar 0
AnchorPoint: "apli" 803 30 basechar 0
AnchorPoint: "klasmaBottom" 785 160 basechar 0
AnchorPoint: "klasmaTop" 598 487 basechar 0
AnchorPoint: "yfesis" 1310 1040 basechar 0
AnchorPoint: "diesis" 400 133 basechar 0
AnchorPoint: "psifiston" 840 113 basechar 0
AnchorPoint: "gorgonBottom" 667 125 basechar 0
AnchorPoint: "antikenoma" 820 165 basechar 0
AnchorPoint: "heteron" 1087 227 basechar 0
AnchorPoint: "fthoraTop" 557 489 basechar 0
AnchorPoint: "fthoraBottom" 789 209 basechar 0
AnchorPoint: "noteTop" 314 676 basechar 0
AnchorPoint: "omalonConnecting" 1471 133 basechar 0
AnchorPoint: "omalon" 1031 133 basechar 0
AnchorPoint: "heteronConnecting" 1692 -19 basechar 0
AnchorPoint: "measureNumber" 172 753 basechar 0
AnchorPoint: "isonIndicator" 792 1203 basechar 0
AnchorPoint: "endofonon" 802 -62 basechar 0
AnchorPoint: "koronis" 783 801 basechar 0
AnchorPoint: "yfenAbove" 930 1203 basechar 0
AnchorPoint: "yfenBelow" 929 -40 basechar 0
LayerCount: 2
Fore
SplineSet
256 365 m 0,0,1
 318 363 318 363 379.5 362.5 c 128,-1,2
 441 362 441 362 504 362 c 0,3,4
 602 362 602 362 798 367 c 0,5,6
 911 369 911 369 996.5 370 c 128,-1,7
 1082 371 1082 371 1141 371 c 0,8,9
 1249 371 1249 371 1416 273 c 1,10,11
 1425 261 1425 261 1435 250.5 c 128,-1,12
 1445 240 1445 240 1455 229 c 1,13,14
 1448 229 1448 229 1442 229.5 c 128,-1,15
 1436 230 1436 230 1430 232 c 0,16,17
 1400 237 1400 237 1384.5 241 c 128,-1,18
 1369 245 1369 245 1366 245 c 2,19,-1
 1276 253 l 2,20,21
 1235 256 1235 256 1196.5 258.5 c 128,-1,22
 1158 261 1158 261 1120 261 c 0,23,24
 1092 261 1092 261 1033.5 258.5 c 128,-1,25
 975 256 975 256 883 251 c 256,26,27
 791 246 791 246 723 244 c 128,-1,28
 655 242 655 242 609 242 c 0,29,30
 517 242 517 242 426.5 248 c 128,-1,31
 336 254 336 254 245 268 c 0,32,33
 179 278 179 278 98 368 c 1,34,-1
 98 395 l 1,35,36
 135 382 135 382 173.5 374 c 128,-1,37
 212 366 212 366 256 365 c 0,0,1
1031 573 m 0,38,39
 1032 574 1032 574 1031 575.5 c 128,-1,40
 1030 577 1030 577 1029 579.5 c 128,-1,41
 1028 582 1028 582 1028 584 c 128,-1,42
 1028 586 1028 586 1031 587 c 0,43,44
 1078 604 1078 604 1118.5 617.5 c 128,-1,45
 1159 631 1159 631 1193 642 c 128,-1,46
 1227 653 1227 653 1254 663.5 c 128,-1,47
 1281 674 1281 674 1301 684 c 0,48,49
 1382 726 1382 726 1426 798 c 0,50,51
 1433 810 1433 810 1440.5 827.5 c 128,-1,52
 1448 845 1448 845 1456.5 868.5 c 128,-1,53
 1465 892 1465 892 1476.5 921 c 128,-1,54
 1488 950 1488 950 1504 986 c 0,55,56
 1505 989 1505 989 1509 990 c 128,-1,57
 1513 991 1513 991 1517 991.5 c 128,-1,58
 1521 992 1521 992 1525.5 993 c 128,-1,59
 1530 994 1530 994 1534 996 c 0,60,61
 1547 1004 1547 1004 1554.5 1008.5 c 128,-1,62
 1562 1013 1562 1013 1565 1014 c 0,63,64
 1578 1020 1578 1020 1586.5 1022.5 c 128,-1,65
 1595 1025 1595 1025 1598 1026 c 2,66,-1
 1611 1026 l 2,67,68
 1616 1026 1616 1026 1621.5 1025.5 c 128,-1,69
 1627 1025 1627 1025 1633 1023 c 0,70,71
 1637 1022 1637 1022 1641.5 1021.5 c 128,-1,72
 1646 1021 1646 1021 1650.5 1020 c 128,-1,73
 1655 1019 1655 1019 1660 1017.5 c 128,-1,74
 1665 1016 1665 1016 1668 1012 c 0,75,76
 1669 1011 1669 1011 1668 1009.5 c 128,-1,77
 1667 1008 1667 1008 1665 1006.5 c 128,-1,78
 1663 1005 1663 1005 1659.5 1004 c 128,-1,79
 1656 1003 1656 1003 1655 1001 c 0,80,81
 1617 975 1617 975 1614 969 c 0,82,83
 1606 936 1606 936 1599 911 c 128,-1,84
 1592 886 1592 886 1584 867 c 0,85,86
 1582 861 1582 861 1577 852.5 c 128,-1,87
 1572 844 1572 844 1566 834.5 c 128,-1,88
 1560 825 1560 825 1554.5 816.5 c 128,-1,89
 1549 808 1549 808 1545 803 c 1,90,91
 1547 804 1547 804 1548 804 c 256,92,93
 1549 804 1549 804 1545 800 c 0,94,95
 1542 797 1542 797 1542 796 c 1,96,97
 1542 796 1542 796 1545 803 c 1,98,99
 1541 801 1541 801 1531 793.5 c 128,-1,100
 1521 786 1521 786 1507 776 c 128,-1,101
 1493 766 1493 766 1477 754 c 128,-1,102
 1461 742 1461 742 1445 729 c 0,103,104
 1430 717 1430 717 1417.5 707 c 128,-1,105
 1405 697 1405 697 1394 688 c 0,106,107
 1372 670 1372 670 1364 661 c 0,108,109
 1362 658 1362 658 1361 658 c 1,110,111
 1373 663 1373 663 1380 667 c 0,112,113
 1385 670 1385 670 1386 670 c 1,114,115
 1385 670 1385 670 1384 668 c 0,116,117
 1382 667 1382 667 1376 664 c 0,118,119
 1361 656 1361 656 1361 658 c 1,120,121
 1348 652 1348 652 1332 644.5 c 128,-1,122
 1316 637 1316 637 1299.5 630 c 128,-1,123
 1283 623 1283 623 1266.5 618 c 128,-1,124
 1250 613 1250 613 1237 611 c 0,125,126
 1229 610 1229 610 1215.5 609 c 128,-1,127
 1202 608 1202 608 1190 608 c 128,-1,128
 1178 608 1178 608 1172 607 c 128,-1,129
 1166 606 1166 606 1173 603 c 0,130,131
 1181 600 1181 600 1189.5 599 c 128,-1,132
 1198 598 1198 598 1206 598 c 0,133,134
 1219 598 1219 598 1231.5 599 c 128,-1,135
 1244 600 1244 600 1257 600 c 0,136,137
 1282 600 1282 600 1305.5 592.5 c 128,-1,138
 1329 585 1329 585 1348 570 c 0,139,140
 1367 556 1367 556 1367 551 c 0,141,142
 1370 543 1370 543 1356 543 c 0,143,144
 1343 543 1343 543 1331.5 544.5 c 128,-1,145
 1320 546 1320 546 1308 548 c 0,146,147
 1291 551 1291 551 1268 554 c 128,-1,148
 1245 557 1245 557 1219 561 c 0,149,150
 1192 565 1192 565 1169.5 567 c 128,-1,151
 1147 569 1147 569 1125 569 c 0,152,153
 1118 569 1118 569 1111.5 569.5 c 128,-1,154
 1105 570 1105 570 1099 570 c 0,155,156
 1086 570 1086 570 1075.5 569 c 128,-1,157
 1065 568 1065 568 1053 567 c 0,158,159
 1050 566 1050 566 1045.5 564 c 128,-1,160
 1041 562 1041 562 1033 562 c 0,161,162
 1028 562 1028 562 1025 570 c 0,163,164
 1025 571 1025 571 1026 572 c 0,165,166
 1028 572 1028 572 1031 573 c 0,38,39
EndSplineSet
EndChar

StartChar: oligonYpsiliLeft
Encoding: 57350 57350 11
Width: 1515
GlyphClass: 2
Flags: W
AnchorPoint: "gorgonTop" 1102 500 basechar 0
AnchorPoint: "apli" 803 30 basechar 0
AnchorPoint: "klasmaBottom" 785 160 basechar 0
AnchorPoint: "klasmaTop" 980 487 basechar 0
AnchorPoint: "yfesis" 1316 619 basechar 0
AnchorPoint: "diesis" 400 133 basechar 0
AnchorPoint: "psifiston" 840 113 basechar 0
AnchorPoint: "gorgonBottom" 667 125 basechar 0
AnchorPoint: "antikenoma" 820 165 basechar 0
AnchorPoint: "heteron" 1087 227 basechar 0
AnchorPoint: "fthoraTop" 1000 501 basechar 0
AnchorPoint: "fthoraBottom" 789 209 basechar 0
AnchorPoint: "noteTop" 188 750 basechar 0
AnchorPoint: "omalonConnecting" 1471 133 basechar 0
AnchorPoint: "omalon" 1031 133 basechar 0
AnchorPoint: "heteronConnecting" 1692 -19 basechar 0
AnchorPoint: "measureNumber" 213 827 basechar 0
AnchorPoint: "isonIndicator" 792 1283 basechar 0
AnchorPoint: "endofonon" 802 -62 basechar 0
AnchorPoint: "koronis" 951 855 basechar 0
AnchorPoint: "yfenAbove" 930 1285 basechar 0
AnchorPoint: "yfenBelow" 929 -40 basechar 0
LayerCount: 2
Fore
SplineSet
101 366 m 1,0,-1
 101 393 l 1,1,2
 138 380 138 380 176 372.5 c 128,-1,3
 214 365 214 365 259 363 c 0,4,5
 303 362 303 362 356.5 361 c 128,-1,6
 410 360 410 360 481 360 c 0,7,8
 529 360 529 360 608.5 361 c 128,-1,9
 688 362 688 362 801 365 c 0,10,11
 915 367 915 367 999.5 368.5 c 128,-1,12
 1084 370 1084 370 1144 370 c 0,13,14
 1251 370 1251 370 1418 271 c 1,15,16
 1427 258 1427 258 1437.5 248 c 128,-1,17
 1448 238 1448 238 1458 227 c 1,18,19
 1444 227 1444 227 1433 231 c 0,20,21
 1403 235 1403 235 1387.5 239 c 128,-1,22
 1372 243 1372 243 1368 243 c 2,23,-1
 1279 251 l 2,24,25
 1237 254 1237 254 1199 256 c 128,-1,26
 1161 258 1161 258 1123 258 c 0,27,28
 1095 258 1095 258 1036.5 256 c 128,-1,29
 978 254 978 254 886 249 c 0,30,31
 793 244 793 244 725.5 242 c 128,-1,32
 658 240 658 240 612 240 c 0,33,34
 520 240 520 240 429.5 246 c 128,-1,35
 339 252 339 252 248 266 c 0,36,37
 182 276 182 276 101 366 c 1,0,-1
171 576 m 0,38,39
 171 577 171 577 173 577 c 0,40,41
 174 577 174 577 177 579 c 0,42,43
 179 580 179 580 175 586 c 0,44,45
 171 591 171 591 177 593 c 0,46,47
 224 610 224 610 264.5 623 c 128,-1,48
 305 636 305 636 339 647.5 c 128,-1,49
 373 659 373 659 400 669 c 128,-1,50
 427 679 427 679 448 690 c 0,51,52
 528 732 528 732 573 804 c 0,53,54
 580 816 580 816 587.5 833.5 c 128,-1,55
 595 851 595 851 603.5 874.5 c 128,-1,56
 612 898 612 898 623.5 927 c 128,-1,57
 635 956 635 956 651 991 c 0,58,59
 652 994 652 994 655.5 995.5 c 128,-1,60
 659 997 659 997 663 997.5 c 128,-1,61
 667 998 667 998 672 999 c 128,-1,62
 677 1000 677 1000 681 1002 c 0,63,64
 693 1009 693 1009 701 1013.5 c 128,-1,65
 709 1018 709 1018 712 1019 c 0,66,67
 725 1025 725 1025 733.5 1027.5 c 128,-1,68
 742 1030 742 1030 745 1032 c 2,69,-1
 758 1032 l 2,70,71
 763 1032 763 1032 768 1031.5 c 128,-1,72
 773 1031 773 1031 779 1029 c 0,73,74
 783 1028 783 1028 787.5 1027.5 c 128,-1,75
 792 1027 792 1027 797 1026 c 128,-1,76
 802 1025 802 1025 806.5 1023.5 c 128,-1,77
 811 1022 811 1022 815 1018 c 0,78,79
 816 1017 816 1017 815 1015 c 128,-1,80
 814 1013 814 1013 811.5 1012 c 128,-1,81
 809 1011 809 1011 806 1009.5 c 128,-1,82
 803 1008 803 1008 801 1007 c 0,83,84
 764 981 764 981 760 974 c 0,85,86
 752 940 752 940 745 916 c 128,-1,87
 738 892 738 892 730 873 c 0,88,89
 728 867 728 867 723.5 858.5 c 128,-1,90
 719 850 719 850 713 841 c 128,-1,91
 707 832 707 832 701.5 823.5 c 128,-1,92
 696 815 696 815 692 809 c 1,93,94
 692 809 692 809 694 810 c 0,95,96
 696 810 696 810 691 805 c 0,97,98
 688 802 688 802 688 802 c 257,99,100
 688 802 688 802 692 809 c 1,101,102
 688 807 688 807 678 800.5 c 128,-1,103
 668 794 668 794 654 783.5 c 128,-1,104
 640 773 640 773 624 760.5 c 128,-1,105
 608 748 608 748 592 735 c 0,106,107
 576 723 576 723 563.5 712.5 c 128,-1,108
 551 702 551 702 540 694 c 0,109,110
 529 685 529 685 521.5 678 c 128,-1,111
 514 671 514 671 510 667 c 0,112,113
 510 666 510 666 508 665 c 2,114,115
 508 665 508 665 508 664 c 1,116,117
 514 666 514 666 518.5 668.5 c 128,-1,118
 523 671 523 671 527 673 c 0,119,120
 532 676 532 676 533 675 c 1,121,122
 533 675 533 675 530 674 c 0,123,124
 529 673 529 673 525.5 671 c 128,-1,125
 522 669 522 669 519 667.5 c 128,-1,126
 516 666 516 666 513 664.5 c 128,-1,127
 510 663 510 663 509 663 c 256,128,129
 508 663 508 663 508 664 c 1,130,131
 496 658 496 658 480 650.5 c 128,-1,132
 464 643 464 643 447 636.5 c 128,-1,133
 430 630 430 630 413.5 624.5 c 128,-1,134
 397 619 397 619 384 616 c 0,135,136
 375 615 375 615 361.5 614.5 c 128,-1,137
 348 614 348 614 336 613.5 c 128,-1,138
 324 613 324 613 318 612.5 c 128,-1,139
 312 612 312 612 320 609 c 256,140,141
 328 606 328 606 336.5 605 c 128,-1,142
 345 604 345 604 354 604 c 0,143,144
 366 604 366 604 378 605 c 128,-1,145
 390 606 390 606 403 606 c 0,146,147
 406 606 406 606 409 606 c 128,-1,148
 412 606 412 606 415 605 c 0,149,150
 460 602 460 602 495 576 c 0,151,152
 514 562 514 562 513 557 c 0,153,154
 516 549 516 549 502 549 c 0,155,156
 489 549 489 549 478 550 c 128,-1,157
 467 551 467 551 454 554 c 0,158,159
 437 557 437 557 414.5 559.5 c 128,-1,160
 392 562 392 562 365 566 c 0,161,162
 339 570 339 570 316 572 c 128,-1,163
 293 574 293 574 271 574 c 0,164,165
 267 575 267 575 263 575 c 128,-1,166
 259 575 259 575 255 575 c 0,167,168
 241 575 241 575 227 574.5 c 128,-1,169
 213 574 213 574 199 572 c 0,170,171
 196 571 196 571 191.5 569.5 c 128,-1,172
 187 568 187 568 179 568 c 0,173,174
 174 568 174 568 171 576 c 0,38,39
EndSplineSet
EndChar

StartChar: oligonKentimaYpsiliRight
Encoding: 57351 57351 12
Width: 1515
GlyphClass: 2
Flags: W
AnchorPoint: "gorgonTop" 708 839 basechar 0
AnchorPoint: "apli" 803 30 basechar 0
AnchorPoint: "klasmaBottom" 785 160 basechar 0
AnchorPoint: "klasmaTop" 200 487 basechar 0
AnchorPoint: "yfesis" 1316 619 basechar 0
AnchorPoint: "diesis" 400 133 basechar 0
AnchorPoint: "psifiston" 840 113 basechar 0
AnchorPoint: "gorgonBottom" 667 125 basechar 0
AnchorPoint: "antikenoma" 820 165 basechar 0
AnchorPoint: "heteron" 1087 227 basechar 0
AnchorPoint: "fthoraTop" 470 950 basechar 0
AnchorPoint: "fthoraBottom" 789 209 basechar 0
AnchorPoint: "noteTop" 314 676 basechar 0
AnchorPoint: "omalonConnecting" 1471 133 basechar 0
AnchorPoint: "omalon" 1031 133 basechar 0
AnchorPoint: "heteronConnecting" 1692 -19 basechar 0
AnchorPoint: "measureNumber" 172 753 basechar 0
AnchorPoint: "isonIndicator" 792 1203 basechar 0
AnchorPoint: "endofonon" 802 -62 basechar 0
AnchorPoint: "koronis" 783 911 basechar 0
AnchorPoint: "yfenAbove" 930 1202 basechar 0
AnchorPoint: "yfenBelow" 929 -40 basechar 0
LayerCount: 2
Fore
SplineSet
221 368 m 0,0,1
 265 368 265 368 318.5 367 c 128,-1,2
 372 366 372 366 443 366 c 0,3,4
 491 366 491 366 570 367 c 128,-1,5
 649 368 649 368 763 370 c 256,6,7
 877 372 877 372 961.5 373 c 128,-1,8
 1046 374 1046 374 1105 374 c 0,9,10
 1212 374 1212 374 1380 276 c 1,11,12
 1389 264 1389 264 1399.5 254 c 128,-1,13
 1410 244 1410 244 1419 232 c 1,14,15
 1405 232 1405 232 1395 236 c 0,16,17
 1365 240 1365 240 1349 244 c 128,-1,18
 1333 248 1333 248 1330 248 c 2,19,-1
 1241 256 l 2,20,21
 1199 258 1199 258 1161 261 c 128,-1,22
 1123 264 1123 264 1085 264 c 0,23,24
 1057 264 1057 264 998.5 262 c 128,-1,25
 940 260 940 260 848 254 c 0,26,27
 755 250 755 250 687.5 247 c 128,-1,28
 620 244 620 244 574 244 c 0,29,30
 482 244 482 244 391.5 250 c 128,-1,31
 301 256 301 256 210 272 c 0,32,33
 144 282 144 282 63 372 c 1,34,-1
 63 398 l 1,35,36
 100 386 100 386 138.5 378 c 128,-1,37
 177 370 177 370 221 368 c 0,0,1
808 522 m 0,38,39
 803 522 803 522 800 530 c 1,40,41
 800 530 800 530 801 532 c 0,42,43
 802 532 802 532 806 532 c 0,44,45
 808 534 808 534 804 540 c 0,46,47
 800 544 800 544 806 546 c 0,48,49
 853 564 853 564 893 577 c 128,-1,50
 933 590 933 590 967 601 c 128,-1,51
 1001 612 1001 612 1028.5 622 c 128,-1,52
 1056 632 1056 632 1076 644 c 0,53,54
 1156 684 1156 684 1201 758 c 0,55,56
 1208 770 1208 770 1215.5 787 c 128,-1,57
 1223 804 1223 804 1232 828 c 128,-1,58
 1241 852 1241 852 1252.5 881 c 128,-1,59
 1264 910 1264 910 1279 946 c 0,60,61
 1280 948 1280 948 1284 949 c 128,-1,62
 1288 950 1288 950 1292 951 c 128,-1,63
 1296 952 1296 952 1300.5 953 c 128,-1,64
 1305 954 1305 954 1309 956 c 0,65,66
 1321 962 1321 962 1329 967 c 128,-1,67
 1337 972 1337 972 1340 972 c 0,68,69
 1353 978 1353 978 1361.5 981 c 128,-1,70
 1370 984 1370 984 1373 986 c 2,71,-1
 1386 986 l 2,72,73
 1391 986 1391 986 1396.5 985 c 128,-1,74
 1402 984 1402 984 1407 982 c 0,75,76
 1411 982 1411 982 1415.5 981 c 128,-1,77
 1420 980 1420 980 1425 979 c 128,-1,78
 1430 978 1430 978 1434.5 977 c 128,-1,79
 1439 976 1439 976 1443 972 c 0,80,81
 1444 970 1444 970 1443 969 c 128,-1,82
 1442 968 1442 968 1439.5 966 c 128,-1,83
 1437 964 1437 964 1434 963 c 128,-1,84
 1431 962 1431 962 1429 960 c 0,85,86
 1392 934 1392 934 1389 928 c 0,87,88
 1381 894 1381 894 1373.5 870 c 128,-1,89
 1366 846 1366 846 1359 826 c 0,90,91
 1357 820 1357 820 1352 812 c 128,-1,92
 1347 804 1347 804 1341 795 c 128,-1,93
 1335 786 1335 786 1329.5 777 c 128,-1,94
 1324 768 1324 768 1320 764 c 1,95,96
 1320 764 1320 764 1322 764 c 256,97,98
 1324 764 1324 764 1320 760 c 0,99,100
 1317 756 1317 756 1316 756 c 1,101,102
 1316 756 1316 756 1320 764 c 1,103,104
 1316 762 1316 762 1306 755 c 128,-1,105
 1296 748 1296 748 1282.5 737 c 128,-1,106
 1269 726 1269 726 1252.5 714 c 128,-1,107
 1236 702 1236 702 1220 688 c 0,108,109
 1204 676 1204 676 1191.5 666 c 128,-1,110
 1179 656 1179 656 1168 648 c 0,111,112
 1157 638 1157 638 1150 631 c 128,-1,113
 1143 624 1143 624 1139 620 c 2,114,115
 1139 620 1139 620 1137 618 c 2,116,117
 1137 618 1137 618 1136 618 c 1,118,119
 1142 620 1142 620 1146.5 622 c 128,-1,120
 1151 624 1151 624 1155 626 c 0,121,122
 1160 630 1160 630 1161 630 c 1,123,124
 1161 630 1161 630 1159 628 c 0,125,126
 1158 626 1158 626 1154.5 624 c 128,-1,127
 1151 622 1151 622 1148 621 c 128,-1,128
 1145 620 1145 620 1142 619 c 128,-1,129
 1139 618 1139 618 1137 618 c 0,130,131
 1136 618 1136 618 1136 618 c 1,132,133
 1124 612 1124 612 1108 605 c 128,-1,134
 1092 598 1092 598 1075.5 591 c 128,-1,135
 1059 584 1059 584 1042 578 c 128,-1,136
 1025 572 1025 572 1012 570 c 0,137,138
 1003 570 1003 570 989.5 569 c 128,-1,139
 976 568 976 568 964.5 568 c 128,-1,140
 953 568 953 568 947 567 c 128,-1,141
 941 566 941 566 948 562 c 0,142,143
 956 560 956 560 965 559 c 128,-1,144
 974 558 974 558 982 558 c 0,145,146
 994 558 994 558 1006.5 559 c 128,-1,147
 1019 560 1019 560 1031 560 c 0,148,149
 1034 560 1034 560 1037.5 560 c 128,-1,150
 1041 560 1041 560 1043 558 c 0,151,152
 1088 556 1088 556 1123 530 c 0,153,154
 1142 516 1142 516 1142 510 c 0,155,156
 1145 502 1145 502 1131 502 c 0,157,158
 1118 502 1118 502 1106.5 504 c 128,-1,159
 1095 506 1095 506 1083 508 c 0,160,161
 1066 510 1066 510 1043 513 c 128,-1,162
 1020 516 1020 516 993 520 c 0,163,164
 967 524 967 524 944 526 c 128,-1,165
 921 528 921 528 899 528 c 0,166,167
 895 528 895 528 891 528 c 128,-1,168
 887 528 887 528 883 528 c 0,169,170
 869 528 869 528 855.5 528 c 128,-1,171
 842 528 842 528 828 526 c 0,172,173
 825 526 825 526 820.5 524 c 128,-1,174
 816 522 816 522 808 522 c 0,38,39
340 754 m 0,175,176
 343 758 343 758 360 758 c 0,177,178
 376 758 376 758 391 757 c 128,-1,179
 406 756 406 756 422 754 c 2,180,-1
 469 746 l 2,181,182
 544 734 544 734 562 634 c 0,183,184
 573 572 573 572 587 556 c 256,185,186
 601 540 601 540 619 536 c 0,187,188
 640 534 640 534 639 534 c 1,189,190
 639 530 639 530 633 522 c 0,191,192
 617 506 617 506 580 508 c 0,193,194
 558 508 558 508 532.5 513 c 128,-1,195
 507 518 507 518 475 530 c 0,196,197
 418 550 418 550 396 682 c 0,198,199
 387 738 387 738 361 738 c 2,200,-1
 345 738 l 2,201,202
 336 738 336 738 334 740 c 0,203,204
 331 742 331 742 340 754 c 0,175,176
EndSplineSet
EndChar

StartChar: oligonKentimaYpsiliMiddle
Encoding: 57352 57352 13
Width: 1515
GlyphClass: 2
Flags: W
AnchorPoint: "gorgonTop" 1138 500 basechar 0
AnchorPoint: "apli" 803 30 basechar 0
AnchorPoint: "klasmaBottom" 785 160 basechar 0
AnchorPoint: "klasmaTop" 353 487 basechar 0
AnchorPoint: "yfesis" 1316 619 basechar 0
AnchorPoint: "diesis" 400 133 basechar 0
AnchorPoint: "psifiston" 840 113 basechar 0
AnchorPoint: "gorgonBottom" 667 125 basechar 0
AnchorPoint: "antikenoma" 820 165 basechar 0
AnchorPoint: "heteron" 1087 227 basechar 0
AnchorPoint: "fthoraTop" 1400 447 basechar 0
AnchorPoint: "fthoraBottom" 789 209 basechar 0
AnchorPoint: "noteTop" 314 676 basechar 0
AnchorPoint: "omalonConnecting" 1471 133 basechar 0
AnchorPoint: "omalon" 1031 133 basechar 0
AnchorPoint: "heteronConnecting" 1692 -19 basechar 0
AnchorPoint: "measureNumber" 172 753 basechar 0
AnchorPoint: "isonIndicator" 792 1403 basechar 0
AnchorPoint: "koronis" 275 835 basechar 0
AnchorPoint: "yfenAbove" 930 1403 basechar 0
AnchorPoint: "yfenBelow" 929 -40 basechar 0
LayerCount: 2
Fore
SplineSet
104 371 m 1,0,-1
 104 397 l 1,1,2
 143 384 143 384 181.5 376.5 c 128,-1,3
 220 369 220 369 261 367 c 0,4,5
 310 365 310 365 357.5 364.5 c 128,-1,6
 405 364 405 364 454 364 c 0,7,8
 542 364 542 364 629 365.5 c 128,-1,9
 716 367 716 367 804 369 c 0,10,11
 918 371 918 371 1002.5 372 c 128,-1,12
 1087 373 1087 373 1146 373 c 0,13,14
 1253 373 1253 373 1421 275 c 0,15,16
 1426 269 1426 269 1431 263.5 c 128,-1,17
 1436 258 1436 258 1440 252 c 0,18,19
 1445 247 1445 247 1450 242 c 128,-1,20
 1455 237 1455 237 1460 231 c 1,21,-1
 1452 231 l 2,22,23
 1446 231 1446 231 1435 234 c 0,24,25
 1405 239 1405 239 1390 243 c 0,26,27
 1372 247 1372 247 1371 247 c 2,28,-1
 1282 255 l 2,29,30
 1261 256 1261 256 1241.5 257.5 c 128,-1,31
 1222 259 1222 259 1202 260 c 256,32,33
 1182 261 1182 261 1163 262 c 128,-1,34
 1144 263 1144 263 1125 263 c 0,35,36
 1097 263 1097 263 1038.5 260.5 c 128,-1,37
 980 258 980 258 888 253 c 0,38,39
 795 248 795 248 728 246 c 128,-1,40
 661 244 661 244 615 244 c 0,41,42
 522 244 522 244 432.5 250.5 c 128,-1,43
 343 257 343 257 250 270 c 0,44,45
 185 281 185 281 104 371 c 1,0,-1
527 828 m 0,46,47
 527 831 527 831 533 831 c 0,48,49
 536 832 536 832 533 839 c 0,50,51
 530 844 530 844 535 847 c 0,52,53
 582 863 582 863 622.5 875 c 128,-1,54
 663 887 663 887 698 896 c 256,55,56
 733 905 733 905 767 917.5 c 128,-1,57
 801 930 801 930 832.5 948 c 128,-1,58
 864 966 864 966 891 990 c 128,-1,59
 918 1014 918 1014 938 1045 c 0,60,61
 945 1056 945 1056 953 1072.5 c 128,-1,62
 961 1089 961 1089 971 1113 c 0,63,64
 981 1135 981 1135 993.5 1164 c 128,-1,65
 1006 1193 1006 1193 1022 1228 c 0,66,67
 1025 1234 1025 1234 1034 1234 c 0,68,69
 1042 1234 1042 1234 1050 1239 c 0,70,71
 1056 1243 1056 1243 1061.5 1245.5 c 128,-1,72
 1067 1248 1067 1248 1072 1250 c 0,73,74
 1080 1253 1080 1253 1083 1256 c 0,75,76
 1088 1257 1088 1257 1093 1259 c 128,-1,77
 1098 1261 1098 1261 1102 1263 c 0,78,79
 1107 1265 1107 1265 1111 1265.5 c 128,-1,80
 1115 1266 1115 1266 1120 1266 c 0,81,82
 1134 1266 1134 1266 1149 1261 c 0,83,84
 1154 1260 1154 1260 1159.5 1259.5 c 128,-1,85
 1165 1259 1165 1259 1170 1259 c 0,86,87
 1180 1259 1180 1259 1185 1251 c 0,88,89
 1189 1247 1189 1247 1181 1245 c 0,90,91
 1174 1243 1174 1243 1171 1241 c 0,92,93
 1133 1217 1133 1217 1130 1208 c 0,94,95
 1120 1177 1120 1177 1113 1151 c 0,96,97
 1107 1132 1107 1132 1100.5 1116 c 128,-1,98
 1094 1100 1094 1100 1083 1084 c 0,99,100
 1078 1077 1078 1077 1073 1070.5 c 128,-1,101
 1068 1064 1068 1064 1064 1059 c 0,102,103
 1062 1056 1062 1056 1060.5 1052.5 c 128,-1,104
 1059 1049 1059 1049 1057 1047 c 1,105,106
 1060 1048 1060 1048 1055 1042 c 2,107,-1
 1050 1038 l 1,108,-1
 1051 1039 l 1,109,110
 1051 1039 1051 1039 1051.5 1039.5 c 128,-1,111
 1052 1040 1052 1040 1052 1040 c 2,112,113
 1053 1043 1053 1043 1057 1047 c 1,114,115
 1054 1047 1054 1047 1046 1042.5 c 128,-1,116
 1038 1038 1038 1038 1027.5 1031 c 128,-1,117
 1017 1024 1017 1024 1005 1015.5 c 128,-1,118
 993 1007 993 1007 982.5 999.5 c 128,-1,119
 972 992 972 992 963.5 986 c 128,-1,120
 955 980 955 980 952 977 c 0,121,122
 946 972 946 972 933.5 964 c 128,-1,123
 921 956 921 956 908.5 946 c 128,-1,124
 896 936 896 936 885 926.5 c 128,-1,125
 874 917 874 917 870 911 c 0,126,127
 869 910 869 910 868 909 c 1,128,129
 873 911 873 911 877.5 912.5 c 128,-1,130
 882 914 882 914 886 915 c 256,131,132
 890 916 890 916 892 917 c 0,133,134
 894 917 894 917 882 911 c 0,135,136
 873 906 873 906 869 906 c 0,137,138
 867 906 867 906 868 909 c 1,139,140
 859 906 859 906 846 900 c 0,141,142
 819 889 819 889 789 878 c 0,143,144
 771 872 771 872 754.5 867.5 c 128,-1,145
 738 863 738 863 719 863 c 2,146,-1
 693 863 l 2,147,148
 687 863 687 863 683 863 c 128,-1,149
 679 863 679 863 675 862 c 0,150,151
 669 862 669 862 677 858 c 0,152,153
 692 852 692 852 710 852 c 0,154,155
 713 852 713 852 716 852 c 128,-1,156
 719 852 719 852 722 852 c 0,157,158
 727 852 727 852 733 852.5 c 128,-1,159
 739 853 739 853 744 853 c 0,160,161
 772 853 772 853 800 846 c 128,-1,162
 828 839 828 839 851 820 c 0,163,164
 867 807 867 807 868 798 c 0,165,166
 869 792 869 792 857 792 c 2,167,-1
 808 797 l 1,168,-1
 721 812 l 2,169,170
 687 820 687 820 650.5 824 c 128,-1,171
 614 828 614 828 579 828 c 0,172,173
 573 828 573 828 567 827.5 c 128,-1,174
 561 827 561 827 555 827 c 0,175,176
 553 826 553 826 547 824 c 0,177,178
 543 822 543 822 535 822 c 0,179,180
 529 822 529 822 527 828 c 0,46,47
691 709 m 1,181,-1
 733 712 l 2,182,183
 735 712 735 712 737 712.5 c 128,-1,184
 739 713 739 713 741 713 c 0,185,186
 803 713 803 713 838 631 c 0,187,188
 859 580 859 580 874 567 c 0,189,190
 884 557 884 557 898 558 c 0,191,192
 899 558 899 558 901 558 c 128,-1,193
 903 558 903 558 905 558 c 0,194,195
 915 559 915 559 919 560 c 0,196,197
 924 560 924 560 924 558 c 0,198,199
 925 554 925 554 921 548 c 0,200,201
 915 539 915 539 904.5 533.5 c 128,-1,202
 894 528 894 528 881.5 524.5 c 128,-1,203
 869 521 869 521 856.5 520 c 128,-1,204
 844 519 844 519 833 519 c 0,205,206
 821 519 821 519 808.5 520 c 128,-1,207
 796 521 796 521 782 523 c 0,208,209
 726 532 726 532 680 645 c 0,210,211
 663 687 663 687 649 688 c 0,212,213
 647 688 647 688 646 687 c 1,214,-1
 646 705 l 1,215,-1
 691 709 l 1,181,-1
EndSplineSet
EndChar

StartChar: oligonDoubleYpsili
Encoding: 57353 57353 14
Width: 1515
GlyphClass: 2
Flags: W
AnchorPoint: "gorgonTop" 760 1080 basechar 0
AnchorPoint: "apli" 803 30 basechar 0
AnchorPoint: "klasmaBottom" 785 160 basechar 0
AnchorPoint: "yfesis" 1380 640 basechar 0
AnchorPoint: "diesis" 400 133 basechar 0
AnchorPoint: "psifiston" 840 113 basechar 0
AnchorPoint: "gorgonBottom" 667 125 basechar 0
AnchorPoint: "antikenoma" 820 165 basechar 0
AnchorPoint: "heteron" 1087 227 basechar 0
AnchorPoint: "fthoraTop" 680 1070 basechar 0
AnchorPoint: "fthoraBottom" 789 209 basechar 0
AnchorPoint: "noteTop" 194 772 basechar 0
AnchorPoint: "omalonConnecting" 1471 133 basechar 0
AnchorPoint: "omalon" 1031 133 basechar 0
AnchorPoint: "heteronConnecting" 1692 -19 basechar 0
AnchorPoint: "measureNumber" 160 800 basechar 0
AnchorPoint: "isonIndicator" 792 1273 basechar 0
AnchorPoint: "endofonon" 802 -62 basechar 0
AnchorPoint: "koronis" 783 1261 basechar 0
AnchorPoint: "yfenAbove" 930 1271 basechar 0
AnchorPoint: "yfenBelow" 929 -40 basechar 0
LayerCount: 2
Fore
SplineSet
239 362 m 256,0,1
 283 361 283 361 336.5 359.5 c 128,-1,2
 390 358 390 358 461 358 c 0,3,4
 509 358 509 358 588 359.5 c 128,-1,5
 667 361 667 361 781 363 c 256,6,7
 895 365 895 365 979.5 366.5 c 128,-1,8
 1064 368 1064 368 1124 368 c 0,9,10
 1231 368 1231 368 1398 269 c 1,11,12
 1407 256 1407 256 1417.5 246.5 c 128,-1,13
 1428 237 1428 237 1438 225 c 1,14,15
 1424 225 1424 225 1413 229 c 0,16,17
 1383 233 1383 233 1367.5 237 c 128,-1,18
 1352 241 1352 241 1348 241 c 2,19,-1
 1259 249 l 2,20,21
 1217 252 1217 252 1179 254.5 c 128,-1,22
 1141 257 1141 257 1103 257 c 0,23,24
 1075 257 1075 257 1016.5 254.5 c 128,-1,25
 958 252 958 252 866 247 c 0,26,27
 773 242 773 242 705.5 240 c 128,-1,28
 638 238 638 238 592 238 c 0,29,30
 500 238 500 238 409.5 244 c 128,-1,31
 319 250 319 250 228 265 c 0,32,33
 162 275 162 275 81 365 c 1,34,-1
 81 392 l 1,35,36
 118 379 118 379 156.5 371 c 128,-1,37
 195 363 195 363 239 362 c 256,0,1
162 507 m 0,38,39
 157 507 157 507 154 515 c 0,40,41
 154 516 154 516 155 517 c 0,42,43
 156 517 156 517 160 518 c 0,44,45
 162 519 162 519 158 525 c 0,46,47
 154 530 154 530 160 532 c 0,48,49
 207 549 207 549 247 562.5 c 128,-1,50
 287 576 287 576 321 587.5 c 128,-1,51
 355 599 355 599 382.5 609 c 128,-1,52
 410 619 410 619 430 629 c 0,53,54
 510 671 510 671 555 743 c 0,55,56
 562 755 562 755 569.5 772.5 c 128,-1,57
 577 790 577 790 586 813.5 c 128,-1,58
 595 837 595 837 606.5 866 c 128,-1,59
 618 895 618 895 633 931 c 0,60,61
 634 934 634 934 638 935 c 128,-1,62
 642 936 642 936 646 936.5 c 128,-1,63
 650 937 650 937 654.5 938 c 128,-1,64
 659 939 659 939 663 941 c 0,65,66
 675 948 675 948 683 952.5 c 128,-1,67
 691 957 691 957 694 958 c 0,68,69
 707 964 707 964 715.5 967 c 128,-1,70
 724 970 724 970 727 971 c 2,71,-1
 740 971 l 2,72,73
 745 971 745 971 750.5 970.5 c 128,-1,74
 756 970 756 970 761 968 c 0,75,76
 765 967 765 967 769.5 966.5 c 128,-1,77
 774 966 774 966 779 965 c 128,-1,78
 784 964 784 964 788.5 962.5 c 128,-1,79
 793 961 793 961 797 957 c 0,80,81
 800 954 800 954 794 951.5 c 128,-1,82
 788 949 788 949 783 946 c 0,83,84
 746 921 746 921 743 913 c 0,85,86
 738 892 738 892 733 872.5 c 128,-1,87
 728 853 728 853 721.5 834.5 c 128,-1,88
 715 816 715 816 706 798 c 128,-1,89
 697 780 697 780 684 762 c 0,90,91
 682 758 682 758 679.5 755 c 128,-1,92
 677 752 677 752 675 748 c 1,93,94
 675 748 675 748 677 749 c 0,95,96
 678 749 678 749 674 745 c 2,97,-1
 670 741 l 1,98,99
 670 741 670 741 675 748 c 1,100,101
 671 746 671 746 660.5 739.5 c 128,-1,102
 650 733 650 733 636.5 722.5 c 128,-1,103
 623 712 623 712 606.5 699.5 c 128,-1,104
 590 687 590 687 574 674 c 0,105,106
 558 662 558 662 545.5 652 c 128,-1,107
 533 642 533 642 522 633 c 256,108,109
 511 624 511 624 504 617 c 128,-1,110
 497 610 497 610 493 606 c 0,111,112
 493 605 493 605 491 604 c 2,113,114
 491 604 491 604 490 603 c 1,115,116
 496 605 496 605 500.5 607.5 c 128,-1,117
 505 610 505 610 509 612 c 0,118,119
 514 615 514 615 515 615 c 1,120,121
 515 615 515 615 513 613 c 0,122,123
 512 612 512 612 508.5 610 c 128,-1,124
 505 608 505 608 502 606.5 c 128,-1,125
 499 605 499 605 496 603.5 c 128,-1,126
 493 602 493 602 491 602 c 0,127,128
 490 602 490 602 490 603 c 1,129,130
 478 597 478 597 462 589.5 c 128,-1,131
 446 582 446 582 429.5 575.5 c 128,-1,132
 413 569 413 569 396 563.5 c 128,-1,133
 379 558 379 558 366 556 c 0,134,135
 357 555 357 555 343.5 554.5 c 128,-1,136
 330 554 330 554 318.5 553.5 c 128,-1,137
 307 553 307 553 301 552 c 128,-1,138
 295 551 295 551 302 548 c 0,139,140
 310 545 310 545 319 544 c 128,-1,141
 328 543 328 543 336 543 c 0,142,143
 348 543 348 543 360.5 544 c 128,-1,144
 373 545 373 545 385 545 c 0,145,146
 388 545 388 545 391.5 545 c 128,-1,147
 395 545 395 545 397 544 c 0,148,149
 442 541 442 541 477 515 c 0,150,151
 496 501 496 501 496 496 c 0,152,153
 499 488 499 488 485 488 c 0,154,155
 472 488 472 488 460.5 489.5 c 128,-1,156
 449 491 449 491 437 493 c 0,157,158
 420 496 420 496 397 498.5 c 128,-1,159
 374 501 374 501 347 505 c 0,160,161
 321 509 321 509 298 511 c 128,-1,162
 275 513 275 513 253 513 c 0,163,164
 249 514 249 514 245 514 c 128,-1,165
 241 514 241 514 237 514 c 0,166,167
 223 514 223 514 209.5 513.5 c 128,-1,168
 196 513 196 513 182 512 c 0,169,170
 179 511 179 511 174.5 509 c 128,-1,171
 170 507 170 507 162 507 c 0,38,39
818 523 m 0,172,173
 818 524 818 524 819 524 c 256,174,175
 820 524 820 524 824 526 c 0,176,177
 826 527 826 527 822 533 c 0,178,179
 818 538 818 538 824 540 c 0,180,181
 871 557 871 557 911 570 c 128,-1,182
 951 583 951 583 985 594.5 c 128,-1,183
 1019 606 1019 606 1046.5 616 c 128,-1,184
 1074 626 1074 626 1094 637 c 0,185,186
 1174 678 1174 678 1219 751 c 0,187,188
 1226 763 1226 763 1233.5 780.5 c 128,-1,189
 1241 798 1241 798 1250 821.5 c 128,-1,190
 1259 845 1259 845 1270.5 874 c 128,-1,191
 1282 903 1282 903 1297 938 c 0,192,193
 1298 941 1298 941 1302 942.5 c 128,-1,194
 1306 944 1306 944 1310 944.5 c 128,-1,195
 1314 945 1314 945 1318.5 946 c 128,-1,196
 1323 947 1323 947 1327 949 c 0,197,198
 1339 956 1339 956 1347 960.5 c 128,-1,199
 1355 965 1355 965 1358 966 c 0,200,201
 1371 972 1371 972 1379.5 974.5 c 128,-1,202
 1388 977 1388 977 1391 979 c 2,203,-1
 1404 979 l 2,204,205
 1409 979 1409 979 1414.5 978.5 c 128,-1,206
 1420 978 1420 978 1425 976 c 0,207,208
 1429 975 1429 975 1433.5 974.5 c 128,-1,209
 1438 974 1438 974 1443 973 c 128,-1,210
 1448 972 1448 972 1453 970.5 c 128,-1,211
 1458 969 1458 969 1461 965 c 0,212,213
 1462 964 1462 964 1461 962 c 128,-1,214
 1460 960 1460 960 1457.5 959 c 128,-1,215
 1455 958 1455 958 1452 956.5 c 128,-1,216
 1449 955 1449 955 1447 954 c 0,217,218
 1410 928 1410 928 1407 921 c 0,219,220
 1402 900 1402 900 1397 880.5 c 128,-1,221
 1392 861 1392 861 1385.5 842.5 c 128,-1,222
 1379 824 1379 824 1370 806 c 128,-1,223
 1361 788 1361 788 1348 770 c 0,224,225
 1346 766 1346 766 1343.5 763 c 128,-1,226
 1341 760 1341 760 1339 756 c 1,227,228
 1339 756 1339 756 1341 757 c 0,229,230
 1342 757 1342 757 1338 752 c 2,231,-1
 1334 748 l 1,232,233
 1334 748 1334 748 1339 756 c 1,234,235
 1335 754 1335 754 1324.5 747.5 c 128,-1,236
 1314 741 1314 741 1300.5 730.5 c 128,-1,237
 1287 720 1287 720 1270.5 707.5 c 128,-1,238
 1254 695 1254 695 1238 682 c 0,239,240
 1222 670 1222 670 1209.5 659.5 c 128,-1,241
 1197 649 1197 649 1187 641 c 0,242,243
 1176 632 1176 632 1168.5 625 c 128,-1,244
 1161 618 1161 618 1157 614 c 0,245,246
 1157 613 1157 613 1155 612 c 2,247,248
 1155 612 1155 612 1154 611 c 1,249,250
 1160 613 1160 613 1164.5 615.5 c 128,-1,251
 1169 618 1169 618 1173 620 c 0,252,253
 1178 623 1178 623 1179 622 c 1,254,255
 1179 622 1179 622 1177 621 c 0,256,257
 1176 620 1176 620 1172.5 618 c 128,-1,258
 1169 616 1169 616 1166 614.5 c 128,-1,259
 1163 613 1163 613 1160 611.5 c 128,-1,260
 1157 610 1157 610 1155 610 c 0,261,262
 1154 610 1154 610 1154 611 c 1,263,264
 1142 605 1142 605 1126 597.5 c 128,-1,265
 1110 590 1110 590 1093.5 583.5 c 128,-1,266
 1077 577 1077 577 1060 571.5 c 128,-1,267
 1043 566 1043 566 1030 563 c 0,268,269
 1021 562 1021 562 1007.5 561.5 c 128,-1,270
 994 561 994 561 982.5 560.5 c 128,-1,271
 971 560 971 560 965 559 c 128,-1,272
 959 558 959 558 966 556 c 0,273,274
 974 553 974 553 983 552 c 128,-1,275
 992 551 992 551 1000 551 c 0,276,277
 1012 551 1012 551 1024.5 552 c 128,-1,278
 1037 553 1037 553 1049 553 c 0,279,280
 1052 553 1052 553 1055.5 553 c 128,-1,281
 1059 553 1059 553 1062 552 c 0,282,283
 1107 549 1107 549 1141 523 c 0,284,285
 1160 509 1160 509 1160 504 c 0,286,287
 1163 496 1163 496 1149 496 c 0,288,289
 1136 496 1136 496 1124.5 497 c 128,-1,290
 1113 498 1113 498 1101 501 c 0,291,292
 1084 504 1084 504 1061 506.5 c 128,-1,293
 1038 509 1038 509 1011 513 c 0,294,295
 985 517 985 517 962 519 c 128,-1,296
 939 521 939 521 917 521 c 0,297,298
 913 522 913 522 909 522 c 128,-1,299
 905 522 905 522 901 522 c 0,300,301
 887 522 887 522 873.5 521.5 c 128,-1,302
 860 521 860 521 846 519 c 0,303,304
 843 518 843 518 838 516.5 c 128,-1,305
 833 515 833 515 826 515 c 0,306,307
 821 515 821 515 818 523 c 0,172,173
EndSplineSet
EndChar

StartChar: oligonKentimataDoubleYpsili
Encoding: 57354 57354 15
Width: 1596
GlyphClass: 2
Flags: W
AnchorPoint: "apli" 803 30 basechar 0
AnchorPoint: "klasmaBottom" 785 160 basechar 0
AnchorPoint: "yfesis" 1368 619 basechar 0
AnchorPoint: "diesis" 400 133 basechar 0
AnchorPoint: "psifiston" 840 113 basechar 0
AnchorPoint: "gorgonBottom" 667 125 basechar 0
AnchorPoint: "antikenoma" 820 165 basechar 0
AnchorPoint: "heteron" 1087 227 basechar 0
AnchorPoint: "fthoraTop" 140 1110 basechar 0
AnchorPoint: "fthoraBottom" 789 209 basechar 0
AnchorPoint: "noteTop" 156 680 basechar 0
AnchorPoint: "omalonConnecting" 1471 133 basechar 0
AnchorPoint: "omalon" 1031 133 basechar 0
AnchorPoint: "heteronConnecting" 1692 -19 basechar 0
AnchorPoint: "measureNumber" 172 875 basechar 0
AnchorPoint: "isonIndicator" 792 1373 basechar 0
AnchorPoint: "endofonon" 802 -62 basechar 0
AnchorPoint: "koronis" 783 1371 basechar 0
AnchorPoint: "yfenAbove" 930 1371 basechar 0
AnchorPoint: "yfenBelow" 929 -40 basechar 0
LayerCount: 2
Fore
SplineSet
248 362 m 256,0,1
 292 361 292 361 345.5 360 c 128,-1,2
 399 359 399 359 470 359 c 0,3,4
 518 359 518 359 597 360 c 128,-1,5
 676 361 676 361 790 364 c 0,6,7
 904 366 904 366 988.5 367.5 c 128,-1,8
 1073 369 1073 369 1132 369 c 0,9,10
 1239 369 1239 369 1407 270 c 1,11,12
 1416 257 1416 257 1426.5 247 c 128,-1,13
 1437 237 1437 237 1446 226 c 1,14,15
 1432 226 1432 226 1421 230 c 0,16,17
 1391 234 1391 234 1375.5 238 c 128,-1,18
 1360 242 1360 242 1357 242 c 2,19,-1
 1268 250 l 2,20,21
 1226 253 1226 253 1188 255 c 128,-1,22
 1150 257 1150 257 1112 257 c 0,23,24
 1084 257 1084 257 1025.5 255 c 128,-1,25
 967 253 967 253 875 248 c 0,26,27
 782 243 782 243 714.5 241 c 128,-1,28
 647 239 647 239 601 239 c 0,29,30
 509 239 509 239 418.5 245 c 128,-1,31
 328 251 328 251 237 265 c 0,32,33
 171 275 171 275 90 365 c 1,34,-1
 90 392 l 1,35,36
 127 379 127 379 165.5 371 c 128,-1,37
 204 363 204 363 248 362 c 256,0,1
219 844 m 0,38,39
 219 845 219 845 220 846 c 0,40,41
 221 846 221 846 225 847 c 0,42,43
 227 848 227 848 223 854 c 0,44,45
 219 859 219 859 225 861 c 0,46,47
 272 878 272 878 312 891.5 c 128,-1,48
 352 905 352 905 386 916.5 c 128,-1,49
 420 928 420 928 447.5 938 c 128,-1,50
 475 948 475 948 495 958 c 0,51,52
 575 998 575 998 620 1072 c 0,53,54
 627 1084 627 1084 634.5 1101.5 c 128,-1,55
 642 1119 642 1119 651 1142.5 c 128,-1,56
 660 1166 660 1166 671.5 1195.5 c 128,-1,57
 683 1225 683 1225 698 1260 c 0,58,59
 699 1263 699 1263 703 1264.5 c 128,-1,60
 707 1266 707 1266 711 1266.5 c 128,-1,61
 715 1267 715 1267 719.5 1267.5 c 128,-1,62
 724 1268 724 1268 728 1271 c 0,63,64
 740 1278 740 1278 748 1282 c 128,-1,65
 756 1286 756 1286 759 1288 c 0,66,67
 772 1294 772 1294 780.5 1296.5 c 128,-1,68
 789 1299 789 1299 792 1300 c 2,69,-1
 805 1300 l 2,70,71
 810 1300 810 1300 815.5 1299.5 c 128,-1,72
 821 1299 821 1299 826 1298 c 0,73,74
 830 1297 830 1297 834.5 1296 c 128,-1,75
 839 1295 839 1295 844 1294.5 c 128,-1,76
 849 1294 849 1294 853.5 1292 c 128,-1,77
 858 1290 858 1290 862 1286 c 0,78,79
 863 1285 863 1285 862 1283.5 c 128,-1,80
 861 1282 861 1282 858.5 1280.5 c 128,-1,81
 856 1279 856 1279 853 1278 c 128,-1,82
 850 1277 850 1277 848 1276 c 0,83,84
 810 1250 810 1250 808 1243 c 0,85,86
 802 1218 802 1218 796.5 1196.5 c 128,-1,87
 791 1175 791 1175 783.5 1155.5 c 128,-1,88
 776 1136 776 1136 765.5 1117 c 128,-1,89
 755 1098 755 1098 740 1078 c 1,90,91
 741 1078 741 1078 741 1078 c 1,92,-1
 741 1078 l 1,93,94
 741 1078 741 1078 742 1079 c 0,95,96
 744 1079 744 1079 739 1074 c 2,97,-1
 735 1070 l 1,98,99
 735 1070 735 1070 735 1070.5 c 128,-1,100
 735 1071 735 1071 736 1072 c 256,101,102
 737 1073 737 1073 738 1074.5 c 128,-1,103
 739 1076 739 1076 740 1078 c 1,104,105
 736 1076 736 1076 725.5 1069 c 128,-1,106
 715 1062 715 1062 701.5 1052 c 128,-1,107
 688 1042 688 1042 671.5 1029 c 128,-1,108
 655 1016 655 1016 639 1004 c 256,109,110
 623 992 623 992 610.5 981.5 c 128,-1,111
 598 971 598 971 587 962 c 256,112,113
 576 953 576 953 569 946.5 c 128,-1,114
 562 940 562 940 558 936 c 0,115,116
 558 935 558 935 556 933 c 2,117,118
 556 933 556 933 555 932 c 1,119,120
 561 934 561 934 565.5 936.5 c 128,-1,121
 570 939 570 939 574 941 c 0,122,123
 579 944 579 944 580 944 c 1,124,125
 580 944 580 944 578 943 c 0,126,127
 577 942 577 942 573.5 940 c 128,-1,128
 570 938 570 938 566.5 936 c 128,-1,129
 563 934 563 934 560.5 933 c 128,-1,130
 558 932 558 932 556 932 c 0,131,132
 555 932 555 932 555 932 c 1,133,134
 543 926 543 926 527 919 c 128,-1,135
 511 912 511 912 494.5 905 c 128,-1,136
 478 898 478 898 461 892.5 c 128,-1,137
 444 887 444 887 431 885 c 0,138,139
 422 884 422 884 408.5 883.5 c 128,-1,140
 395 883 395 883 383.5 882.5 c 128,-1,141
 372 882 372 882 366 881 c 128,-1,142
 360 880 360 880 367 877 c 0,143,144
 375 874 375 874 384 873 c 128,-1,145
 393 872 393 872 402 872 c 0,146,147
 414 872 414 872 426.5 873 c 128,-1,148
 439 874 439 874 452 874 c 0,149,150
 454 874 454 874 457 874 c 128,-1,151
 460 874 460 874 462 874 c 0,152,153
 507 871 507 871 542 844 c 0,154,155
 561 830 561 830 561 825 c 0,156,157
 564 817 564 817 550 818 c 0,158,159
 537 818 537 818 525.5 819 c 128,-1,160
 514 820 514 820 501 822 c 0,161,162
 484 825 484 825 461.5 828 c 128,-1,163
 439 831 439 831 412 835 c 0,164,165
 386 839 386 839 363 840.5 c 128,-1,166
 340 842 340 842 318 842 c 0,167,168
 314 843 314 843 310 843 c 128,-1,169
 306 843 306 843 302 843 c 0,170,171
 288 843 288 843 274.5 842.5 c 128,-1,172
 261 842 261 842 247 841 c 0,173,174
 244 840 244 840 239 838.5 c 128,-1,175
 234 837 234 837 227 837 c 0,176,177
 222 836 222 836 219 844 c 0,38,39
846 591 m 0,178,179
 846 592 846 592 848 592 c 0,180,181
 849 592 849 592 852 594 c 0,182,183
 854 595 854 595 850 601 c 0,184,185
 846 606 846 606 852 608 c 0,186,187
 898 625 898 625 938.5 638.5 c 128,-1,188
 979 652 979 652 1013 663 c 128,-1,189
 1047 674 1047 674 1074.5 684 c 128,-1,190
 1102 694 1102 694 1123 705 c 0,191,192
 1203 745 1203 745 1248 819 c 0,193,194
 1255 831 1255 831 1262.5 848.5 c 128,-1,195
 1270 866 1270 866 1278.5 889.5 c 128,-1,196
 1287 913 1287 913 1298.5 942 c 128,-1,197
 1310 971 1310 971 1326 1007 c 0,198,199
 1327 1010 1327 1010 1330 1011 c 128,-1,200
 1333 1012 1333 1012 1337.5 1012.5 c 128,-1,201
 1342 1013 1342 1013 1346.5 1014 c 128,-1,202
 1351 1015 1351 1015 1355 1017 c 0,203,204
 1367 1024 1367 1024 1375.5 1028.5 c 128,-1,205
 1384 1033 1384 1033 1387 1034 c 0,206,207
 1400 1040 1400 1040 1408.5 1043 c 128,-1,208
 1417 1046 1417 1046 1419 1047 c 2,209,-1
 1433 1047 l 2,210,211
 1438 1047 1438 1047 1443 1046.5 c 128,-1,212
 1448 1046 1448 1046 1454 1044 c 0,213,214
 1458 1043 1458 1043 1462.5 1042.5 c 128,-1,215
 1467 1042 1467 1042 1472 1041 c 128,-1,216
 1477 1040 1477 1040 1481.5 1038.5 c 128,-1,217
 1486 1037 1486 1037 1490 1033 c 0,218,219
 1491 1032 1491 1032 1489.5 1030 c 128,-1,220
 1488 1028 1488 1028 1485.5 1027 c 128,-1,221
 1483 1026 1483 1026 1480 1025 c 128,-1,222
 1477 1024 1477 1024 1476 1022 c 0,223,224
 1438 997 1438 997 1435 989 c 0,225,226
 1427 955 1427 955 1420 931 c 128,-1,227
 1413 907 1413 907 1405 888 c 0,228,229
 1403 882 1403 882 1398.5 873.5 c 128,-1,230
 1394 865 1394 865 1388 856 c 128,-1,231
 1382 847 1382 847 1376.5 838.5 c 128,-1,232
 1371 830 1371 830 1367 824 c 1,233,234
 1368 824 1368 824 1368 825 c 1,235,-1
 1368 825 l 1,236,237
 1368 825 1368 825 1369 825 c 0,238,239
 1371 825 1371 825 1366 820 c 0,240,241
 1363 817 1363 817 1362 817 c 1,242,243
 1362 817 1362 817 1367 824 c 1,244,245
 1363 822 1363 822 1353 815.5 c 128,-1,246
 1343 809 1343 809 1329 798.5 c 128,-1,247
 1315 788 1315 788 1299 775.5 c 128,-1,248
 1283 763 1283 763 1267 750 c 0,249,250
 1251 738 1251 738 1238.5 727.5 c 128,-1,251
 1226 717 1226 717 1215 709 c 0,252,253
 1204 700 1204 700 1196.5 693 c 128,-1,254
 1189 686 1189 686 1185 682 c 0,255,256
 1185 681 1185 681 1183 680 c 2,257,258
 1183 680 1183 680 1183 679 c 1,259,260
 1189 681 1189 681 1193.5 683.5 c 128,-1,261
 1198 686 1198 686 1202 688 c 0,262,263
 1207 691 1207 691 1208 691 c 1,264,265
 1208 691 1208 691 1205 689 c 0,266,267
 1204 688 1204 688 1200.5 686 c 128,-1,268
 1197 684 1197 684 1194 682.5 c 128,-1,269
 1191 681 1191 681 1188 679.5 c 128,-1,270
 1185 678 1185 678 1184 678 c 256,271,272
 1183 678 1183 678 1183 679 c 1,273,274
 1171 673 1171 673 1155 665.5 c 128,-1,275
 1139 658 1139 658 1122 651.5 c 128,-1,276
 1105 645 1105 645 1088.5 639.5 c 128,-1,277
 1072 634 1072 634 1059 632 c 0,278,279
 1051 631 1051 631 1036.5 630.5 c 128,-1,280
 1022 630 1022 630 1010.5 629.5 c 128,-1,281
 999 629 999 629 993 628 c 128,-1,282
 987 627 987 627 995 624 c 256,283,284
 1003 621 1003 621 1011.5 620 c 128,-1,285
 1020 619 1020 619 1029 619 c 0,286,287
 1041 619 1041 619 1053.5 620 c 128,-1,288
 1066 621 1066 621 1079 621 c 0,289,290
 1081 621 1081 621 1084 620.5 c 128,-1,291
 1087 620 1087 620 1090 620 c 0,292,293
 1135 617 1135 617 1169 591 c 0,294,295
 1188 577 1188 577 1188 572 c 0,296,297
 1191 564 1191 564 1177 564 c 0,298,299
 1164 564 1164 564 1153 565.5 c 128,-1,300
 1142 567 1142 567 1129 569 c 0,301,302
 1112 572 1112 572 1089 574.5 c 128,-1,303
 1066 577 1066 577 1040 581 c 256,304,305
 1014 585 1014 585 991 587 c 128,-1,306
 968 589 968 589 946 589 c 0,307,308
 942 590 942 590 938 590 c 128,-1,309
 934 590 934 590 930 590 c 0,310,311
 916 590 916 590 902 589.5 c 128,-1,312
 888 589 888 589 874 588 c 0,313,314
 871 587 871 587 866.5 585 c 128,-1,315
 862 583 862 583 854 583 c 0,316,317
 849 583 849 583 846 591 c 0,178,179
233 711 m 0,318,319
 235 714 235 714 250 714 c 2,320,-1
 255 714 l 1,321,-1
 267 714 l 2,322,323
 278 714 278 714 288 713.5 c 128,-1,324
 298 713 298 713 309 711 c 2,325,-1
 355 703 l 2,326,327
 424 690 424 690 443 595 c 0,328,329
 455 534 455 534 466 520 c 0,330,331
 477 507 477 507 496 503 c 0,332,333
 501 503 501 503 510 501 c 0,334,335
 513 501 513 501 515 500 c 0,336,337
 515 497 515 497 509 490 c 0,338,339
 499 480 499 480 484 477.5 c 128,-1,340
 469 475 469 475 456 475 c 0,341,342
 434 475 434 475 412 480.5 c 128,-1,343
 390 486 390 486 360 496 c 0,344,345
 305 516 305 516 285 642 c 0,346,347
 276 695 276 695 252 695 c 2,348,-1
 238 695 l 2,349,350
 229 695 229 695 228 696 c 0,351,352
 224 699 224 699 233 711 c 0,318,319
465 712 m 0,353,354
 465 715 465 715 482 715 c 0,355,356
 495 715 495 715 506.5 714.5 c 128,-1,357
 518 714 518 714 529 712.5 c 128,-1,358
 540 711 540 711 551 709 c 128,-1,359
 562 707 562 707 574 704 c 0,360,361
 644 690 644 690 662 595 c 0,362,363
 673 538 673 538 687 522 c 0,364,365
 697 507 697 507 716 504 c 0,366,367
 721 503 721 503 723.5 502 c 128,-1,368
 726 501 726 501 729 501 c 2,369,-1
 734 501 l 1,370,371
 734 494 734 494 727 489.5 c 128,-1,372
 720 485 720 485 711 482 c 128,-1,373
 702 479 702 479 693 477.5 c 128,-1,374
 684 476 684 476 679 476 c 0,375,376
 641 476 641 476 581 498 c 0,377,378
 526 519 526 519 505 647 c 0,379,380
 497 698 497 698 481 698 c 2,381,-1
 479 698 l 2,382,383
 471 698 471 698 468 700 c 128,-1,384
 465 702 465 702 465 712 c 0,353,354
EndSplineSet
EndChar

StartChar: oligonKentimaDoubleYpsiliRight
Encoding: 57355 57355 16
Width: 1577
GlyphClass: 2
Flags: W
AnchorPoint: "apli" 803 30 basechar 0
AnchorPoint: "klasmaBottom" 785 160 basechar 0
AnchorPoint: "yfesis" 1368 619 basechar 0
AnchorPoint: "diesis" 400 133 basechar 0
AnchorPoint: "psifiston" 840 113 basechar 0
AnchorPoint: "gorgonBottom" 667 125 basechar 0
AnchorPoint: "antikenoma" 820 165 basechar 0
AnchorPoint: "heteron" 1087 227 basechar 0
AnchorPoint: "fthoraTop" 150 1080 basechar 0
AnchorPoint: "fthoraBottom" 789 209 basechar 0
AnchorPoint: "noteTop" 156 680 basechar 0
AnchorPoint: "omalonConnecting" 1471 133 basechar 0
AnchorPoint: "omalon" 1031 133 basechar 0
AnchorPoint: "heteronConnecting" 1692 -19 basechar 0
AnchorPoint: "measureNumber" 172 853 basechar 0
AnchorPoint: "isonIndicator" 792 1443 basechar 0
AnchorPoint: "endofonon" 802 -62 basechar 0
AnchorPoint: "koronis" 783 1441 basechar 0
AnchorPoint: "yfenAbove" 930 1441 basechar 0
AnchorPoint: "yfenBelow" 929 -40 basechar 0
LayerCount: 2
Fore
SplineSet
93 397 m 1,0,1
 130 384 130 384 168 376 c 128,-1,2
 206 368 206 368 250 367 c 256,3,4
 294 366 294 366 348 365 c 128,-1,5
 402 364 402 364 473 364 c 0,6,7
 521 364 521 364 600 365 c 128,-1,8
 679 366 679 366 793 368 c 256,9,10
 907 370 907 370 991.5 371.5 c 128,-1,11
 1076 373 1076 373 1135 373 c 0,12,13
 1242 373 1242 373 1410 275 c 1,14,15
 1419 262 1419 262 1429.5 252 c 128,-1,16
 1440 242 1440 242 1449 231 c 1,17,18
 1435 231 1435 231 1424 234 c 0,19,20
 1394 238 1394 238 1378.5 242 c 128,-1,21
 1363 246 1363 246 1360 246 c 2,22,-1
 1271 254 l 2,23,24
 1229 257 1229 257 1191 259.5 c 128,-1,25
 1153 262 1153 262 1115 262 c 0,26,27
 1087 262 1087 262 1028.5 260 c 128,-1,28
 970 258 970 258 877 253 c 256,29,30
 784 248 784 248 717 245.5 c 128,-1,31
 650 243 650 243 604 243 c 0,32,33
 512 243 512 243 421.5 249 c 128,-1,34
 331 255 331 255 240 270 c 0,35,36
 174 280 174 280 93 370 c 1,37,-1
 93 397 l 1,0,1
843 573 m 0,38,39
 838 573 838 573 835 581 c 0,40,41
 835 582 835 582 837 582 c 0,42,43
 838 582 838 582 841 584 c 0,44,45
 843 585 843 585 839 591 c 0,46,47
 835 596 835 596 841 598 c 0,48,49
 887 615 887 615 927.5 628.5 c 128,-1,50
 968 642 968 642 1002.5 653 c 128,-1,51
 1037 664 1037 664 1064 674 c 128,-1,52
 1091 684 1091 684 1112 695 c 0,53,54
 1192 736 1192 736 1237 809 c 0,55,56
 1244 821 1244 821 1251.5 838.5 c 128,-1,57
 1259 856 1259 856 1267.5 879.5 c 128,-1,58
 1276 903 1276 903 1287.5 932 c 128,-1,59
 1299 961 1299 961 1315 996 c 0,60,61
 1316 999 1316 999 1319.5 1000.5 c 128,-1,62
 1323 1002 1323 1002 1327.5 1002.5 c 128,-1,63
 1332 1003 1332 1003 1336.5 1004 c 128,-1,64
 1341 1005 1341 1005 1345 1007 c 0,65,66
 1357 1014 1357 1014 1365 1018.5 c 128,-1,67
 1373 1023 1373 1023 1376 1024 c 0,68,69
 1389 1030 1389 1030 1397.5 1032.5 c 128,-1,70
 1406 1035 1406 1035 1409 1037 c 2,71,-1
 1422 1037 l 2,72,73
 1427 1037 1427 1037 1432.5 1036.5 c 128,-1,74
 1438 1036 1438 1036 1443 1034 c 0,75,76
 1447 1033 1447 1033 1451.5 1032.5 c 128,-1,77
 1456 1032 1456 1032 1461 1031 c 128,-1,78
 1466 1030 1466 1030 1470.5 1028.5 c 128,-1,79
 1475 1027 1475 1027 1479 1023 c 0,80,81
 1480 1022 1480 1022 1479 1020 c 128,-1,82
 1478 1018 1478 1018 1475.5 1017 c 128,-1,83
 1473 1016 1473 1016 1470 1014.5 c 128,-1,84
 1467 1013 1467 1013 1465 1012 c 0,85,86
 1427 986 1427 986 1424 979 c 0,87,88
 1416 945 1416 945 1409 921 c 128,-1,89
 1402 897 1402 897 1395 878 c 0,90,91
 1393 872 1393 872 1388 863.5 c 128,-1,92
 1383 855 1383 855 1377 846 c 128,-1,93
 1371 837 1371 837 1365.5 828.5 c 128,-1,94
 1360 820 1360 820 1356 814 c 1,95,96
 1357 814 1357 814 1357 815 c 1,97,-1
 1357 815 l 1,98,99
 1357 815 1357 815 1358 815 c 0,100,101
 1360 815 1360 815 1355 810 c 0,102,103
 1352 807 1352 807 1352 807 c 257,104,105
 1352 807 1352 807 1356 814 c 1,106,107
 1352 812 1352 812 1342 805.5 c 128,-1,108
 1332 799 1332 799 1318 788.5 c 128,-1,109
 1304 778 1304 778 1288 765.5 c 128,-1,110
 1272 753 1272 753 1256 740 c 0,111,112
 1240 728 1240 728 1227.5 717.5 c 128,-1,113
 1215 707 1215 707 1204 698 c 256,114,115
 1193 689 1193 689 1185.5 682.5 c 128,-1,116
 1178 676 1178 676 1174 672 c 0,117,118
 1174 671 1174 671 1172 670 c 2,119,120
 1172 670 1172 670 1172 669 c 1,121,122
 1178 671 1178 671 1182.5 673.5 c 128,-1,123
 1187 676 1187 676 1191 677 c 0,124,125
 1196 680 1196 680 1197 680 c 1,126,127
 1197 680 1197 680 1194 679 c 0,128,129
 1193 678 1193 678 1190 676 c 128,-1,130
 1187 674 1187 674 1183.5 672.5 c 128,-1,131
 1180 671 1180 671 1177 669.5 c 128,-1,132
 1174 668 1174 668 1173 668 c 256,133,134
 1172 668 1172 668 1172 669 c 1,135,136
 1160 663 1160 663 1144 655.5 c 128,-1,137
 1128 648 1128 648 1111 641.5 c 128,-1,138
 1094 635 1094 635 1077.5 629.5 c 128,-1,139
 1061 624 1061 624 1048 621 c 0,140,141
 1039 620 1039 620 1025.5 619.5 c 128,-1,142
 1012 619 1012 619 1000 618.5 c 128,-1,143
 988 618 988 618 982.5 617 c 128,-1,144
 977 616 977 616 984 614 c 0,145,146
 992 611 992 611 1000.5 610 c 128,-1,147
 1009 609 1009 609 1018 609 c 0,148,149
 1030 609 1030 609 1042 610 c 128,-1,150
 1054 611 1054 611 1067 611 c 0,151,152
 1070 611 1070 611 1073 611 c 128,-1,153
 1076 611 1076 611 1079 610 c 0,154,155
 1124 607 1124 607 1159 581 c 0,156,157
 1178 567 1178 567 1177 562 c 0,158,159
 1180 554 1180 554 1167 554 c 256,160,161
 1154 554 1154 554 1142.5 555 c 128,-1,162
 1131 556 1131 556 1118 559 c 0,163,164
 1101 562 1101 562 1078.5 564.5 c 128,-1,165
 1056 567 1056 567 1029 571 c 0,166,167
 1003 575 1003 575 980 577 c 128,-1,168
 957 579 957 579 935 579 c 0,169,170
 931 580 931 580 927 580 c 128,-1,171
 923 580 923 580 919 580 c 0,172,173
 905 580 905 580 891 579.5 c 128,-1,174
 877 579 877 579 863 577 c 0,175,176
 860 576 860 576 855.5 574.5 c 128,-1,177
 851 573 851 573 843 573 c 0,38,39
222 828 m 0,178,179
 222 829 222 829 224 829 c 0,180,181
 225 829 225 829 228 831 c 0,182,183
 230 832 230 832 226 838 c 0,184,185
 222 843 222 843 228 845 c 0,186,187
 274 862 274 862 314.5 875.5 c 128,-1,188
 355 889 355 889 389 900 c 128,-1,189
 423 911 423 911 450.5 921 c 128,-1,190
 478 931 478 931 499 942 c 0,191,192
 579 983 579 983 624 1056 c 0,193,194
 631 1068 631 1068 638.5 1085.5 c 128,-1,195
 646 1103 646 1103 654.5 1126.5 c 128,-1,196
 663 1150 663 1150 674.5 1179 c 128,-1,197
 686 1208 686 1208 702 1243 c 0,198,199
 703 1246 703 1246 706.5 1247.5 c 128,-1,200
 710 1249 710 1249 714 1249.5 c 128,-1,201
 718 1250 718 1250 723 1251 c 128,-1,202
 728 1252 728 1252 731 1254 c 0,203,204
 743 1261 743 1261 751.5 1265.5 c 128,-1,205
 760 1270 760 1270 763 1271 c 0,206,207
 776 1277 776 1277 784 1279.5 c 128,-1,208
 792 1282 792 1282 795 1284 c 2,209,-1
 809 1284 l 2,210,211
 814 1284 814 1284 819 1283.5 c 128,-1,212
 824 1283 824 1283 830 1281 c 0,213,214
 834 1280 834 1280 838.5 1279.5 c 128,-1,215
 843 1279 843 1279 848 1278 c 128,-1,216
 853 1277 853 1277 857.5 1275.5 c 128,-1,217
 862 1274 862 1274 866 1270 c 0,218,219
 867 1269 867 1269 866 1267 c 128,-1,220
 865 1265 865 1265 862 1264 c 128,-1,221
 859 1263 859 1263 856.5 1262 c 128,-1,222
 854 1261 854 1261 852 1259 c 0,223,224
 814 1233 814 1233 811 1226 c 0,225,226
 803 1192 803 1192 796 1168 c 128,-1,227
 789 1144 789 1144 781 1125 c 0,228,229
 779 1119 779 1119 774.5 1110.5 c 128,-1,230
 770 1102 770 1102 764 1093 c 128,-1,231
 758 1084 758 1084 752.5 1075.5 c 128,-1,232
 747 1067 747 1067 743 1061 c 1,233,234
 744 1061 744 1061 744 1062 c 1,235,-1
 744 1062 l 1,236,237
 744 1062 744 1062 745 1062 c 0,238,239
 747 1062 747 1062 742 1057 c 0,240,241
 739 1054 739 1054 738 1054 c 1,242,243
 738 1054 738 1054 743 1061 c 1,244,245
 739 1059 739 1059 729 1052.5 c 128,-1,246
 719 1046 719 1046 705 1035.5 c 128,-1,247
 691 1025 691 1025 675 1012.5 c 128,-1,248
 659 1000 659 1000 643 987 c 0,249,250
 627 975 627 975 614.5 964.5 c 128,-1,251
 602 954 602 954 591 946 c 0,252,253
 580 937 580 937 572.5 930 c 128,-1,254
 565 923 565 923 561 919 c 0,255,256
 561 918 561 918 559 917 c 2,257,258
 559 917 559 917 559 916 c 1,259,260
 565 918 565 918 569.5 920.5 c 128,-1,261
 574 923 574 923 578 925 c 0,262,263
 583 928 583 928 583 927 c 2,264,265
 583 927 583 927 581 926 c 0,266,267
 580 925 580 925 576.5 923 c 128,-1,268
 573 921 573 921 570 919.5 c 128,-1,269
 567 918 567 918 564 916.5 c 128,-1,270
 561 915 561 915 560 915 c 256,271,272
 559 915 559 915 559 916 c 1,273,274
 547 910 547 910 531 902.5 c 128,-1,275
 515 895 515 895 498 888.5 c 128,-1,276
 481 882 481 882 464.5 876.5 c 128,-1,277
 448 871 448 871 435 868 c 0,278,279
 426 867 426 867 412 866.5 c 128,-1,280
 398 866 398 866 386.5 865.5 c 128,-1,281
 375 865 375 865 369 864.5 c 128,-1,282
 363 864 363 864 371 861 c 256,283,284
 379 858 379 858 387.5 857 c 128,-1,285
 396 856 396 856 405 856 c 0,286,287
 417 856 417 856 429 857 c 128,-1,288
 441 858 441 858 454 858 c 0,289,290
 457 858 457 858 460 858 c 128,-1,291
 463 858 463 858 466 857 c 0,292,293
 511 854 511 854 545 828 c 0,294,295
 564 814 564 814 564 809 c 0,296,297
 567 801 567 801 553 801 c 0,298,299
 540 801 540 801 529 802 c 128,-1,300
 518 803 518 803 505 806 c 0,301,302
 488 809 488 809 465 811.5 c 128,-1,303
 442 814 442 814 416 818 c 256,304,305
 390 822 390 822 367 824 c 128,-1,306
 344 826 344 826 322 826 c 0,307,308
 318 827 318 827 314 827 c 128,-1,309
 310 827 310 827 306 827 c 0,310,311
 292 827 292 827 278 826.5 c 128,-1,312
 264 826 264 826 250 824 c 0,313,314
 247 823 247 823 242.5 821.5 c 128,-1,315
 238 820 238 820 230 820 c 0,316,317
 225 820 225 820 222 828 c 0,178,179
338 725 m 0,318,319
 341 730 341 730 357 730 c 256,320,321
 373 730 373 730 388.5 728.5 c 128,-1,322
 404 727 404 727 419 725 c 2,323,-1
 466 718 l 2,324,325
 542 706 542 706 560 605 c 0,326,327
 571 543 571 543 585 527 c 256,328,329
 599 511 599 511 616 509 c 0,330,331
 637 507 637 507 637 505 c 0,332,333
 637 501 637 501 630 494 c 0,334,335
 614 478 614 478 577 479 c 0,336,337
 555 479 555 479 530 484 c 128,-1,338
 505 489 505 489 473 501 c 0,339,340
 416 522 416 522 393 654 c 0,341,342
 384 710 384 710 358 710 c 2,343,-1
 343 710 l 2,344,345
 334 710 334 710 332 712 c 0,346,347
 329 713 329 713 338 725 c 0,318,319
EndSplineSet
EndChar

StartChar: oligonKentimaDoubleYpsiliLeft
Encoding: 57356 57356 17
Width: 1517
GlyphClass: 2
Flags: W
AnchorPoint: "apli" 803 30 basechar 0
AnchorPoint: "klasmaBottom" 785 160 basechar 0
AnchorPoint: "yfesis" 1316 619 basechar 0
AnchorPoint: "diesis" 400 133 basechar 0
AnchorPoint: "psifiston" 840 113 basechar 0
AnchorPoint: "gorgonBottom" 667 125 basechar 0
AnchorPoint: "antikenoma" 820 165 basechar 0
AnchorPoint: "heteron" 1087 227 basechar 0
AnchorPoint: "fthoraTop" 480 1190 basechar 0
AnchorPoint: "fthoraBottom" 789 209 basechar 0
AnchorPoint: "noteTop" 116 820 basechar 0
AnchorPoint: "omalonConnecting" 1471 133 basechar 0
AnchorPoint: "omalon" 1031 133 basechar 0
AnchorPoint: "heteronConnecting" 1692 -19 basechar 0
AnchorPoint: "measureNumber" 172 1213 basechar 0
AnchorPoint: "isonIndicator" 792 1443 basechar 0
AnchorPoint: "endofonon" 802 -62 basechar 0
AnchorPoint: "koronis" 783 1441 basechar 0
AnchorPoint: "yfenAbove" 930 1441 basechar 0
AnchorPoint: "yfenBelow" 929 -40 basechar 0
LayerCount: 2
Fore
SplineSet
231 369 m 256,0,1
 275 368 275 368 329 367 c 128,-1,2
 383 366 383 366 454 366 c 0,3,4
 502 366 502 366 581 367 c 128,-1,5
 660 368 660 368 774 370 c 256,6,7
 888 372 888 372 972.5 373.5 c 128,-1,8
 1057 375 1057 375 1116 375 c 0,9,10
 1223 375 1223 375 1391 277 c 1,11,12
 1400 264 1400 264 1410.5 254 c 128,-1,13
 1421 244 1421 244 1430 233 c 1,14,15
 1416 233 1416 233 1405 236 c 0,16,17
 1375 240 1375 240 1359.5 244 c 128,-1,18
 1344 248 1344 248 1341 248 c 2,19,-1
 1252 256 l 2,20,21
 1210 259 1210 259 1172 261.5 c 128,-1,22
 1134 264 1134 264 1096 264 c 0,23,24
 1068 264 1068 264 1009.5 262 c 128,-1,25
 951 260 951 260 858 255 c 256,26,27
 765 250 765 250 698 247.5 c 128,-1,28
 631 245 631 245 585 245 c 0,29,30
 493 245 493 245 402.5 251 c 128,-1,31
 312 257 312 257 221 272 c 0,32,33
 155 282 155 282 74 372 c 1,34,-1
 74 399 l 1,35,36
 111 386 111 386 149 378 c 128,-1,37
 187 370 187 370 231 369 c 256,0,1
708 828 m 0,38,39
 708 829 708 829 709 830 c 0,40,41
 710 830 710 830 714 831 c 0,42,43
 716 832 716 832 711 838 c 0,44,45
 707 843 707 843 714 846 c 0,46,47
 760 863 760 863 800.5 876.5 c 128,-1,48
 841 890 841 890 875 901 c 128,-1,49
 909 912 909 912 936.5 922 c 128,-1,50
 964 932 964 932 984 942 c 0,51,52
 1064 983 1064 983 1109 1056 c 0,53,54
 1116 1068 1116 1068 1123.5 1085.5 c 128,-1,55
 1131 1103 1131 1103 1140 1126.5 c 128,-1,56
 1149 1150 1149 1150 1160.5 1179.5 c 128,-1,57
 1172 1209 1172 1209 1188 1244 c 0,58,59
 1189 1247 1189 1247 1192.5 1248.5 c 128,-1,60
 1196 1250 1196 1250 1200 1250.5 c 128,-1,61
 1204 1251 1204 1251 1208.5 1251.5 c 128,-1,62
 1213 1252 1213 1252 1217 1255 c 0,63,64
 1229 1262 1229 1262 1237.5 1266 c 128,-1,65
 1246 1270 1246 1270 1249 1272 c 0,66,67
 1262 1278 1262 1278 1270 1280.5 c 128,-1,68
 1278 1283 1278 1283 1281 1285 c 2,69,-1
 1294 1285 l 2,70,71
 1299 1285 1299 1285 1304.5 1284.5 c 128,-1,72
 1310 1284 1310 1284 1315 1282 c 0,73,74
 1319 1281 1319 1281 1324 1280 c 128,-1,75
 1329 1279 1329 1279 1333.5 1278.5 c 128,-1,76
 1338 1278 1338 1278 1343 1276 c 128,-1,77
 1348 1274 1348 1274 1352 1270 c 0,78,79
 1353 1269 1353 1269 1352 1267.5 c 128,-1,80
 1351 1266 1351 1266 1348 1265 c 128,-1,81
 1345 1264 1345 1264 1342 1262.5 c 128,-1,82
 1339 1261 1339 1261 1337 1260 c 0,83,84
 1299 1234 1299 1234 1297 1227 c 0,85,86
 1289 1193 1289 1193 1281.5 1169 c 128,-1,87
 1274 1145 1274 1145 1267 1125 c 0,88,89
 1265 1119 1265 1119 1260 1110.5 c 128,-1,90
 1255 1102 1255 1102 1249.5 1093 c 128,-1,91
 1244 1084 1244 1084 1238 1076 c 128,-1,92
 1232 1068 1232 1068 1229 1062 c 1,93,94
 1230 1062 1230 1062 1229 1062 c 1,95,-1
 1230 1062 l 1,96,97
 1230 1062 1230 1062 1230 1063 c 1,98,99
 1232 1063 1232 1063 1228 1058 c 0,100,101
 1225 1055 1225 1055 1224 1055 c 1,102,103
 1224 1055 1224 1055 1229 1062 c 1,104,105
 1225 1060 1225 1060 1215 1053 c 128,-1,106
 1205 1046 1205 1046 1191 1036 c 128,-1,107
 1177 1026 1177 1026 1161 1013.5 c 128,-1,108
 1145 1001 1145 1001 1128 988 c 0,109,110
 1112 976 1112 976 1099.5 965.5 c 128,-1,111
 1087 955 1087 955 1077 946 c 0,112,113
 1066 937 1066 937 1058.5 930.5 c 128,-1,114
 1051 924 1051 924 1047 920 c 0,115,116
 1047 919 1047 919 1045 917 c 2,117,118
 1045 917 1045 917 1044 916 c 1,119,120
 1050 918 1050 918 1055 920.5 c 128,-1,121
 1060 923 1060 923 1063 925 c 0,122,123
 1068 928 1068 928 1069 928 c 1,124,125
 1069 928 1069 928 1067 927 c 0,126,127
 1066 926 1066 926 1062.5 924 c 128,-1,128
 1059 922 1059 922 1056 920 c 128,-1,129
 1053 918 1053 918 1050 917 c 128,-1,130
 1047 916 1047 916 1045 916 c 0,131,132
 1044 916 1044 916 1044 916 c 1,133,134
 1032 910 1032 910 1016 903 c 128,-1,135
 1000 896 1000 896 983.5 889 c 128,-1,136
 967 882 967 882 950.5 876.5 c 128,-1,137
 934 871 934 871 920 869 c 0,138,139
 911 868 911 868 897.5 867.5 c 128,-1,140
 884 867 884 867 872.5 866.5 c 128,-1,141
 861 866 861 866 855 865 c 128,-1,142
 849 864 849 864 856 861 c 0,143,144
 864 858 864 858 873 857 c 128,-1,145
 882 856 882 856 891 856 c 0,146,147
 903 856 903 856 915 857 c 128,-1,148
 927 858 927 858 939 858 c 0,149,150
 942 858 942 858 945.5 858 c 128,-1,151
 949 858 949 858 952 858 c 0,152,153
 997 855 997 855 1031 828 c 0,154,155
 1050 814 1050 814 1050 809 c 0,156,157
 1053 801 1053 801 1039 802 c 0,158,159
 1026 802 1026 802 1014.5 803 c 128,-1,160
 1003 804 1003 804 991 806 c 0,161,162
 974 809 974 809 951 812 c 128,-1,163
 928 815 928 815 901 819 c 0,164,165
 875 823 875 823 852.5 825 c 128,-1,166
 830 827 830 827 808 827 c 0,167,168
 804 828 804 828 799.5 827.5 c 128,-1,169
 795 827 795 827 792 827 c 0,170,171
 778 827 778 827 764 827 c 128,-1,172
 750 827 750 827 736 825 c 0,173,174
 733 824 733 824 728.5 822.5 c 128,-1,175
 724 821 724 821 716 821 c 0,176,177
 711 820 711 820 708 828 c 0,38,39
70 575 m 0,178,179
 64 575 64 575 62 583 c 0,180,181
 62 584 62 584 64 584 c 0,182,183
 65 584 65 584 68 586 c 0,184,185
 70 587 70 587 66 593 c 0,186,187
 62 598 62 598 68 600 c 0,188,189
 114 617 114 617 154.5 630.5 c 128,-1,190
 195 644 195 644 229.5 655 c 128,-1,191
 264 666 264 666 291 676 c 128,-1,192
 318 686 318 686 339 697 c 0,193,194
 419 738 419 738 464 811 c 0,195,196
 471 823 471 823 478.5 840.5 c 128,-1,197
 486 858 486 858 494.5 881.5 c 128,-1,198
 503 905 503 905 514.5 934 c 128,-1,199
 526 963 526 963 542 998 c 0,200,201
 543 1001 543 1001 546.5 1002.5 c 128,-1,202
 550 1004 550 1004 554.5 1004.5 c 128,-1,203
 559 1005 559 1005 563.5 1006 c 128,-1,204
 568 1007 568 1007 572 1009 c 0,205,206
 584 1016 584 1016 592 1020.5 c 128,-1,207
 600 1025 600 1025 603 1026 c 0,208,209
 616 1032 616 1032 624.5 1034.5 c 128,-1,210
 633 1037 633 1037 636 1039 c 2,211,-1
 649 1039 l 2,212,213
 654 1039 654 1039 659.5 1038.5 c 128,-1,214
 665 1038 665 1038 670 1036 c 0,215,216
 674 1035 674 1035 678.5 1034.5 c 128,-1,217
 683 1034 683 1034 688 1033 c 128,-1,218
 693 1032 693 1032 697.5 1030.5 c 128,-1,219
 702 1029 702 1029 706 1025 c 0,220,221
 707 1024 707 1024 706 1022.5 c 128,-1,222
 705 1021 705 1021 702.5 1019.5 c 128,-1,223
 700 1018 700 1018 697 1016.5 c 128,-1,224
 694 1015 694 1015 692 1014 c 0,225,226
 654 988 654 988 651 981 c 0,227,228
 643 947 643 947 636 923 c 128,-1,229
 629 899 629 899 622 880 c 0,230,231
 620 874 620 874 615 865.5 c 128,-1,232
 610 857 610 857 604 848 c 128,-1,233
 598 839 598 839 592.5 830.5 c 128,-1,234
 587 822 587 822 583 816 c 1,235,236
 584 816 584 816 584 817 c 1,237,-1
 584 817 l 1,238,239
 584 817 584 817 585 817 c 0,240,241
 587 817 587 817 583 812 c 0,242,243
 580 809 580 809 579 809 c 1,244,245
 579 809 579 809 583 816 c 1,246,247
 579 814 579 814 569 807.5 c 128,-1,248
 559 801 559 801 545 790.5 c 128,-1,249
 531 780 531 780 515 767.5 c 128,-1,250
 499 755 499 755 483 742 c 0,251,252
 467 730 467 730 454.5 719.5 c 128,-1,253
 442 709 442 709 431 701 c 0,254,255
 420 692 420 692 412.5 685 c 128,-1,256
 405 678 405 678 401 674 c 0,257,258
 401 673 401 673 399 672 c 2,259,260
 399 672 399 672 399 671 c 0,261,262
 387 665 387 665 371 657.5 c 128,-1,263
 355 650 355 650 338 643.5 c 128,-1,264
 321 637 321 637 304.5 631.5 c 128,-1,265
 288 626 288 626 275 623 c 0,266,267
 266 622 266 622 252.5 621.5 c 128,-1,268
 239 621 239 621 227 620.5 c 128,-1,269
 215 620 215 620 209.5 619.5 c 128,-1,270
 204 619 204 619 211 616 c 0,271,272
 219 613 219 613 227.5 612 c 128,-1,273
 236 611 236 611 245 611 c 0,274,275
 257 611 257 611 269 612 c 128,-1,276
 281 613 281 613 294 613 c 0,277,278
 297 613 297 613 300 613 c 128,-1,279
 303 613 303 613 306 612 c 0,280,281
 351 609 351 609 386 583 c 0,282,283
 405 569 405 569 404 564 c 0,284,285
 407 556 407 556 394 556 c 256,286,287
 381 556 381 556 369.5 557 c 128,-1,288
 358 558 358 558 345 561 c 0,289,290
 328 564 328 564 305.5 566.5 c 128,-1,291
 283 569 283 569 256 573 c 0,292,293
 230 577 230 577 207 579 c 128,-1,294
 184 581 184 581 162 581 c 0,295,296
 158 582 158 582 154 582 c 128,-1,297
 150 582 150 582 146 582 c 0,298,299
 132 582 132 582 118 581.5 c 128,-1,300
 104 581 104 581 90 579 c 0,301,302
 87 578 87 578 82.5 576.5 c 128,-1,303
 78 575 78 575 70 575 c 0,178,179
824 726 m 0,304,305
 827 731 827 731 843 731 c 256,306,307
 859 731 859 731 874.5 729.5 c 128,-1,308
 890 728 890 728 905 726 c 2,309,-1
 952 718 l 2,310,311
 1028 706 1028 706 1046 606 c 0,312,313
 1057 544 1057 544 1071 528 c 256,314,315
 1085 512 1085 512 1102 509 c 0,316,317
 1123 507 1123 507 1123 506 c 0,318,319
 1123 502 1123 502 1116 495 c 0,320,321
 1100 479 1100 479 1063 479 c 0,322,323
 1041 479 1041 479 1016 484.5 c 128,-1,324
 991 490 991 490 958 501 c 0,325,326
 901 522 901 522 879 654 c 0,327,328
 870 710 870 710 844 710 c 2,329,-1
 829 710 l 2,330,331
 820 710 820 710 818 712 c 0,332,333
 815 714 815 714 824 726 c 0,304,305
EndSplineSet
EndChar

StartChar: oligonTripleYpsili
Encoding: 57357 57357 18
Width: 1580
GlyphClass: 2
Flags: W
AnchorPoint: "apli" 803 30 basechar 0
AnchorPoint: "klasmaBottom" 785 160 basechar 0
AnchorPoint: "yfesis" 1470 670 basechar 0
AnchorPoint: "diesis" 400 133 basechar 0
AnchorPoint: "psifiston" 840 113 basechar 0
AnchorPoint: "gorgonBottom" 667 125 basechar 0
AnchorPoint: "antikenoma" 820 165 basechar 0
AnchorPoint: "heteron" 1087 227 basechar 0
AnchorPoint: "fthoraTop" 863 1239 basechar 0
AnchorPoint: "fthoraBottom" 789 209 basechar 0
AnchorPoint: "noteTop" 116 820 basechar 0
AnchorPoint: "omalonConnecting" 1471 133 basechar 0
AnchorPoint: "omalon" 1031 133 basechar 0
AnchorPoint: "heteronConnecting" 1692 -19 basechar 0
AnchorPoint: "measureNumber" 172 1213 basechar 0
AnchorPoint: "isonIndicator" 792 1283 basechar 0
AnchorPoint: "endofonon" 802 -62 basechar 0
AnchorPoint: "koronis" 783 1281 basechar 0
AnchorPoint: "yfenAbove" 930 1281 basechar 0
AnchorPoint: "yfenBelow" 929 -40 basechar 0
LayerCount: 2
Fore
SplineSet
84 395 m 1,0,1
 121 382 121 382 159.5 374.5 c 128,-1,2
 198 367 198 367 242 366 c 256,3,4
 286 365 286 365 340 363.5 c 128,-1,5
 394 362 394 362 464 362 c 0,6,7
 512 362 512 362 591.5 363.5 c 128,-1,8
 671 365 671 365 785 367 c 256,9,10
 899 369 899 369 983.5 370.5 c 128,-1,11
 1068 372 1068 372 1127 372 c 0,12,13
 1234 372 1234 372 1402 273 c 1,14,15
 1411 260 1411 260 1421.5 250.5 c 128,-1,16
 1432 241 1432 241 1441 229 c 1,17,18
 1427 229 1427 229 1416 233 c 0,19,20
 1386 237 1386 237 1370.5 241 c 128,-1,21
 1355 245 1355 245 1352 245 c 2,22,-1
 1263 253 l 2,23,24
 1221 256 1221 256 1183 258.5 c 128,-1,25
 1145 261 1145 261 1106 261 c 0,26,27
 1078 261 1078 261 1019.5 258.5 c 128,-1,28
 961 256 961 256 869 251 c 0,29,30
 776 246 776 246 709 244 c 128,-1,31
 642 242 642 242 596 242 c 0,32,33
 504 242 504 242 413.5 248 c 128,-1,34
 323 254 323 254 231 268 c 0,35,36
 165 278 165 278 84 369 c 1,37,-1
 84 395 l 1,0,1
84 582 m 0,38,39
 84 583 84 583 86 583 c 0,40,41
 87 583 87 583 90 585 c 0,42,43
 92 586 92 586 88 592 c 0,44,45
 84 597 84 597 90 599 c 0,46,47
 136 616 136 616 176.5 629.5 c 128,-1,48
 217 643 217 643 251.5 654 c 128,-1,49
 286 665 286 665 313 675 c 128,-1,50
 340 685 340 685 361 696 c 0,51,52
 441 738 441 738 486 810 c 0,53,54
 493 822 493 822 500.5 839.5 c 128,-1,55
 508 857 508 857 516.5 880.5 c 128,-1,56
 525 904 525 904 536.5 933 c 128,-1,57
 548 962 548 962 564 997 c 0,58,59
 565 1000 565 1000 568.5 1001.5 c 128,-1,60
 572 1003 572 1003 576.5 1003.5 c 128,-1,61
 581 1004 581 1004 585.5 1005 c 128,-1,62
 590 1006 590 1006 594 1008 c 0,63,64
 606 1015 606 1015 614 1019.5 c 128,-1,65
 622 1024 622 1024 625 1025 c 0,66,67
 638 1031 638 1031 646.5 1033.5 c 128,-1,68
 655 1036 655 1036 658 1038 c 2,69,-1
 671 1038 l 2,70,71
 676 1038 676 1038 681.5 1037.5 c 128,-1,72
 687 1037 687 1037 692 1035 c 0,73,74
 696 1034 696 1034 700.5 1033.5 c 128,-1,75
 705 1033 705 1033 710 1032 c 128,-1,76
 715 1031 715 1031 719.5 1029.5 c 128,-1,77
 724 1028 724 1028 728 1024 c 0,78,79
 729 1023 729 1023 728 1021 c 128,-1,80
 727 1019 727 1019 724.5 1018 c 128,-1,81
 722 1017 722 1017 719 1016 c 128,-1,82
 716 1015 716 1015 714 1013 c 0,83,84
 676 987 676 987 673 980 c 0,85,86
 667 955 667 955 662 934 c 128,-1,87
 657 913 657 913 649.5 893.5 c 128,-1,88
 642 874 642 874 631.5 855 c 128,-1,89
 621 836 621 836 605 815 c 1,90,91
 606 815 606 815 606 816 c 1,92,-1
 607 816 l 1,93,94
 607 816 607 816 607 816 c 1,95,96
 609 816 609 816 604 811 c 2,97,-1
 601 807 l 1,98,99
 601 807 601 807 601 808 c 128,-1,100
 601 809 601 809 602 809 c 0,101,102
 603 810 603 810 603.5 811.5 c 128,-1,103
 604 813 604 813 605 815 c 1,104,105
 601 813 601 813 591 806.5 c 128,-1,106
 581 800 581 800 567 789.5 c 128,-1,107
 553 779 553 779 537 766.5 c 128,-1,108
 521 754 521 754 505 741 c 0,109,110
 489 729 489 729 476.5 718.5 c 128,-1,111
 464 708 464 708 453 700 c 0,112,113
 442 691 442 691 434.5 684 c 128,-1,114
 427 677 427 677 423 673 c 0,115,116
 423 672 423 672 421 671 c 2,117,118
 421 671 421 671 421 670 c 1,119,120
 427 672 427 672 431.5 674.5 c 128,-1,121
 436 677 436 677 440 679 c 0,122,123
 445 682 445 682 446 681 c 1,124,125
 446 681 446 681 443 680 c 0,126,127
 442 679 442 679 439 677 c 128,-1,128
 436 675 436 675 432.5 673.5 c 128,-1,129
 429 672 429 672 426 670.5 c 128,-1,130
 423 669 423 669 422 669 c 256,131,132
 421 669 421 669 421 670 c 1,133,134
 409 664 409 664 393 656.5 c 128,-1,135
 377 649 377 649 360 642.5 c 128,-1,136
 343 636 343 636 326.5 630.5 c 128,-1,137
 310 625 310 625 297 622 c 0,138,139
 288 621 288 621 274.5 620.5 c 128,-1,140
 261 620 261 620 249 619.5 c 128,-1,141
 237 619 237 619 231.5 618.5 c 128,-1,142
 226 618 226 618 233 615 c 0,143,144
 241 612 241 612 249.5 611 c 128,-1,145
 258 610 258 610 267 610 c 0,146,147
 279 610 279 610 291 611 c 128,-1,148
 303 612 303 612 316 612 c 0,149,150
 319 612 319 612 322 612 c 128,-1,151
 325 612 325 612 328 611 c 0,152,153
 373 608 373 608 408 582 c 0,154,155
 427 568 427 568 426 563 c 0,156,157
 429 555 429 555 416 555 c 256,158,159
 403 555 403 555 391.5 556 c 128,-1,160
 380 557 380 557 367 560 c 0,161,162
 350 563 350 563 327.5 565.5 c 128,-1,163
 305 568 305 568 278 572 c 0,164,165
 252 576 252 576 229 578 c 128,-1,166
 206 580 206 580 184 580 c 0,167,168
 180 581 180 581 176 581 c 128,-1,169
 172 581 172 581 168 581 c 0,170,171
 154 581 154 581 140 580.5 c 128,-1,172
 126 580 126 580 112 578 c 0,173,174
 109 577 109 577 104.5 575.5 c 128,-1,175
 100 574 100 574 92 574 c 0,176,177
 87 574 87 574 84 582 c 0,38,39
510 582 m 0,178,179
 510 583 510 583 511 583 c 256,180,181
 512 583 512 583 516 585 c 0,182,183
 518 586 518 586 513 592 c 0,184,185
 509 597 509 597 516 599 c 0,186,187
 562 616 562 616 602.5 629.5 c 128,-1,188
 643 643 643 643 677 654 c 128,-1,189
 711 665 711 665 738.5 675 c 128,-1,190
 766 685 766 685 786 696 c 0,191,192
 866 737 866 737 911 810 c 0,193,194
 918 822 918 822 925.5 839.5 c 128,-1,195
 933 857 933 857 942 880.5 c 128,-1,196
 951 904 951 904 962.5 933 c 128,-1,197
 974 962 974 962 989 997 c 0,198,199
 990 1000 990 1000 994 1001.5 c 128,-1,200
 998 1003 998 1003 1002 1003.5 c 128,-1,201
 1006 1004 1006 1004 1010.5 1005 c 128,-1,202
 1015 1006 1015 1006 1019 1008 c 0,203,204
 1031 1015 1031 1015 1039 1019.5 c 128,-1,205
 1047 1024 1047 1024 1050 1025 c 0,206,207
 1063 1031 1063 1031 1071.5 1033.5 c 128,-1,208
 1080 1036 1080 1036 1083 1038 c 2,209,-1
 1096 1038 l 2,210,211
 1101 1038 1101 1038 1106.5 1037.5 c 128,-1,212
 1112 1037 1112 1037 1117 1035 c 0,213,214
 1121 1034 1121 1034 1125.5 1033.5 c 128,-1,215
 1130 1033 1130 1033 1135 1032 c 128,-1,216
 1140 1031 1140 1031 1144.5 1029.5 c 128,-1,217
 1149 1028 1149 1028 1153 1024 c 0,218,219
 1154 1023 1154 1023 1153 1021 c 128,-1,220
 1152 1019 1152 1019 1149.5 1018 c 128,-1,221
 1147 1017 1147 1017 1144 1016 c 128,-1,222
 1141 1015 1141 1015 1139 1013 c 0,223,224
 1101 987 1101 987 1099 980 c 0,225,226
 1091 946 1091 946 1083.5 922 c 128,-1,227
 1076 898 1076 898 1069 879 c 0,228,229
 1067 873 1067 873 1062 864.5 c 128,-1,230
 1057 856 1057 856 1051 847 c 128,-1,231
 1045 838 1045 838 1039.5 829.5 c 128,-1,232
 1034 821 1034 821 1030 815 c 1,233,234
 1031 815 1031 815 1031 816 c 1,235,-1
 1032 816 l 1,236,237
 1032 816 1032 816 1032 816 c 1,238,239
 1034 816 1034 816 1030 811 c 0,240,241
 1027 808 1027 808 1026 808 c 1,242,243
 1026 808 1026 808 1030 815 c 1,244,245
 1026 813 1026 813 1016 806.5 c 128,-1,246
 1006 800 1006 800 992.5 789.5 c 128,-1,247
 979 779 979 779 962.5 766.5 c 128,-1,248
 946 754 946 754 930 741 c 0,249,250
 914 729 914 729 901.5 718.5 c 128,-1,251
 889 708 889 708 878 700 c 0,252,253
 867 691 867 691 860 684 c 128,-1,254
 853 677 853 677 849 673 c 0,255,256
 849 672 849 672 847 671 c 2,257,258
 847 671 847 671 846 670 c 1,259,260
 852 672 852 672 856.5 674.5 c 128,-1,261
 861 677 861 677 865 679 c 0,262,263
 870 682 870 682 871 681 c 1,264,265
 871 681 871 681 869 680 c 0,266,267
 868 679 868 679 864.5 677 c 128,-1,268
 861 675 861 675 857.5 673.5 c 128,-1,269
 854 672 854 672 851.5 670.5 c 128,-1,270
 849 669 849 669 847 669 c 0,271,272
 846 669 846 669 846 670 c 1,273,274
 834 664 834 664 818 656.5 c 128,-1,275
 802 649 802 649 785.5 642.5 c 128,-1,276
 769 636 769 636 752 630.5 c 128,-1,277
 735 625 735 625 722 622 c 0,278,279
 713 621 713 621 699.5 620.5 c 128,-1,280
 686 620 686 620 674.5 619.5 c 128,-1,281
 663 619 663 619 657 618.5 c 128,-1,282
 651 618 651 618 658 615 c 0,283,284
 666 612 666 612 675 611 c 128,-1,285
 684 610 684 610 692 610 c 0,286,287
 704 610 704 610 716.5 611 c 128,-1,288
 729 612 729 612 741 612 c 0,289,290
 744 612 744 612 747 612 c 128,-1,291
 750 612 750 612 753 611 c 0,292,293
 798 608 798 608 833 582 c 0,294,295
 852 568 852 568 852 563 c 0,296,297
 855 555 855 555 841 555 c 0,298,299
 828 555 828 555 816.5 556 c 128,-1,300
 805 557 805 557 792 560 c 0,301,302
 775 563 775 563 752.5 565.5 c 128,-1,303
 730 568 730 568 703 572 c 0,304,305
 677 576 677 576 654 578 c 128,-1,306
 631 580 631 580 609 580 c 0,307,308
 605 581 605 581 601 581 c 128,-1,309
 597 581 597 581 593 581 c 0,310,311
 579 581 579 581 565.5 580.5 c 128,-1,312
 552 580 552 580 538 578 c 0,313,314
 535 577 535 577 530 575.5 c 128,-1,315
 525 574 525 574 518 574 c 0,316,317
 513 574 513 574 510 582 c 0,178,179
943 574 m 0,318,319
 938 574 938 574 935 582 c 0,320,321
 935 583 935 583 937 583 c 0,322,323
 938 583 938 583 941 585 c 0,324,325
 943 586 943 586 938 592 c 0,326,327
 934 597 934 597 941 599 c 0,328,329
 987 616 987 616 1027.5 629.5 c 128,-1,330
 1068 643 1068 643 1102 654 c 128,-1,331
 1136 665 1136 665 1163.5 675 c 128,-1,332
 1191 685 1191 685 1211 696 c 0,333,334
 1291 736 1291 736 1336 810 c 0,335,336
 1343 822 1343 822 1350.5 839.5 c 128,-1,337
 1358 857 1358 857 1367 880.5 c 128,-1,338
 1376 904 1376 904 1387.5 933 c 128,-1,339
 1399 962 1399 962 1415 997 c 0,340,341
 1416 1001 1416 1001 1419 1002 c 128,-1,342
 1422 1003 1422 1003 1426.5 1003.5 c 128,-1,343
 1431 1004 1431 1004 1435.5 1004.5 c 128,-1,344
 1440 1005 1440 1005 1444 1008 c 0,345,346
 1456 1015 1456 1015 1464.5 1019.5 c 128,-1,347
 1473 1024 1473 1024 1476 1025 c 0,348,349
 1489 1031 1489 1031 1497 1033.5 c 128,-1,350
 1505 1036 1505 1036 1508 1038 c 2,351,-1
 1521 1038 l 2,352,353
 1526 1038 1526 1038 1531.5 1037.5 c 128,-1,354
 1537 1037 1537 1037 1542 1035 c 0,355,356
 1546 1034 1546 1034 1551 1033.5 c 128,-1,357
 1556 1033 1556 1033 1560.5 1032 c 128,-1,358
 1565 1031 1565 1031 1570 1029.5 c 128,-1,359
 1575 1028 1575 1028 1579 1024 c 0,360,361
 1580 1023 1580 1023 1578.5 1021 c 128,-1,362
 1577 1019 1577 1019 1574.5 1017.5 c 128,-1,363
 1572 1016 1572 1016 1569 1015 c 128,-1,364
 1566 1014 1566 1014 1564 1013 c 0,365,366
 1526 987 1526 987 1524 980 c 0,367,368
 1516 946 1516 946 1508.5 922 c 128,-1,369
 1501 898 1501 898 1494 879 c 0,370,371
 1492 873 1492 873 1487.5 864.5 c 128,-1,372
 1483 856 1483 856 1477 847 c 128,-1,373
 1471 838 1471 838 1465 829.5 c 128,-1,374
 1459 821 1459 821 1456 815 c 1,375,376
 1456 815 1456 815 1458 816 c 0,377,378
 1460 816 1460 816 1455 811 c 2,379,-1
 1451 807 l 1,380,381
 1451 807 1451 807 1456 815 c 1,382,383
 1452 813 1452 813 1441.5 806.5 c 128,-1,384
 1431 800 1431 800 1417 789.5 c 128,-1,385
 1403 779 1403 779 1387.5 766.5 c 128,-1,386
 1372 754 1372 754 1355 741 c 0,387,388
 1339 729 1339 729 1326.5 718.5 c 128,-1,389
 1314 708 1314 708 1304 700 c 0,390,391
 1293 691 1293 691 1285.5 684 c 128,-1,392
 1278 677 1278 677 1274 673 c 0,393,394
 1274 672 1274 672 1272 671 c 2,395,396
 1272 671 1272 671 1271 670 c 1,397,398
 1277 672 1277 672 1282 674.5 c 128,-1,399
 1287 677 1287 677 1291 679 c 0,400,401
 1296 682 1296 682 1296 681 c 2,402,403
 1296 681 1296 681 1294 680 c 0,404,405
 1293 679 1293 679 1289.5 677 c 128,-1,406
 1286 675 1286 675 1283 673.5 c 128,-1,407
 1280 672 1280 672 1277 670.5 c 128,-1,408
 1274 669 1274 669 1272 669 c 0,409,410
 1271 669 1271 669 1271 670 c 1,411,412
 1259 664 1259 664 1243.5 656.5 c 128,-1,413
 1228 649 1228 649 1211 642.5 c 128,-1,414
 1194 636 1194 636 1177.5 630.5 c 128,-1,415
 1161 625 1161 625 1147 622 c 0,416,417
 1139 621 1139 621 1125 620.5 c 128,-1,418
 1111 620 1111 620 1099 619.5 c 128,-1,419
 1087 619 1087 619 1081.5 618.5 c 128,-1,420
 1076 618 1076 618 1083 615 c 0,421,422
 1091 612 1091 612 1099.5 611 c 128,-1,423
 1108 610 1108 610 1117 610 c 0,424,425
 1129 610 1129 610 1141 611 c 128,-1,426
 1153 612 1153 612 1166 612 c 0,427,428
 1169 612 1169 612 1172.5 612 c 128,-1,429
 1176 612 1176 612 1179 611 c 0,430,431
 1224 608 1224 608 1258 582 c 0,432,433
 1277 568 1277 568 1277 563 c 0,434,435
 1280 555 1280 555 1266 555 c 0,436,437
 1253 555 1253 555 1241.5 556 c 128,-1,438
 1230 557 1230 557 1218 560 c 0,439,440
 1201 563 1201 563 1178 565.5 c 128,-1,441
 1155 568 1155 568 1128 572 c 0,442,443
 1102 576 1102 576 1079.5 578 c 128,-1,444
 1057 580 1057 580 1035 580 c 0,445,446
 1031 581 1031 581 1026.5 581 c 128,-1,447
 1022 581 1022 581 1019 581 c 0,448,449
 1005 581 1005 581 991 580.5 c 128,-1,450
 977 580 977 580 963 578 c 0,451,452
 960 577 960 577 955.5 575.5 c 128,-1,453
 951 574 951 574 943 574 c 0,318,319
EndSplineSet
EndChar

StartChar: oligonKentimataTripleYpsili
Encoding: 57358 57358 19
Width: 1580
GlyphClass: 2
Flags: W
AnchorPoint: "apli" 803 13 basechar 0
AnchorPoint: "klasmaBottom" 785 160 basechar 0
AnchorPoint: "yfesis" 1330 870 basechar 0
AnchorPoint: "diesis" 400 133 basechar 0
AnchorPoint: "psifiston" 840 113 basechar 0
AnchorPoint: "gorgonBottom" 667 125 basechar 0
AnchorPoint: "antikenoma" 820 165 basechar 0
AnchorPoint: "heteron" 1087 227 basechar 0
AnchorPoint: "fthoraTop" 1280 1329 basechar 0
AnchorPoint: "fthoraBottom" 789 209 basechar 0
AnchorPoint: "noteTop" 116 820 basechar 0
AnchorPoint: "omalonConnecting" 1471 133 basechar 0
AnchorPoint: "omalon" 1031 133 basechar 0
AnchorPoint: "heteronConnecting" 1692 -19 basechar 0
AnchorPoint: "measureNumber" 172 1213 basechar 0
AnchorPoint: "isonIndicator" 792 1463 basechar 0
AnchorPoint: "endofonon" 802 -62 basechar 0
AnchorPoint: "koronis" 783 1461 basechar 0
AnchorPoint: "yfenAbove" 930 1461 basechar 0
AnchorPoint: "yfenBelow" 929 -40 basechar 0
LayerCount: 2
Fore
SplineSet
288 364 m 0,0,1
 325 363 325 363 367.5 362 c 128,-1,2
 410 361 410 361 465 361 c 2,3,-1
 510 361 l 2,4,5
 558 361 558 361 637 362 c 128,-1,6
 716 363 716 363 830 366 c 0,7,8
 1055 370 1055 370 1172 370 c 0,9,10
 1279 370 1279 370 1447 272 c 1,11,12
 1456 259 1456 259 1466.5 249 c 128,-1,13
 1477 239 1477 239 1486 228 c 1,14,15
 1479 228 1479 228 1473.5 228.5 c 128,-1,16
 1468 229 1468 229 1461 231 c 0,17,18
 1431 236 1431 236 1415.5 240 c 128,-1,19
 1400 244 1400 244 1397 244 c 2,20,-1
 1308 251 l 2,21,22
 1266 254 1266 254 1228 256.5 c 128,-1,23
 1190 259 1190 259 1152 259 c 0,24,25
 1124 259 1124 259 1065.5 257 c 128,-1,26
 1007 255 1007 255 915 250 c 0,27,28
 822 245 822 245 754.5 243 c 128,-1,29
 687 241 687 241 641 241 c 0,30,31
 548 241 548 241 458.5 247 c 128,-1,32
 369 253 369 253 277 267 c 0,33,34
 211 277 211 277 130 367 c 1,35,-1
 130 393 l 1,36,37
 167 381 167 381 205.5 373 c 128,-1,38
 244 365 244 365 288 364 c 0,0,1
-22 484 m 0,39,40
 -22 485 -22 485 -21 485 c 256,41,42
 -20 485 -20 485 -17 487 c 0,43,44
 -15 488 -15 488 -19 494 c 0,45,46
 -23 499 -23 499 -17 501 c 0,47,48
 30 518 30 518 70.5 531 c 128,-1,49
 111 544 111 544 145 555.5 c 128,-1,50
 179 567 179 567 206 577 c 128,-1,51
 233 587 233 587 254 598 c 0,52,53
 333 640 333 640 379 712 c 0,54,55
 386 724 386 724 393.5 741.5 c 128,-1,56
 401 759 401 759 410 782.5 c 128,-1,57
 419 806 419 806 430.5 835 c 128,-1,58
 442 864 442 864 458 899 c 0,59,60
 459 902 459 902 462 903.5 c 128,-1,61
 465 905 465 905 469.5 905.5 c 128,-1,62
 474 906 474 906 478.5 907 c 128,-1,63
 483 908 483 908 487 910 c 0,64,65
 499 917 499 917 507 921 c 128,-1,66
 515 925 515 925 519 927 c 0,67,68
 531 933 531 933 539.5 935.5 c 128,-1,69
 548 938 548 938 551 940 c 2,70,-1
 564 940 l 2,71,72
 569 940 569 940 574.5 939.5 c 128,-1,73
 580 939 580 939 585 937 c 0,74,75
 589 936 589 936 594 935 c 128,-1,76
 599 934 599 934 603.5 933.5 c 128,-1,77
 608 933 608 933 613 931.5 c 128,-1,78
 618 930 618 930 622 926 c 0,79,80
 623 925 623 925 621.5 923 c 128,-1,81
 620 921 620 921 617.5 920 c 128,-1,82
 615 919 615 919 612 917.5 c 128,-1,83
 609 916 609 916 607 915 c 0,84,85
 569 889 569 889 567 882 c 0,86,87
 559 848 559 848 551.5 824 c 128,-1,88
 544 800 544 800 537 781 c 0,89,90
 535 775 535 775 530 766.5 c 128,-1,91
 525 758 525 758 519.5 749 c 128,-1,92
 514 740 514 740 508 731.5 c 128,-1,93
 502 723 502 723 499 717 c 1,94,95
 500 717 500 717 500 718 c 1,96,-1
 500 718 l 1,97,98
 500 718 500 718 500 718 c 1,99,100
 502 718 502 718 498 713 c 0,101,102
 495 710 495 710 494 710 c 1,103,104
 494 710 494 710 499 717 c 1,105,106
 495 715 495 715 485 708.5 c 128,-1,107
 475 702 475 702 461 691.5 c 128,-1,108
 447 681 447 681 431 668.5 c 128,-1,109
 415 656 415 656 398 643 c 0,110,111
 382 631 382 631 369.5 620.5 c 128,-1,112
 357 610 357 610 347 601 c 0,113,114
 336 592 336 592 328.5 585.5 c 128,-1,115
 321 579 321 579 317 575 c 0,116,117
 317 574 317 574 315 573 c 2,118,119
 315 573 315 573 314 572 c 1,120,121
 319 574 319 574 324 576.5 c 128,-1,122
 329 579 329 579 333 580 c 0,123,124
 338 583 338 583 339 583 c 128,-1,125
 340 583 340 583 330 578 c 0,126,127
 319 572 319 572 315 571 c 0,128,129
 314 571 314 571 314 572 c 1,130,131
 302 566 302 566 286.5 558.5 c 128,-1,132
 271 551 271 551 254 544.5 c 128,-1,133
 237 538 237 538 220.5 532.5 c 128,-1,134
 204 527 204 527 190 524 c 0,135,136
 182 523 182 523 168 522.5 c 128,-1,137
 154 522 154 522 142 521.5 c 128,-1,138
 130 521 130 521 124.5 520 c 128,-1,139
 119 519 119 519 126 517 c 0,140,141
 134 514 134 514 142.5 513 c 128,-1,142
 151 512 151 512 160 512 c 0,143,144
 172 512 172 512 184 513 c 128,-1,145
 196 514 196 514 209 514 c 0,146,147
 234 514 234 514 257.5 506.5 c 128,-1,148
 281 499 281 499 301 484 c 0,149,150
 319 470 319 470 320 465 c 0,151,152
 323 457 323 457 309 457 c 0,153,154
 296 457 296 457 284.5 458 c 128,-1,155
 273 459 273 459 261 462 c 0,156,157
 243 465 243 465 220.5 467.5 c 128,-1,158
 198 470 198 470 171 474 c 128,-1,159
 144 478 144 478 122 480 c 128,-1,160
 100 482 100 482 78 482 c 0,161,162
 74 483 74 483 69.5 483 c 128,-1,163
 65 483 65 483 62 483 c 0,164,165
 48 483 48 483 34 482.5 c 128,-1,166
 20 482 20 482 5 480 c 0,167,168
 2 479 2 479 -2.5 477.5 c 128,-1,169
 -7 476 -7 476 -15 476 c 0,170,171
 -19 476 -19 476 -22 484 c 0,39,40
592 786 m 0,172,173
 587 786 587 786 584 794 c 0,174,175
 584 795 584 795 585 795 c 256,176,177
 586 795 586 795 590 797 c 0,178,179
 592 798 592 798 587 804 c 0,180,181
 583 809 583 809 590 811 c 0,182,183
 636 828 636 828 676.5 841 c 128,-1,184
 717 854 717 854 751 865.5 c 128,-1,185
 785 877 785 877 812.5 887 c 128,-1,186
 840 897 840 897 860 908 c 0,187,188
 939 950 939 950 985 1022 c 0,189,190
 992 1034 992 1034 999.5 1051.5 c 128,-1,191
 1007 1069 1007 1069 1016 1092.5 c 128,-1,192
 1025 1116 1025 1116 1036.5 1145 c 128,-1,193
 1048 1174 1048 1174 1063 1209 c 0,194,195
 1064 1212 1064 1212 1067.5 1213.5 c 128,-1,196
 1071 1215 1071 1215 1075.5 1215.5 c 128,-1,197
 1080 1216 1080 1216 1084.5 1217 c 128,-1,198
 1089 1218 1089 1218 1093 1220 c 0,199,200
 1105 1227 1105 1227 1113 1231 c 128,-1,201
 1121 1235 1121 1235 1125 1237 c 0,202,203
 1137 1243 1137 1243 1145.5 1245.5 c 128,-1,204
 1154 1248 1154 1248 1157 1250 c 2,205,-1
 1170 1250 l 2,206,207
 1175 1250 1175 1250 1180.5 1249.5 c 128,-1,208
 1186 1249 1186 1249 1191 1247 c 0,209,210
 1195 1246 1195 1246 1200 1245.5 c 128,-1,211
 1205 1245 1205 1245 1209.5 1244 c 128,-1,212
 1214 1243 1214 1243 1219 1241.5 c 128,-1,213
 1224 1240 1224 1240 1228 1236 c 0,214,215
 1229 1235 1229 1235 1227.5 1233 c 128,-1,216
 1226 1231 1226 1231 1223.5 1230 c 128,-1,217
 1221 1229 1221 1229 1218 1227.5 c 128,-1,218
 1215 1226 1215 1226 1213 1225 c 0,219,220
 1175 1199 1175 1199 1173 1192 c 0,221,222
 1165 1158 1165 1158 1157.5 1134 c 128,-1,223
 1150 1110 1150 1110 1143 1091 c 0,224,225
 1141 1085 1141 1085 1136 1076.5 c 128,-1,226
 1131 1068 1131 1068 1125.5 1059 c 128,-1,227
 1120 1050 1120 1050 1114 1041.5 c 128,-1,228
 1108 1033 1108 1033 1104 1027 c 1,229,230
 1105 1027 1105 1027 1105 1028 c 1,231,-1
 1106 1028 l 1,232,233
 1106 1028 1106 1028 1106 1028 c 1,234,235
 1108 1028 1108 1028 1104 1023 c 0,236,237
 1101 1020 1101 1020 1100 1020 c 1,238,239
 1100 1020 1100 1020 1104 1027 c 1,240,241
 1100 1025 1100 1025 1090.5 1018.5 c 128,-1,242
 1081 1012 1081 1012 1067 1001.5 c 128,-1,243
 1053 991 1053 991 1037 978.5 c 128,-1,244
 1021 966 1021 966 1004 953 c 0,245,246
 988 941 988 941 975.5 930.5 c 128,-1,247
 963 920 963 920 953 912 c 0,248,249
 942 903 942 903 934.5 896 c 128,-1,250
 927 889 927 889 923 885 c 0,251,252
 923 884 923 884 921 883 c 2,253,254
 921 883 921 883 920 882 c 1,255,256
 925 884 925 884 930 886.5 c 128,-1,257
 935 889 935 889 939 891 c 0,258,259
 944 894 944 894 945 893 c 0,260,261
 946 893 946 893 936 888 c 0,262,263
 925 882 925 882 921 881 c 0,264,265
 920 881 920 881 920 882 c 1,266,267
 908 876 908 876 892 868.5 c 128,-1,268
 876 861 876 861 859.5 854.5 c 128,-1,269
 843 848 843 848 826.5 842.5 c 128,-1,270
 810 837 810 837 796 834 c 0,271,272
 788 833 788 833 774 832.5 c 128,-1,273
 760 832 760 832 748 831.5 c 128,-1,274
 736 831 736 831 730.5 830 c 128,-1,275
 725 829 725 829 732 827 c 0,276,277
 740 824 740 824 748.5 823 c 128,-1,278
 757 822 757 822 766 822 c 0,279,280
 778 822 778 822 790 823 c 128,-1,281
 802 824 802 824 815 824 c 0,282,283
 840 824 840 824 863.5 816.5 c 128,-1,284
 887 809 887 809 907 794 c 0,285,286
 925 780 925 780 926 775 c 0,287,288
 929 767 929 767 915 767 c 0,289,290
 902 767 902 767 890.5 768 c 128,-1,291
 879 769 879 769 867 772 c 0,292,293
 849 775 849 775 826.5 777.5 c 128,-1,294
 804 780 804 780 777 784 c 128,-1,295
 750 788 750 788 728 790 c 128,-1,296
 706 792 706 792 684 792 c 0,297,298
 680 793 680 793 675.5 793 c 128,-1,299
 671 793 671 793 667 793 c 0,300,301
 653 793 653 793 639.5 792.5 c 128,-1,302
 626 792 626 792 612 790 c 0,303,304
 609 789 609 789 604.5 787.5 c 128,-1,305
 600 786 600 786 592 786 c 0,172,173
1127 483 m 0,306,307
 1127 484 1127 484 1129 484 c 0,308,309
 1130 484 1130 484 1133 486 c 0,310,311
 1135 487 1135 487 1131 493 c 0,312,313
 1127 498 1127 498 1133 500 c 0,314,315
 1179 517 1179 517 1219.5 530 c 128,-1,316
 1260 543 1260 543 1294 554.5 c 128,-1,317
 1328 566 1328 566 1355.5 576 c 128,-1,318
 1383 586 1383 586 1404 597 c 0,319,320
 1483 639 1483 639 1529 711 c 0,321,322
 1536 723 1536 723 1543.5 740.5 c 128,-1,323
 1551 758 1551 758 1559.5 781.5 c 128,-1,324
 1568 805 1568 805 1579.5 834 c 128,-1,325
 1591 863 1591 863 1607 898 c 0,326,327
 1608 901 1608 901 1611.5 902.5 c 128,-1,328
 1615 904 1615 904 1619 904.5 c 128,-1,329
 1623 905 1623 905 1627.5 906 c 128,-1,330
 1632 907 1632 907 1637 909 c 0,331,332
 1649 916 1649 916 1656.5 920 c 128,-1,333
 1664 924 1664 924 1668 926 c 0,334,335
 1680 932 1680 932 1689 934.5 c 128,-1,336
 1698 937 1698 937 1701 939 c 2,337,-1
 1714 939 l 2,338,339
 1719 939 1719 939 1724 938.5 c 128,-1,340
 1729 938 1729 938 1735 936 c 0,341,342
 1739 935 1739 935 1743.5 934 c 128,-1,343
 1748 933 1748 933 1753 932.5 c 128,-1,344
 1758 932 1758 932 1762.5 930.5 c 128,-1,345
 1767 929 1767 929 1771 925 c 0,346,347
 1772 924 1772 924 1771 922 c 128,-1,348
 1770 920 1770 920 1767 919 c 128,-1,349
 1764 918 1764 918 1761 916.5 c 128,-1,350
 1758 915 1758 915 1757 914 c 0,351,352
 1719 888 1719 888 1716 881 c 0,353,354
 1708 847 1708 847 1701 823 c 128,-1,355
 1694 799 1694 799 1687 780 c 0,356,357
 1685 774 1685 774 1680 765.5 c 128,-1,358
 1675 757 1675 757 1669 748 c 128,-1,359
 1663 739 1663 739 1657.5 730.5 c 128,-1,360
 1652 722 1652 722 1648 716 c 1,361,362
 1649 716 1649 716 1649 717 c 1,363,-1
 1649 717 l 1,364,365
 1649 717 1649 717 1650 717 c 0,366,367
 1652 717 1652 717 1647 712 c 0,368,369
 1644 709 1644 709 1644 709 c 257,370,371
 1644 709 1644 709 1648 716 c 1,372,373
 1644 714 1644 714 1634 707.5 c 128,-1,374
 1624 701 1624 701 1610 690.5 c 128,-1,375
 1596 680 1596 680 1580 667.5 c 128,-1,376
 1564 655 1564 655 1548 642 c 0,377,378
 1532 630 1532 630 1519.5 619.5 c 128,-1,379
 1507 609 1507 609 1496 600 c 128,-1,380
 1485 591 1485 591 1477.5 584.5 c 128,-1,381
 1470 578 1470 578 1466 574 c 0,382,383
 1466 573 1466 573 1464 572 c 2,384,385
 1464 572 1464 572 1464 571 c 1,386,387
 1469 573 1469 573 1474 575.5 c 128,-1,388
 1479 578 1479 578 1482 579 c 0,389,390
 1487 582 1487 582 1488 582 c 128,-1,391
 1489 582 1489 582 1479 577 c 0,392,393
 1468 571 1468 571 1465 570 c 0,394,395
 1464 570 1464 570 1464 571 c 1,396,397
 1452 565 1452 565 1436 557.5 c 128,-1,398
 1420 550 1420 550 1403 543.5 c 128,-1,399
 1386 537 1386 537 1369.5 531.5 c 128,-1,400
 1353 526 1353 526 1340 523 c 0,401,402
 1332 522 1332 522 1318 521.5 c 128,-1,403
 1304 521 1304 521 1292 520.5 c 128,-1,404
 1280 520 1280 520 1274 519 c 128,-1,405
 1268 518 1268 518 1276 516 c 0,406,407
 1284 513 1284 513 1292 512 c 128,-1,408
 1300 511 1300 511 1310 511 c 0,409,410
 1322 511 1322 511 1334 512 c 128,-1,411
 1346 513 1346 513 1358 513 c 0,412,413
 1383 513 1383 513 1406.5 505.5 c 128,-1,414
 1430 498 1430 498 1451 483 c 0,415,416
 1469 469 1469 469 1469 464 c 0,417,418
 1472 456 1472 456 1458 456 c 0,419,420
 1445 456 1445 456 1434 457 c 128,-1,421
 1423 458 1423 458 1410 461 c 0,422,423
 1392 464 1392 464 1369.5 466.5 c 128,-1,424
 1347 469 1347 469 1321 473 c 0,425,426
 1294 477 1294 477 1271.5 479 c 128,-1,427
 1249 481 1249 481 1227 481 c 0,428,429
 1223 482 1223 482 1219 482 c 128,-1,430
 1215 482 1215 482 1211 482 c 0,431,432
 1197 482 1197 482 1183 481.5 c 128,-1,433
 1169 481 1169 481 1155 479 c 0,434,435
 1152 478 1152 478 1147.5 476.5 c 128,-1,436
 1143 475 1143 475 1135 475 c 0,437,438
 1130 475 1130 475 1127 483 c 0,306,307
585 679 m 0,439,440
 586 680 586 680 590 681 c 128,-1,441
 594 682 594 682 598 682.5 c 128,-1,442
 602 683 602 683 605.5 683 c 128,-1,443
 609 683 609 683 611 683 c 0,444,445
 626 683 626 683 654 679 c 0,446,447
 670 677 670 677 679.5 676 c 128,-1,448
 689 675 689 675 696 674 c 0,449,450
 759 664 759 664 776 577 c 0,451,452
 786 524 786 524 796 510 c 0,453,454
 804 496 804 496 824 494 c 0,455,456
 829 493 829 493 837 493 c 0,457,458
 840 493 840 493 842 491 c 0,459,460
 841 484 841 484 835 479.5 c 128,-1,461
 829 475 829 475 820.5 472.5 c 128,-1,462
 812 470 812 470 803.5 469 c 128,-1,463
 795 468 795 468 790 468 c 0,464,465
 771 468 771 468 749.5 473 c 128,-1,466
 728 478 728 478 701 488 c 0,467,468
 650 507 650 507 632 618 c 0,469,470
 626 666 626 666 603 666 c 2,471,-1
 590 666 l 2,472,473
 582 666 582 666 581 667 c 0,474,475
 579 670 579 670 585 679 c 0,439,440
807 680 m 0,476,477
 807 685 807 685 821 685 c 2,478,-1
 824 685 l 2,479,480
 831 685 831 685 842 684 c 128,-1,481
 853 683 853 683 867 680 c 0,482,483
 882 678 882 678 890.5 676.5 c 128,-1,484
 899 675 899 675 906 674 c 0,485,486
 969 665 969 665 987 577 c 0,487,488
 997 525 997 525 1007 510 c 0,489,490
 1013 500 1013 500 1034 496 c 0,491,492
 1052 492 1052 492 1051 491 c 0,493,494
 1051 488 1051 488 1050 488.5 c 128,-1,495
 1049 489 1049 489 1046 483 c 0,496,497
 1039 469 1039 469 1001 469 c 0,498,499
 982 469 982 469 960 474.5 c 128,-1,500
 938 480 938 480 912 490 c 0,501,502
 861 509 861 509 843 622 c 0,503,504
 836 669 836 669 823 669 c 2,505,-1
 821 669 l 2,506,507
 820 669 820 669 816 669 c 0,508,509
 806 669 806 669 807 680 c 0,476,477
EndSplineSet
EndChar

StartChar: oligonKentimaTripleYpsili
Encoding: 57359 57359 20
Width: 1580
GlyphClass: 2
Flags: W
AnchorPoint: "apli" 803 30 basechar 0
AnchorPoint: "klasmaBottom" 785 160 basechar 0
AnchorPoint: "yfesis" 1530 560 basechar 0
AnchorPoint: "diesis" 400 133 basechar 0
AnchorPoint: "psifiston" 840 113 basechar 0
AnchorPoint: "gorgonBottom" 667 125 basechar 0
AnchorPoint: "antikenoma" 820 165 basechar 0
AnchorPoint: "heteron" 1087 227 basechar 0
AnchorPoint: "fthoraTop" 1340 1293 basechar 0
AnchorPoint: "fthoraBottom" 789 209 basechar 0
AnchorPoint: "noteTop" 116 820 basechar 0
AnchorPoint: "omalonConnecting" 1471 133 basechar 0
AnchorPoint: "omalon" 1031 133 basechar 0
AnchorPoint: "heteronConnecting" 1692 -19 basechar 0
AnchorPoint: "measureNumber" 172 1213 basechar 0
AnchorPoint: "isonIndicator" 792 1463 basechar 0
AnchorPoint: "endofonon" 802 -62 basechar 0
AnchorPoint: "koronis" 783 1461 basechar 0
AnchorPoint: "yfenAbove" 930 1461 basechar 0
AnchorPoint: "yfenBelow" 929 -40 basechar 0
LayerCount: 2
Fore
SplineSet
76 393 m 1,0,1
 115 380 115 380 153.5 372.5 c 128,-1,2
 192 365 192 365 234 363 c 0,3,4
 290 361 290 361 345 360.5 c 128,-1,5
 400 360 400 360 456 360 c 0,6,7
 504 360 504 360 583.5 361 c 128,-1,8
 663 362 663 362 776 365 c 0,9,10
 890 367 890 367 975 368 c 128,-1,11
 1060 369 1060 369 1119 369 c 0,12,13
 1226 369 1226 369 1394 271 c 0,14,15
 1399 265 1399 265 1403.5 259 c 128,-1,16
 1408 253 1408 253 1413 248 c 128,-1,17
 1418 243 1418 243 1423 237.5 c 128,-1,18
 1428 232 1428 232 1433 227 c 1,19,-1
 1425 227 l 2,20,21
 1418 227 1418 227 1408 230 c 0,22,23
 1393 232 1393 232 1381.5 234.5 c 128,-1,24
 1370 237 1370 237 1362 239 c 0,25,26
 1344 243 1344 243 1343 243 c 2,27,-1
 1254 250 l 2,28,29
 1214 254 1214 254 1176 256 c 128,-1,30
 1138 258 1138 258 1098 258 c 0,31,32
 1070 258 1070 258 1011.5 256 c 128,-1,33
 953 254 953 254 861 249 c 0,34,35
 768 244 768 244 700.5 242 c 128,-1,36
 633 240 633 240 587 240 c 0,37,38
 496 240 496 240 405 246 c 128,-1,39
 314 252 314 252 223 266 c 0,40,41
 157 276 157 276 76 366 c 1,42,-1
 76 393 l 1,0,1
-48 468 m 0,43,44
 -52 468 -52 468 -56 475 c 0,45,46
 -56 476 -56 476 -55 477 c 0,47,48
 -53 477 -53 477 -50 478 c 0,49,50
 -49 479 -49 479 -53 485 c 0,51,52
 -57 490 -57 490 -50 493 c 0,53,54
 -6 510 -6 510 32.5 523 c 128,-1,55
 71 536 71 536 103 547 c 0,56,57
 138 558 138 558 170 571.5 c 128,-1,58
 202 585 202 585 230 603 c 128,-1,59
 258 621 258 621 282 645.5 c 128,-1,60
 306 670 306 670 326 703 c 0,61,62
 333 715 333 715 340 732.5 c 128,-1,63
 347 750 347 750 354 774 c 0,64,65
 370 821 370 821 400 891 c 0,66,67
 402 897 402 897 412 897 c 0,68,69
 421 897 421 897 428 902 c 0,70,71
 433 905 433 905 439 908.5 c 128,-1,72
 445 912 445 912 452 916 c 128,-1,73
 459 920 459 920 465.5 923 c 128,-1,74
 472 926 472 926 478 928 c 0,75,76
 482 929 482 929 484.5 930 c 128,-1,77
 487 931 487 931 489 931 c 0,78,79
 493 931 493 931 497 931 c 128,-1,80
 501 931 501 931 505 932 c 0,81,82
 514 932 514 932 521 929 c 128,-1,83
 528 926 528 926 539 926 c 0,84,85
 549 925 549 925 556 917 c 0,86,87
 558 914 558 914 552 912 c 0,88,89
 549 911 549 911 546.5 909.5 c 128,-1,90
 544 908 544 908 542 907 c 0,91,92
 507 882 507 882 504 874 c 0,93,94
 499 850 499 850 493.5 828.5 c 128,-1,95
 488 807 488 807 481 787.5 c 128,-1,96
 474 768 474 768 464 749 c 128,-1,97
 454 730 454 730 439 709 c 1,98,99
 439 709 439 709 441 710 c 0,100,101
 442 710 442 710 438 705 c 2,102,-1
 435 701 l 1,103,-1
 436 704 l 2,104,105
 437 705 437 705 437.5 706 c 128,-1,106
 438 707 438 707 439 709 c 1,107,108
 438 708 438 708 437 707 c 128,-1,109
 436 706 436 706 434 705 c 0,110,111
 397 679 397 679 362.5 651 c 128,-1,112
 328 623 328 623 294 593 c 0,113,114
 284 584 284 584 277 577.5 c 128,-1,115
 270 571 270 571 266 567 c 0,116,117
 265 566 265 566 264.5 565 c 128,-1,118
 264 564 264 564 264 563 c 1,119,120
 269 565 269 565 273.5 567.5 c 128,-1,121
 278 570 278 570 282 572 c 0,122,123
 285 574 285 574 286 575 c 0,124,125
 287 575 287 575 287 575 c 129,-1,126
 287 575 287 575 285 574 c 0,127,128
 284 573 284 573 282 572 c 128,-1,129
 280 571 280 571 278 569 c 0,130,131
 264 561 264 561 264 563 c 1,132,133
 225 542 225 542 185.5 527.5 c 128,-1,134
 146 513 146 513 101 513 c 0,135,136
 96 513 96 513 91.5 513 c 128,-1,137
 87 513 87 513 83 512 c 0,138,139
 75 511 75 511 85 508 c 0,140,141
 100 502 100 502 116 502 c 0,142,143
 119 502 119 502 122 502.5 c 128,-1,144
 125 503 125 503 129 503 c 0,145,146
 137 504 137 504 144.5 504.5 c 128,-1,147
 152 505 152 505 160 505 c 0,148,149
 186 505 186 505 208 498.5 c 128,-1,150
 230 492 230 492 251 475 c 0,151,152
 269 461 269 461 269 456 c 0,153,154
 272 448 272 448 259 449 c 0,155,156
 235 449 235 449 212 453 c 0,157,158
 204 454 204 454 195 456 c 128,-1,159
 186 458 186 458 175 459 c 128,-1,160
 164 460 164 460 152.5 462 c 128,-1,161
 141 464 141 464 128 466 c 0,162,163
 106 469 106 469 84 471 c 128,-1,164
 62 473 62 473 39 473 c 0,165,166
 26 474 26 474 15 475 c 0,167,168
 -8 475 -8 475 -29 472 c 0,169,170
 -34 470 -34 470 -38.5 469 c 128,-1,171
 -43 468 -43 468 -48 468 c 0,43,44
1025 499 m 0,172,173
 1021 499 1021 499 1018 507 c 0,174,175
 1018 508 1018 508 1020 508 c 0,176,177
 1021 508 1021 508 1024 510 c 0,178,179
 1025 511 1025 511 1021 516 c 256,180,181
 1017 521 1017 521 1024 524 c 0,182,183
 1068 541 1068 541 1106.5 554.5 c 128,-1,184
 1145 568 1145 568 1177 578 c 0,185,186
 1212 589 1212 589 1244 602.5 c 128,-1,187
 1276 616 1276 616 1304 634.5 c 128,-1,188
 1332 653 1332 653 1356 677.5 c 128,-1,189
 1380 702 1380 702 1399 735 c 0,190,191
 1406 747 1406 747 1413 764.5 c 128,-1,192
 1420 782 1420 782 1428 805 c 0,193,194
 1444 852 1444 852 1474 922 c 0,195,196
 1476 928 1476 928 1485 929 c 0,197,198
 1494 929 1494 929 1502 933 c 0,199,200
 1506 936 1506 936 1512.5 940 c 128,-1,201
 1519 944 1519 944 1526 947.5 c 128,-1,202
 1533 951 1533 951 1539.5 954 c 128,-1,203
 1546 957 1546 957 1552 959 c 0,204,205
 1560 961 1560 961 1562 963 c 0,206,207
 1566 963 1566 963 1570 963 c 128,-1,208
 1574 963 1574 963 1579 963 c 0,209,210
 1589 963 1589 963 1596 960 c 128,-1,211
 1603 957 1603 957 1612 957 c 0,212,213
 1622 956 1622 956 1629 949 c 0,214,215
 1633 946 1633 946 1626 943 c 0,216,217
 1623 942 1623 942 1620.5 940.5 c 128,-1,218
 1618 939 1618 939 1616 938 c 0,219,220
 1581 913 1581 913 1578 905 c 0,221,222
 1574 888 1574 888 1570.5 874 c 128,-1,223
 1567 860 1567 860 1563 847 c 0,224,225
 1559 833 1559 833 1555 821 c 128,-1,226
 1551 809 1551 809 1546.5 798 c 128,-1,227
 1542 787 1542 787 1536 776.5 c 128,-1,228
 1530 766 1530 766 1522 754 c 0,229,230
 1520 750 1520 750 1517.5 746.5 c 128,-1,231
 1515 743 1515 743 1513 740 c 1,232,233
 1515 741 1515 741 1516 741 c 128,-1,234
 1517 741 1517 741 1513 736 c 2,235,-1
 1509 732 l 1,236,237
 1509 732 1509 732 1510 735 c 0,238,239
 1511 736 1511 736 1511.5 737.5 c 128,-1,240
 1512 739 1512 739 1513 740 c 1,241,242
 1512 739 1512 739 1510.5 738.5 c 128,-1,243
 1509 738 1509 738 1508 737 c 0,244,245
 1471 711 1471 711 1436.5 682.5 c 128,-1,246
 1402 654 1402 654 1368 624 c 0,247,248
 1367 623 1367 623 1362 619 c 128,-1,249
 1357 615 1357 615 1351.5 610 c 128,-1,250
 1346 605 1346 605 1342 600.5 c 128,-1,251
 1338 596 1338 596 1338 595 c 1,252,253
 1343 597 1343 597 1347.5 599 c 128,-1,254
 1352 601 1352 601 1356 603 c 0,255,256
 1359 605 1359 605 1360 606 c 0,257,258
 1361 606 1361 606 1361 606 c 129,-1,259
 1361 606 1361 606 1359 605 c 0,260,261
 1358 604 1358 604 1356 603 c 128,-1,262
 1354 602 1354 602 1352 600 c 0,263,264
 1338 592 1338 592 1338 595 c 1,265,266
 1326 589 1326 589 1311 581.5 c 128,-1,267
 1296 574 1296 574 1280 567 c 128,-1,268
 1264 560 1264 560 1248 555 c 128,-1,269
 1232 550 1232 550 1220 547 c 0,270,271
 1209 545 1209 545 1197.5 544.5 c 128,-1,272
 1186 544 1186 544 1174 544 c 0,273,274
 1169 544 1169 544 1164.5 544 c 128,-1,275
 1160 544 1160 544 1157 543 c 0,276,277
 1150 542 1150 542 1159 539 c 0,278,279
 1168 535 1168 535 1176.5 534.5 c 128,-1,280
 1185 534 1185 534 1194 534 c 0,281,282
 1196 534 1196 534 1198 534 c 128,-1,283
 1200 534 1200 534 1203 535 c 0,284,285
 1210 536 1210 536 1217 536.5 c 128,-1,286
 1224 537 1224 537 1230 537 c 0,287,288
 1256 537 1256 537 1280 530 c 128,-1,289
 1304 523 1304 523 1325 507 c 0,290,291
 1343 493 1343 493 1343 488 c 0,292,293
 1346 480 1346 480 1333 480 c 0,294,295
 1310 480 1310 480 1287 485 c 0,296,297
 1279 486 1279 486 1269.5 487.5 c 128,-1,298
 1260 489 1260 489 1249 491 c 0,299,300
 1238 492 1238 492 1226.5 493.5 c 128,-1,301
 1215 495 1215 495 1202 497 c 0,302,303
 1180 500 1180 500 1158 502.5 c 128,-1,304
 1136 505 1136 505 1113 505 c 0,305,306
 1100 506 1100 506 1089 506 c 0,307,308
 1067 506 1067 506 1044 503 c 0,309,310
 1039 501 1039 501 1034.5 500 c 128,-1,311
 1030 499 1030 499 1025 499 c 0,172,173
585 783 m 0,312,313
 580 783 580 783 578 789 c 0,314,315
 578 792 578 792 584 792 c 0,316,317
 587 793 587 793 583 800 c 0,318,319
 580 805 580 805 585 808 c 0,320,321
 629 824 629 824 668 836 c 128,-1,322
 707 848 707 848 740 857 c 0,323,324
 774 866 774 866 807 878.5 c 128,-1,325
 840 891 840 891 869.5 909.5 c 128,-1,326
 899 928 899 928 924.5 951.5 c 128,-1,327
 950 975 950 975 969 1007 c 0,328,329
 976 1018 976 1018 983.5 1034.5 c 128,-1,330
 991 1051 991 1051 1000 1074 c 0,331,332
 1009 1096 1009 1096 1021 1125 c 128,-1,333
 1033 1154 1033 1154 1049 1189 c 0,334,335
 1052 1195 1052 1195 1060 1196 c 0,336,337
 1068 1196 1068 1196 1075 1201 c 0,338,339
 1086 1208 1086 1208 1095 1211 c 0,340,341
 1103 1214 1103 1214 1107 1218 c 0,342,343
 1112 1220 1112 1220 1116.5 1221.5 c 128,-1,344
 1121 1223 1121 1223 1125 1224 c 0,345,346
 1132 1227 1132 1227 1138 1227 c 0,347,348
 1154 1227 1154 1227 1169 1222 c 0,349,350
 1174 1220 1174 1220 1183 1220 c 2,351,-1
 1188 1220 l 2,352,353
 1193 1220 1193 1220 1197 1218.5 c 128,-1,354
 1201 1217 1201 1217 1204 1213 c 128,-1,355
 1207 1209 1207 1209 1200 1206 c 0,356,357
 1196 1205 1196 1205 1188 1200.5 c 128,-1,358
 1180 1196 1180 1196 1172.5 1190 c 128,-1,359
 1165 1184 1165 1184 1158.5 1178.5 c 128,-1,360
 1152 1173 1152 1173 1151 1169 c 0,361,362
 1146 1153 1146 1153 1142 1139 c 128,-1,363
 1138 1125 1138 1125 1134 1112 c 0,364,365
 1131 1098 1131 1098 1126.5 1086 c 128,-1,366
 1122 1074 1122 1074 1116 1063.5 c 128,-1,367
 1110 1053 1110 1053 1103.5 1042.5 c 128,-1,368
 1097 1032 1097 1032 1089 1020 c 0,369,370
 1085 1014 1085 1014 1082 1008 c 1,371,372
 1085 1008 1085 1008 1080 1003 c 0,373,374
 1078 1001 1078 1001 1077 1000 c 2,375,376
 1077 1000 1077 1000 1076.5 999.5 c 128,-1,377
 1076 999 1076 999 1076 999 c 129,-1,378
 1076 999 1076 999 1077 1002 c 0,379,380
 1078 1003 1078 1003 1079 1004.5 c 128,-1,381
 1080 1006 1080 1006 1082 1008 c 1,382,383
 1081 1008 1081 1008 1079 1007 c 128,-1,384
 1077 1006 1077 1006 1073 1004 c 0,385,386
 1049 989 1049 989 1026 973 c 128,-1,387
 1003 957 1003 957 981 939 c 0,388,389
 967 928 967 928 954.5 917.5 c 128,-1,390
 942 907 942 907 932 899 c 0,391,392
 921 891 921 891 914 884 c 128,-1,393
 907 877 907 877 903 872 c 2,394,395
 903 872 903 872 902.5 871 c 128,-1,396
 902 870 902 870 902 870 c 1,397,398
 907 872 907 872 911.5 873.5 c 128,-1,399
 916 875 916 875 919 876 c 0,400,401
 923 877 923 877 924 878 c 0,402,403
 926 878 926 878 916 872 c 0,404,405
 907 867 907 867 902 867 c 0,406,407
 900 867 900 867 902 870 c 1,408,409
 883 862 883 862 864.5 854.5 c 128,-1,410
 846 847 846 847 827 840 c 0,411,412
 798 829 798 829 782 825 c 0,413,414
 775 824 775 824 761 824 c 2,415,-1
 736 824 l 2,416,417
 731 824 731 824 726.5 824 c 128,-1,418
 722 824 722 824 719 823 c 0,419,420
 715 823 715 823 721 819 c 0,421,422
 728 815 728 815 736 813.5 c 128,-1,423
 744 812 744 812 752 812 c 0,424,425
 755 812 755 812 758 812 c 128,-1,426
 761 812 761 812 764 813 c 0,427,428
 776 814 776 814 787 814 c 0,429,430
 815 814 815 814 839.5 806.5 c 128,-1,431
 864 799 864 799 886 782 c 0,432,433
 902 769 902 769 902 760 c 0,434,435
 903 754 903 754 892 753 c 2,436,-1
 845 758 l 1,437,-1
 762 774 l 2,438,439
 747 778 747 778 729 781 c 128,-1,440
 711 784 711 784 693 785.5 c 128,-1,441
 675 787 675 787 657 788 c 128,-1,442
 639 789 639 789 624 789 c 0,443,444
 619 789 619 789 614 788.5 c 128,-1,445
 609 788 609 788 605 788 c 0,446,447
 601 785 601 785 595 784 c 128,-1,448
 589 783 589 783 585 783 c 0,312,313
648 714 m 0,449,450
 650 717 650 717 665 718 c 2,451,-1
 691 718 l 2,452,453
 705 718 705 718 719 714 c 2,454,-1
 764 706 l 2,455,456
 829 694 829 694 847 598 c 0,457,458
 858 537 858 537 870 524 c 0,459,460
 878 514 878 514 888 510 c 128,-1,461
 898 506 898 506 911 505 c 0,462,463
 914 505 914 505 916 503 c 0,464,465
 914 495 914 495 906.5 490.5 c 128,-1,466
 899 486 899 486 890.5 483 c 128,-1,467
 882 480 882 480 873 479 c 128,-1,468
 864 478 864 478 857 478 c 0,469,470
 835 478 835 478 811.5 485 c 128,-1,471
 788 492 788 492 769 500 c 0,472,473
 717 521 717 521 697 645 c 0,474,475
 689 698 689 698 666 699 c 2,476,-1
 652 699 l 2,477,478
 643 699 643 699 642 700 c 0,479,480
 640 702 640 702 648 714 c 0,449,450
EndSplineSet
EndChar

StartChar: oligonIson
Encoding: 57360 57360 21
Width: 1515
GlyphClass: 2
Flags: W
AnchorPoint: "apli" 803 30 basechar 0
AnchorPoint: "klasmaBottom" 785 160 basechar 0
AnchorPoint: "yfesis" 1316 619 basechar 0
AnchorPoint: "diesis" 400 133 basechar 0
AnchorPoint: "psifiston" 840 113 basechar 0
AnchorPoint: "gorgonBottom" 667 125 basechar 0
AnchorPoint: "antikenoma" 820 165 basechar 0
AnchorPoint: "heteron" 1087 227 basechar 0
AnchorPoint: "fthoraTop" 788 717 basechar 0
AnchorPoint: "fthoraBottom" 789 209 basechar 0
AnchorPoint: "noteTop" 338 878 basechar 0
AnchorPoint: "omalonConnecting" 1471 133 basechar 0
AnchorPoint: "omalon" 1031 133 basechar 0
AnchorPoint: "heteronConnecting" 1692 -19 basechar 0
AnchorPoint: "measureNumber" 172 943 basechar 0
AnchorPoint: "isonIndicator" 792 913 basechar 0
AnchorPoint: "endofonon" 802 -62 basechar 0
AnchorPoint: "koronis" 783 911 basechar 0
AnchorPoint: "yfenAbove" 930 911 basechar 0
AnchorPoint: "yfenBelow" 929 -40 basechar 0
LayerCount: 2
Fore
SplineSet
223 269 m 0,0,1
 158 279 158 279 76 369 c 1,2,-1
 76 396 l 1,3,4
 112 383 112 383 151 375 c 128,-1,5
 190 367 190 367 233 366 c 0,6,7
 277 365 277 365 331 364 c 128,-1,8
 385 363 385 363 456 363 c 0,9,10
 551 363 551 363 776 367 c 0,11,12
 1001 372 1001 372 1118 372 c 0,13,14
 1225 372 1225 372 1393 274 c 1,15,16
 1402 261 1402 261 1412.5 251 c 128,-1,17
 1423 241 1423 241 1432 230 c 1,18,19
 1431 230 1431 230 1424.5 230 c 128,-1,20
 1418 230 1418 230 1407 233 c 0,21,22
 1377 237 1377 237 1361.5 241 c 128,-1,23
 1346 245 1346 245 1343 245 c 2,24,-1
 1254 253 l 2,25,26
 1213 256 1213 256 1174 258.5 c 128,-1,27
 1135 261 1135 261 1098 261 c 0,28,29
 1043 261 1043 261 860 252 c 256,30,31
 677 243 677 243 587 242 c 0,32,33
 540 242 540 242 494.5 243.5 c 128,-1,34
 449 245 449 245 404 249 c 0,35,36
 359 252 359 252 313.5 257 c 128,-1,37
 268 262 268 262 223 269 c 0,0,1
120 762 m 0,38,39
 129 765 129 765 141.5 765 c 128,-1,40
 154 765 154 765 171 765 c 0,41,42
 226 765 226 765 282 752 c 128,-1,43
 338 739 338 739 397 709 c 1,44,-1
 476 651 l 1,45,46
 465 651 465 651 444 653 c 128,-1,47
 423 655 423 655 390 657 c 0,48,49
 359 660 359 660 335.5 661.5 c 128,-1,50
 312 663 312 663 298 664 c 0,51,52
 268 664 268 664 245 656 c 0,53,54
 226 649 226 649 226 633 c 0,55,56
 226 625 226 625 232 614 c 0,57,58
 240 600 240 600 244.5 590 c 128,-1,59
 249 580 249 580 255 578 c 0,60,61
 272 572 272 572 287 568.5 c 128,-1,62
 302 565 302 565 319 562 c 2,63,-1
 371 552 l 2,64,65
 380 550 380 550 397.5 549 c 128,-1,66
 415 548 415 548 441 548 c 0,67,68
 525 556 525 556 605 563.5 c 128,-1,69
 685 571 685 571 762 578 c 0,70,71
 913 592 913 592 1083 592 c 0,72,73
 1196 592 1196 592 1362 497 c 1,74,-1
 1399 454 l 1,75,-1
 1376 459 l 1,76,-1
 1310 470 l 1,77,-1
 1210 479 l 2,78,79
 1118 489 1118 489 1037 489 c 1,80,-1
 988 486 l 2,81,82
 963 485 963 485 926.5 484 c 128,-1,83
 890 483 890 483 841 479 c 0,84,85
 822 478 822 478 791 478 c 128,-1,86
 760 478 760 478 716 478 c 0,87,88
 682 478 682 478 647 479 c 128,-1,89
 612 480 612 480 574 481 c 0,90,91
 499 484 499 484 405 495 c 0,92,93
 340 502 340 502 278 525.5 c 128,-1,94
 216 549 216 549 154 583 c 0,95,96
 32 650 32 650 32 707 c 0,97,98
 32 748 32 748 120 762 c 0,38,39
EndSplineSet
EndChar

StartChar: oligonApostrofos
Encoding: 57361 57361 22
Width: 1515
GlyphClass: 2
Flags: W
AnchorPoint: "apli" 803 30 basechar 0
AnchorPoint: "klasmaBottom" 785 160 basechar 0
AnchorPoint: "yfesis" 1316 619 basechar 0
AnchorPoint: "diesis" 400 133 basechar 0
AnchorPoint: "psifiston" 840 113 basechar 0
AnchorPoint: "gorgonBottom" 667 125 basechar 0
AnchorPoint: "antikenoma" 820 165 basechar 0
AnchorPoint: "heteron" 1087 227 basechar 0
AnchorPoint: "fthoraTop" 746 882 basechar 0
AnchorPoint: "fthoraBottom" 789 209 basechar 0
AnchorPoint: "noteTop" 196 674 basechar 0
AnchorPoint: "omalonConnecting" 1471 133 basechar 0
AnchorPoint: "omalon" 1031 133 basechar 0
AnchorPoint: "heteronConnecting" 1692 -19 basechar 0
AnchorPoint: "measureNumber" 172 943 basechar 0
AnchorPoint: "isonIndicator" 792 913 basechar 0
AnchorPoint: "endofonon" 802 -62 basechar 0
AnchorPoint: "koronis" 783 911 basechar 0
AnchorPoint: "yfenAbove" 930 911 basechar 0
AnchorPoint: "yfenBelow" 929 -40 basechar 0
LayerCount: 2
Fore
SplineSet
351 647 m 1,0,1
 364 650 364 650 375 655 c 128,-1,2
 386 660 386 660 398 663 c 0,3,4
 420 664 420 664 454.5 665 c 128,-1,5
 489 666 489 666 536 666 c 0,6,7
 592 666 592 666 666 652 c 0,8,9
 687 648 687 648 708 641.5 c 128,-1,10
 729 635 729 635 750 630 c 0,11,12
 831 610 831 610 884 572 c 256,13,14
 937 534 937 534 937 491 c 0,15,16
 937 469 937 469 923 450 c 0,17,18
 918 444 918 444 895 444 c 0,19,20
 878 444 878 444 854 447 c 128,-1,21
 830 450 830 450 796 457 c 0,22,23
 785 459 785 459 770.5 462 c 128,-1,24
 756 465 756 465 737 469 c 1,25,26
 757 479 757 479 771 497 c 0,27,28
 786 516 786 516 781 529 c 0,29,30
 771 552 771 552 733 572.5 c 128,-1,31
 695 593 695 593 629 605 c 0,32,33
 559 618 559 618 490 627 c 128,-1,34
 421 636 421 636 351 647 c 1,0,1
223 267 m 0,35,36
 158 277 158 277 76 367 c 1,37,-1
 76 394 l 1,38,39
 112 381 112 381 151 373 c 128,-1,40
 190 365 190 365 233 364 c 0,41,42
 277 363 277 363 331 362 c 128,-1,43
 385 361 385 361 456 361 c 0,44,45
 551 361 551 361 776 365 c 0,46,47
 1001 370 1001 370 1118 370 c 0,48,49
 1225 370 1225 370 1393 272 c 1,50,51
 1402 259 1402 259 1412.5 249 c 128,-1,52
 1423 239 1423 239 1432 228 c 1,53,54
 1431 228 1431 228 1424.5 228 c 128,-1,55
 1418 228 1418 228 1407 231 c 0,56,57
 1377 235 1377 235 1361.5 239 c 128,-1,58
 1346 243 1346 243 1343 243 c 2,59,-1
 1254 251 l 2,60,61
 1213 254 1213 254 1174 256.5 c 128,-1,62
 1135 259 1135 259 1098 259 c 0,63,64
 1043 259 1043 259 860 250 c 256,65,66
 677 241 677 241 587 240 c 0,67,68
 540 240 540 240 494.5 241.5 c 128,-1,69
 449 243 449 243 404 247 c 0,70,71
 359 250 359 250 313.5 255 c 128,-1,72
 268 260 268 260 223 267 c 0,35,36
EndSplineSet
EndChar

StartChar: oligonYporroi
Encoding: 57362 57362 23
Width: 1515
GlyphClass: 2
Flags: W
AnchorPoint: "apli" 803 30 basechar 0
AnchorPoint: "klasmaBottom" 785 160 basechar 0
AnchorPoint: "yfesis" 1316 619 basechar 0
AnchorPoint: "diesis" 400 133 basechar 0
AnchorPoint: "psifiston" 840 113 basechar 0
AnchorPoint: "gorgonBottom" 667 125 basechar 0
AnchorPoint: "antikenoma" 820 165 basechar 0
AnchorPoint: "heteron" 1087 227 basechar 0
AnchorPoint: "fthoraTop" 989 924 basechar 0
AnchorPoint: "fthoraBottom" 789 209 basechar 0
AnchorPoint: "noteTop" 196 674 basechar 0
AnchorPoint: "omalonConnecting" 1471 133 basechar 0
AnchorPoint: "omalon" 1031 133 basechar 0
AnchorPoint: "heteronConnecting" 1692 -19 basechar 0
AnchorPoint: "measureNumber" 172 943 basechar 0
AnchorPoint: "isonIndicator" 792 973 basechar 0
AnchorPoint: "endofonon" 802 -62 basechar 0
AnchorPoint: "koronis" 783 911 basechar 0
AnchorPoint: "yfenAbove" 930 971 basechar 0
AnchorPoint: "yfenBelow" 929 -40 basechar 0
AnchorPoint: "barline" 997 878 basechar 0
LayerCount: 2
Fore
SplineSet
1063 479 m 0,0,1
 1051 464 1051 464 1029 458 c 0,2,3
 1006 452 1006 452 976 452 c 0,4,5
 954 452 954 452 935 454 c 128,-1,6
 916 456 916 456 893 460 c 0,7,8
 872 463 872 463 858.5 467.5 c 128,-1,9
 845 472 845 472 837 475 c 2,10,-1
 792 494 l 2,11,12
 760 510 760 510 757 514 c 0,13,14
 755 518 755 518 760 521 c 0,15,16
 761 522 761 522 773 522 c 0,17,18
 781 522 781 522 789.5 522 c 128,-1,19
 798 522 798 522 810 519 c 0,20,21
 876 509 876 509 888 510 c 0,22,23
 907 510 907 510 915 518 c 0,24,25
 921 523 921 523 921 535 c 0,26,27
 921 552 921 552 895 597 c 256,28,29
 869 642 869 642 868 666 c 0,30,31
 868 687 868 687 884 702 c 0,32,33
 890 707 890 707 918 713 c 0,34,35
 931 716 931 716 945.5 716 c 128,-1,36
 960 716 960 716 976 716 c 0,37,38
 993 716 993 716 1011 716 c 128,-1,39
 1029 716 1029 716 1048 713 c 0,40,41
 1084 708 1084 708 1085 707 c 0,42,43
 1094 690 1094 690 1095 680 c 0,44,45
 1095 667 1095 667 1076 666 c 0,46,47
 1066 666 1066 666 1048 671 c 0,48,49
 1028 676 1028 676 1021 676 c 0,50,51
 1015 676 1015 676 1015 671 c 0,52,53
 1015 653 1015 653 1048 600 c 0,54,55
 1080 549 1080 549 1081 521 c 0,56,57
 1081 500 1081 500 1063 479 c 0,0,1
235 268 m 0,58,59
 170 278 170 278 89 368 c 1,60,-1
 89 395 l 1,61,62
 125 382 125 382 163.5 374 c 128,-1,63
 202 366 202 366 245 365 c 256,64,65
 288 364 288 364 342 363 c 128,-1,66
 396 362 396 362 465 362 c 0,67,68
 559 362 559 362 783 366 c 0,69,70
 1006 371 1006 371 1122 371 c 0,71,72
 1228 371 1228 371 1394 273 c 1,73,74
 1403 260 1403 260 1413 250 c 128,-1,75
 1423 240 1423 240 1432 229 c 1,76,77
 1431 229 1431 229 1424.5 229 c 128,-1,78
 1418 229 1418 229 1408 232 c 0,79,80
 1379 236 1379 236 1363 240 c 128,-1,81
 1347 244 1347 244 1344 244 c 2,82,-1
 1255 252 l 2,83,84
 1215 255 1215 255 1176.5 257.5 c 128,-1,85
 1138 260 1138 260 1101 260 c 0,86,87
 1047 260 1047 260 866 251 c 0,88,89
 684 242 684 242 596 241 c 0,90,91
 549 241 549 241 504 242.5 c 128,-1,92
 459 244 459 244 414 248 c 0,93,94
 369 251 369 251 324.5 256 c 128,-1,95
 280 261 280 261 235 268 c 0,58,59
EndSplineSet
EndChar

StartChar: oligonElafron
Encoding: 57363 57363 24
Width: 1519
GlyphClass: 2
Flags: W
AnchorPoint: "apli" 803 30 basechar 0
AnchorPoint: "klasmaBottom" 785 160 basechar 0
AnchorPoint: "yfesis" 1316 619 basechar 0
AnchorPoint: "diesis" 400 133 basechar 0
AnchorPoint: "psifiston" 840 113 basechar 0
AnchorPoint: "gorgonBottom" 667 125 basechar 0
AnchorPoint: "antikenoma" 820 165 basechar 0
AnchorPoint: "heteron" 1087 227 basechar 0
AnchorPoint: "fthoraTop" 602 1035 basechar 0
AnchorPoint: "fthoraBottom" 789 209 basechar 0
AnchorPoint: "noteTop" 214 912 basechar 0
AnchorPoint: "omalonConnecting" 1471 133 basechar 0
AnchorPoint: "omalon" 1031 133 basechar 0
AnchorPoint: "heteronConnecting" 1692 -19 basechar 0
AnchorPoint: "measureNumber" 172 943 basechar 0
AnchorPoint: "isonIndicator" 792 1093 basechar 0
AnchorPoint: "endofonon" 802 -62 basechar 0
AnchorPoint: "koronis" 783 1041 basechar 0
AnchorPoint: "yfenAbove" 930 1091 basechar 0
AnchorPoint: "yfenBelow" 929 -40 basechar 0
LayerCount: 2
Fore
SplineSet
120 738 m 256,0,1
 120 766 120 766 133.5 786 c 128,-1,2
 147 806 147 806 169 819 c 128,-1,3
 191 832 191 832 219 841 c 128,-1,4
 247 850 247 850 275.5 854 c 128,-1,5
 304 858 304 858 330.5 859 c 128,-1,6
 357 860 357 860 376 860 c 0,7,8
 436 860 436 860 493.5 854 c 128,-1,9
 551 848 551 848 607.5 838 c 128,-1,10
 664 828 664 828 720.5 815 c 128,-1,11
 777 802 777 802 834 786 c 0,12,13
 951 752 951 752 1100 654 c 0,14,15
 1246 556 1246 556 1245 516 c 0,16,17
 1244 498 1244 498 1209 498 c 0,18,19
 1162 498 1162 498 1112 504 c 128,-1,20
 1062 510 1062 510 1016 520 c 1,21,22
 1027 624 1027 624 852 708 c 0,23,24
 684 788 684 788 512 788 c 0,25,26
 495 788 495 788 474.5 787 c 128,-1,27
 454 786 454 786 432.5 782 c 128,-1,28
 411 778 411 778 390.5 771 c 128,-1,29
 370 764 370 764 353.5 752 c 128,-1,30
 337 740 337 740 326.5 724 c 128,-1,31
 316 708 316 708 315 684 c 0,32,33
 314 654 314 654 361 618 c 0,34,35
 421 572 421 572 425 570 c 1,36,37
 286 572 286 572 215 600 c 0,38,39
 168 620 168 620 137 670 c 1,40,41
 120 710 120 710 120 738 c 256,0,1
76 395 m 1,42,43
 113 382 113 382 151 374 c 128,-1,44
 189 366 189 366 233 365 c 256,45,46
 277 364 277 364 331 363 c 128,-1,47
 385 362 385 362 456 362 c 0,48,49
 504 362 504 362 583.5 363 c 128,-1,50
 663 364 663 364 776 366 c 256,51,52
 889 368 889 368 974 369.5 c 128,-1,53
 1059 371 1059 371 1118 371 c 0,54,55
 1225 371 1225 371 1393 273 c 1,56,57
 1402 260 1402 260 1412.5 250 c 128,-1,58
 1423 240 1423 240 1432 229 c 1,59,60
 1419 229 1419 229 1407 232 c 0,61,62
 1377 236 1377 236 1361.5 240 c 128,-1,63
 1346 244 1346 244 1343 244 c 2,64,-1
 1254 252 l 2,65,66
 1213 255 1213 255 1174.5 257.5 c 128,-1,67
 1136 260 1136 260 1098 260 c 0,68,69
 1070 260 1070 260 1011 258 c 128,-1,70
 952 256 952 256 860 251 c 256,71,72
 768 246 768 246 700 243.5 c 128,-1,73
 632 241 632 241 587 241 c 0,74,75
 495 241 495 241 404 247 c 128,-1,76
 313 253 313 253 223 268 c 0,77,78
 157 278 157 278 76 368 c 1,79,-1
 76 395 l 1,42,43
EndSplineSet
EndChar

StartChar: oligonElafronApostrofos
Encoding: 57364 57364 25
Width: 1515
GlyphClass: 2
Flags: W
AnchorPoint: "apli" 803 30 basechar 0
AnchorPoint: "klasmaBottom" 785 160 basechar 0
AnchorPoint: "yfesis" 1316 619 basechar 0
AnchorPoint: "diesis" 400 133 basechar 0
AnchorPoint: "psifiston" 840 113 basechar 0
AnchorPoint: "gorgonBottom" 667 125 basechar 0
AnchorPoint: "antikenoma" 820 165 basechar 0
AnchorPoint: "heteron" 1087 227 basechar 0
AnchorPoint: "fthoraTop" 602 1035 basechar 0
AnchorPoint: "fthoraBottom" 789 209 basechar 0
AnchorPoint: "noteTop" 214 912 basechar 0
AnchorPoint: "omalonConnecting" 1471 133 basechar 0
AnchorPoint: "omalon" 1031 133 basechar 0
AnchorPoint: "heteronConnecting" 1692 -19 basechar 0
AnchorPoint: "measureNumber" 172 943 basechar 0
AnchorPoint: "isonIndicator" 792 1093 basechar 0
AnchorPoint: "endofonon" 802 -62 basechar 0
AnchorPoint: "koronis" 783 1041 basechar 0
AnchorPoint: "yfenAbove" 930 1091 basechar 0
AnchorPoint: "yfenBelow" 929 -40 basechar 0
LayerCount: 2
Fore
SplineSet
76 366 m 1,0,-1
 76 393 l 1,1,2
 113 380 113 380 151 372 c 128,-1,3
 189 364 189 364 233 363 c 256,4,5
 277 362 277 362 331 361 c 128,-1,6
 385 360 385 360 456 360 c 0,7,8
 504 360 504 360 583.5 361 c 128,-1,9
 663 362 663 362 776 364 c 256,10,11
 889 366 889 366 974 367.5 c 128,-1,12
 1059 369 1059 369 1118 369 c 0,13,14
 1225 369 1225 369 1393 271 c 1,15,16
 1402 258 1402 258 1412.5 248 c 128,-1,17
 1423 238 1423 238 1432 227 c 1,18,19
 1419 227 1419 227 1407 230 c 0,20,21
 1377 234 1377 234 1361.5 238 c 128,-1,22
 1346 242 1346 242 1343 242 c 2,23,-1
 1254 250 l 2,24,25
 1213 253 1213 253 1174.5 255.5 c 128,-1,26
 1136 258 1136 258 1098 258 c 0,27,28
 1070 258 1070 258 1011 256 c 128,-1,29
 952 254 952 254 860 249 c 256,30,31
 768 244 768 244 700 241.5 c 128,-1,32
 632 239 632 239 587 239 c 0,33,34
 495 239 495 239 404 245 c 128,-1,35
 313 251 313 251 223 266 c 0,36,37
 157 276 157 276 76 366 c 1,0,-1
138 742 m 0,38,39
 138 770 138 770 151.5 790 c 128,-1,40
 165 810 165 810 187 823.5 c 128,-1,41
 209 837 209 837 237 845 c 128,-1,42
 265 853 265 853 293.5 857.5 c 128,-1,43
 322 862 322 862 348.5 863 c 128,-1,44
 375 864 375 864 395 864 c 0,45,46
 447 864 447 864 501.5 859.5 c 128,-1,47
 556 855 556 855 615 845 c 0,48,49
 675 836 675 836 733 821 c 128,-1,50
 791 806 791 806 852 789 c 0,51,52
 911 772 911 772 977 739.5 c 128,-1,53
 1043 707 1043 707 1118 658 c 0,54,55
 1264 562 1264 562 1263 520 c 0,56,57
 1263 501 1263 501 1227 502 c 0,58,59
 1180 502 1180 502 1130 508.5 c 128,-1,60
 1080 515 1080 515 1034 525 c 1,61,62
 1046 629 1046 629 870 713 c 0,63,64
 703 793 703 793 530 792 c 0,65,66
 513 792 513 792 492.5 790.5 c 128,-1,67
 472 789 472 789 450.5 785 c 128,-1,68
 429 781 429 781 408.5 774 c 128,-1,69
 388 767 388 767 371.5 755.5 c 128,-1,70
 355 744 355 744 344.5 728 c 128,-1,71
 334 712 334 712 333 689 c 0,72,73
 332 658 332 658 379 622 c 0,74,75
 437 577 437 577 442 575 c 1,76,77
 303 576 303 576 233 605 c 0,78,79
 186 625 186 625 155 674 c 1,80,81
 138 713 138 713 138 742 c 0,38,39
415 643 m 1,82,83
 428 646 428 646 439 651 c 128,-1,84
 450 656 450 656 462 659 c 0,85,86
 498 661 498 661 533.5 661.5 c 128,-1,87
 569 662 569 662 605 662 c 0,88,89
 632 662 632 662 663 658.5 c 128,-1,90
 694 655 694 655 729 648 c 0,91,92
 751 644 751 644 772 637.5 c 128,-1,93
 793 631 793 631 813 626 c 0,94,95
 828 623 828 623 848 616.5 c 128,-1,96
 868 610 868 610 889 601 c 128,-1,97
 910 592 910 592 930.5 580.5 c 128,-1,98
 951 569 951 569 966.5 554.5 c 128,-1,99
 982 540 982 540 991.5 523.5 c 128,-1,100
 1001 507 1001 507 1001 487 c 0,101,102
 1000 465 1000 465 987 446 c 0,103,104
 982 440 982 440 959 440 c 0,105,106
 942 440 942 440 918 443 c 128,-1,107
 894 446 894 446 860 453 c 0,108,109
 849 455 849 455 834.5 458 c 128,-1,110
 820 461 820 461 801 465 c 1,111,112
 811 470 811 470 819.5 477 c 128,-1,113
 828 484 828 484 835 493 c 0,114,115
 850 511 850 511 845 525 c 0,116,117
 835 548 835 548 797 568.5 c 128,-1,118
 759 589 759 589 693 601 c 0,119,120
 622 614 622 614 554 623 c 128,-1,121
 486 632 486 632 415 643 c 1,82,83
EndSplineSet
EndChar

StartChar: oligonChamili
Encoding: 57365 57365 26
Width: 1515
GlyphClass: 2
Flags: W
AnchorPoint: "apli" 803 30 basechar 0
AnchorPoint: "klasmaBottom" 785 160 basechar 0
AnchorPoint: "yfesis" 1316 619 basechar 0
AnchorPoint: "diesis" 400 133 basechar 0
AnchorPoint: "psifiston" 840 113 basechar 0
AnchorPoint: "gorgonBottom" 667 125 basechar 0
AnchorPoint: "antikenoma" 820 165 basechar 0
AnchorPoint: "heteron" 1087 227 basechar 0
AnchorPoint: "fthoraTop" 758 927 basechar 0
AnchorPoint: "fthoraBottom" 789 209 basechar 0
AnchorPoint: "noteTop" 240 1020 basechar 0
AnchorPoint: "omalonConnecting" 1471 133 basechar 0
AnchorPoint: "omalon" 1031 133 basechar 0
AnchorPoint: "heteronConnecting" 1692 -19 basechar 0
AnchorPoint: "measureNumber" 172 513 basechar 0
AnchorPoint: "isonIndicator" 792 1023 basechar 0
AnchorPoint: "endofonon" 802 -62 basechar 0
AnchorPoint: "koronis" 783 1041 basechar 0
AnchorPoint: "yfenAbove" 930 1031 basechar 0
AnchorPoint: "yfenBelow" 929 -40 basechar 0
LayerCount: 2
Fore
SplineSet
234 268 m 0,0,1
 169 278 169 278 87 368 c 1,2,-1
 87 395 l 1,3,4
 123 382 123 382 162.5 374.5 c 128,-1,5
 202 367 202 367 245 366 c 0,6,7
 289 365 289 365 343 363.5 c 128,-1,8
 397 362 397 362 467 362 c 0,9,10
 562 362 562 362 788 367 c 0,11,12
 1013 372 1013 372 1130 372 c 0,13,14
 1237 372 1237 372 1405 273 c 1,15,16
 1414 260 1414 260 1424.5 250.5 c 128,-1,17
 1435 241 1435 241 1444 229 c 1,18,19
 1443 229 1443 229 1436.5 229 c 128,-1,20
 1430 229 1430 229 1419 233 c 0,21,22
 1389 237 1389 237 1373.5 241 c 128,-1,23
 1358 245 1358 245 1354 245 c 2,24,-1
 1266 253 l 2,25,26
 1225 256 1225 256 1186 258.5 c 128,-1,27
 1147 261 1147 261 1109 261 c 0,28,29
 1054 261 1054 261 872 251 c 0,30,31
 689 242 689 242 599 242 c 0,32,33
 552 242 552 242 506.5 243.5 c 128,-1,34
 461 245 461 245 416 248 c 256,35,36
 371 251 371 251 325 256 c 128,-1,37
 279 261 279 261 234 268 c 0,0,1
844 680 m 1,38,39
 838 668 838 668 832 649.5 c 128,-1,40
 826 631 826 631 819 606 c 1,41,-1
 957 599 l 2,42,43
 1188 590 1188 590 1233 545 c 1,44,45
 1091 545 1091 545 985 545 c 128,-1,46
 879 545 879 545 799 546 c 1,47,48
 782 508 782 508 754 479 c 0,49,50
 743 465 743 465 710 455 c 0,51,52
 693 450 693 450 678 449 c 128,-1,53
 663 448 663 448 649 448 c 0,54,55
 627 448 627 448 618 451 c 0,56,57
 605 457 605 457 613 465 c 0,58,59
 638 501 638 501 654 551 c 1,60,-1
 641 551 l 1,61,62
 441 560 441 560 343 609 c 0,63,64
 259 648 259 648 157 773 c 0,65,66
 149 787 149 787 145 813 c 0,67,68
 132 887 132 887 127 896 c 1,69,70
 158 900 158 900 196 906 c 0,71,72
 234 911 234 911 249 910 c 0,73,74
 292 909 292 909 321 891 c 0,75,76
 328 887 328 887 329 866 c 2,77,-1
 326 821 l 2,78,79
 326 807 326 807 330 801 c 0,80,81
 422 670 422 670 633 627 c 0,82,83
 641 624 641 624 651.5 623.5 c 128,-1,84
 662 623 662 623 674 621 c 1,85,86
 679 637 679 637 683.5 649 c 128,-1,87
 688 661 688 661 694 673 c 0,88,89
 702 690 702 690 732 690 c 2,90,-1
 793 684 l 2,91,92
 805 682 805 682 818.5 681 c 128,-1,93
 832 680 832 680 844 680 c 1,38,39
EndSplineSet
EndChar

StartChar: isonApostrofos
Encoding: 57376 57376 27
Width: 1277
GlyphClass: 2
Flags: W
AnchorPoint: "apli" 1244 -424 basechar 0
AnchorPoint: "diesis" 400 133 basechar 0
AnchorPoint: "fthoraTop" 644 507 basechar 0
AnchorPoint: "fthoraBottom" 420 153 basechar 0
AnchorPoint: "noteTop" 322 661 basechar 0
AnchorPoint: "measureNumber" 172 773 basechar 0
AnchorPoint: "isonIndicator" 630 895 basechar 0
AnchorPoint: "koronis" 630 881 basechar 0
AnchorPoint: "yfenAbove" 690 891 basechar 0
AnchorPoint: "yfenBelow" 754 -236 basechar 0
LayerCount: 2
Fore
SplineSet
733 132 m 1,0,1
 784 137 784 137 898 137 c 0,2,3
 934 137 934 137 974 133 c 128,-1,4
 1014 129 1014 129 1058 119 c 0,5,6
 1084 113 1084 113 1109 107 c 128,-1,7
 1134 101 1134 101 1160 93 c 0,8,9
 1259 68 1259 68 1322 21 c 0,10,11
 1386 -26 1386 -26 1386 -79 c 0,12,13
 1386 -110 1386 -110 1371 -129 c 0,14,15
 1365 -137 1365 -137 1336 -137 c 0,16,17
 1296 -137 1296 -137 1217 -122 c 0,18,19
 1205 -120 1205 -120 1186 -117 c 128,-1,20
 1167 -114 1167 -114 1144 -107 c 1,21,22
 1169 -96 1169 -96 1186 -71 c 0,23,24
 1202 -47 1202 -47 1197 -34 c 0,25,26
 1186 -6 1186 -6 1140 19.5 c 128,-1,27
 1094 45 1094 45 1014 62 c 0,28,29
 930 79 930 79 844.5 90 c 128,-1,30
 759 101 759 101 675 113 c 1,31,-1
 733 132 l 1,0,1
102 529 m 0,32,33
 109 532 109 532 119 532.5 c 128,-1,34
 129 533 129 533 143 533 c 0,35,36
 186 533 186 533 231.5 519.5 c 128,-1,37
 277 506 277 506 325 477 c 1,38,-1
 388 418 l 1,39,40
 379 418 379 418 362 420 c 128,-1,41
 345 422 345 422 318 425 c 0,42,43
 293 428 293 428 274.5 429.5 c 128,-1,44
 256 431 256 431 245 431 c 0,45,46
 222 431 222 431 202 423 c 0,47,48
 187 416 187 416 187 400 c 0,49,50
 187 392 187 392 192 381 c 0,51,52
 199 367 199 367 203 357 c 128,-1,53
 207 347 207 347 211 345 c 0,54,55
 226 339 226 339 237 336 c 128,-1,56
 248 333 248 333 262 330 c 2,57,-1
 304 319 l 2,58,59
 311 317 311 317 325 316 c 128,-1,60
 339 315 339 315 360 315 c 0,61,62
 428 323 428 323 492 330.5 c 128,-1,63
 556 338 556 338 617 345 c 0,64,65
 738 358 738 358 875 359 c 0,66,67
 965 359 965 359 1098 264 c 1,68,-1
 1128 222 l 1,69,-1
 1109 227 l 1,70,-1
 1057 237 l 1,71,-1
 977 247 l 2,72,73
 903 257 903 257 837 256 c 1,74,-1
 798 253 l 2,75,76
 778 252 778 252 748.5 251 c 128,-1,77
 719 250 719 250 681 247 c 0,78,79
 666 246 666 246 641 245.5 c 128,-1,80
 616 245 616 245 581 245 c 0,81,82
 554 245 554 245 525.5 246 c 128,-1,83
 497 247 497 247 467 249 c 0,84,85
 406 252 406 252 331 262 c 0,86,87
 279 269 279 269 229.5 292 c 128,-1,88
 180 315 180 315 129 350 c 0,89,90
 31 417 31 417 32 475 c 0,91,92
 32 515 32 515 102 529 c 0,32,33
EndSplineSet
EndChar

StartChar: apostrofos
Encoding: 57377 57377 28
Width: 703
GlyphClass: 2
Flags: W
AnchorPoint: "gorgonTop" 400 580 basechar 0
AnchorPoint: "apli" 500 18 basechar 0
AnchorPoint: "klasmaTop" 408 567 basechar 0
AnchorPoint: "yfesis" 648 557 basechar 0
AnchorPoint: "diesis" 233 100 basechar 0
AnchorPoint: "gorgonBottom" 348 -18 basechar 0
AnchorPoint: "antikenoma" 461 101 basechar 0
AnchorPoint: "fthoraTop" 386 642 basechar 0
AnchorPoint: "fthoraBottom" 340 99 basechar 0
AnchorPoint: "noteTop" 170 643 basechar 0
AnchorPoint: "heteronConnecting" 879 -19 basechar 0
AnchorPoint: "measureNumber" 172 783 basechar 0
AnchorPoint: "isonIndicator" 366 885 basechar 0
AnchorPoint: "endofonon" 502 -126 basechar 0
AnchorPoint: "koronis" 370 891 basechar 0
AnchorPoint: "yfenAbove" 470 891 basechar 0
AnchorPoint: "yfenBelow" 509 -40 basechar 0
LayerCount: 2
Fore
SplineSet
110 416 m 1,0,1
 161 421 161 421 275 421 c 0,2,3
 311 421 311 421 351 417 c 128,-1,4
 391 413 391 413 435 403 c 0,5,6
 461 397 461 397 486 390.5 c 128,-1,7
 511 384 511 384 537 377 c 0,8,9
 635 352 635 352 699 305 c 0,10,11
 762 258 762 258 763 205 c 0,12,13
 763 174 763 174 748 154 c 0,14,15
 742 146 742 146 713 147 c 0,16,17
 672 147 672 147 594 162 c 0,18,19
 581 164 581 164 562.5 167 c 128,-1,20
 544 170 544 170 521 176 c 1,21,22
 546 187 546 187 563 213 c 0,23,24
 580 237 580 237 574 250 c 0,25,26
 562 278 562 278 516.5 304 c 128,-1,27
 471 330 471 330 391 345 c 0,28,29
 307 362 307 362 221.5 373 c 128,-1,30
 136 384 136 384 52 397 c 1,31,-1
 110 416 l 1,0,1
EndSplineSet
EndChar

StartChar: apostrofosSyndesmos
Encoding: 57378 57378 29
Width: 1177
GlyphClass: 2
Flags: W
AnchorPoint: "gorgonTop" 938 193 basechar 0
AnchorPoint: "apli" 944 -424 basechar 0
AnchorPoint: "diesis" 333 127 basechar 0
AnchorPoint: "fthoraTop" 587 642 basechar 0
AnchorPoint: "fthoraBottom" 373 93 basechar 0
AnchorPoint: "noteTop" 194 699 basechar 0
AnchorPoint: "measureNumber" 172 803 basechar 0
AnchorPoint: "isonIndicator" 630 895 basechar 0
AnchorPoint: "koronis" 630 881 basechar 0
AnchorPoint: "yfenAbove" 930 891 basechar 0
AnchorPoint: "yfenBelow" 929 -400 basechar 0
LayerCount: 2
Fore
SplineSet
-62 457 m 1,0,1
 -10 461 -10 461 103 461 c 0,2,3
 139 461 139 461 179 457.5 c 128,-1,4
 219 454 219 454 263 444 c 0,5,6
 289 438 289 438 314.5 432 c 128,-1,7
 340 426 340 426 365 418 c 0,8,9
 464 393 464 393 527 345 c 0,10,11
 590 298 590 298 591 246 c 0,12,13
 591 215 591 215 576 196 c 0,14,15
 570 189 570 189 541 188 c 0,16,17
 500 188 500 188 422 203 c 0,18,19
 410 205 410 205 391 208 c 128,-1,20
 372 211 372 211 349 218 c 1,21,22
 374 229 374 229 391 254 c 0,23,24
 408 278 408 278 402 291 c 0,25,26
 390 319 390 319 344.5 344.5 c 128,-1,27
 299 370 299 370 219 386 c 0,28,29
 135 403 135 403 50 414.5 c 128,-1,30
 -35 426 -35 426 -120 438 c 1,31,-1
 -62 457 l 1,0,1
654 181 m 1,32,33
 706 186 706 186 822 186 c 0,34,35
 858 186 858 186 897 182.5 c 128,-1,36
 936 179 936 179 980 169 c 0,37,38
 1006 163 1006 163 1031 156.5 c 128,-1,39
 1056 150 1056 150 1082 142 c 0,40,41
 1180 117 1180 117 1244 71 c 0,42,43
 1308 24 1308 24 1308 -30 c 0,44,45
 1308 -61 1308 -61 1292 -79 c 0,46,47
 1286 -87 1286 -87 1258 -87 c 0,48,49
 1218 -87 1218 -87 1140 -72 c 0,50,51
 1128 -70 1128 -70 1109 -67 c 128,-1,52
 1090 -64 1090 -64 1068 -57 c 1,53,54
 1092 -44 1092 -44 1108 -22 c 0,55,56
 1124 2 1124 2 1120 16 c 0,57,58
 1108 44 1108 44 1062 69.5 c 128,-1,59
 1016 95 1016 95 936 111 c 0,60,61
 852 128 852 128 767 139 c 128,-1,62
 682 150 682 150 598 163 c 1,63,-1
 654 181 l 1,32,33
EndSplineSet
EndChar

StartChar: yporroi
Encoding: 57379 57379 30
Width: 400
GlyphClass: 2
Flags: W
AnchorPoint: "gorgonTop" 400 527 basechar 0
AnchorPoint: "apli" 161 42 basechar 0
AnchorPoint: "yfesis" 308 609 basechar 0
AnchorPoint: "diesis" 267 60 basechar 0
AnchorPoint: "antikenoma" 197 100 basechar 0
AnchorPoint: "heteron" 316 -86 basechar 0
AnchorPoint: "fthoraTop" 308 609 basechar 0
AnchorPoint: "fthoraBottom" 148 101 basechar 0
AnchorPoint: "noteTop" 156 675 basechar 0
AnchorPoint: "heteronConnecting" 583 -19 basechar 0
AnchorPoint: "measureNumber" 72 483 basechar 0
AnchorPoint: "isonIndicator" 212 885 basechar 0
AnchorPoint: "endofonon" 192 -146 basechar 0
AnchorPoint: "koronis" 210 881 basechar 0
AnchorPoint: "yfenAbove" 217 887 basechar 0
AnchorPoint: "yfenBelow" 159 -40 basechar 0
AnchorPoint: "yfesisSecondary" -19 -223 basechar 0
AnchorPoint: "barline" 286 590 basechar 0
AnchorPoint: "diesisSecondary" 587 887 basechar 0
LayerCount: 2
Fore
SplineSet
362 203 m 0,0,1
 351 189 351 189 328 182 c 0,2,3
 305 176 305 176 275 176 c 0,4,5
 253 176 253 176 233.5 178.5 c 128,-1,6
 214 181 214 181 192 183 c 0,7,8
 170 186 170 186 157 191 c 128,-1,9
 144 196 144 196 136 199 c 2,10,-1
 90 218 l 2,11,12
 59 234 59 234 56 238 c 0,13,14
 54 241 54 241 59 245 c 0,15,16
 60 246 60 246 72 246 c 0,17,18
 80 246 80 246 88.5 246 c 128,-1,19
 97 246 97 246 109 243 c 0,20,21
 175 234 175 234 187 234 c 0,22,23
 206 234 206 234 214 242 c 0,24,25
 220 248 220 248 220 259 c 0,26,27
 220 276 220 276 193 321 c 0,28,29
 167 366 167 366 167 390 c 0,30,31
 167 411 167 411 183 426 c 0,32,33
 189 432 189 432 217 437 c 0,34,35
 230 439 230 439 244.5 439.5 c 128,-1,36
 259 440 259 440 275 440 c 0,37,38
 292 440 292 440 310 440 c 128,-1,39
 328 440 328 440 347 437 c 0,40,41
 383 432 383 432 384 431 c 0,42,43
 393 414 393 414 394 404 c 0,44,45
 394 390 394 390 375 390 c 0,46,47
 366 390 366 390 347 394 c 0,48,49
 328 399 328 399 320 399 c 0,50,51
 314 399 314 399 314 394 c 0,52,53
 314 375 314 375 347 324 c 256,54,55
 380 273 380 273 380 245 c 0,56,57
 379 224 379 224 362 203 c 0,0,1
EndSplineSet
EndChar

StartChar: elafron
Encoding: 57380 57380 31
Width: 1243
GlyphClass: 2
Flags: W
AnchorPoint: "gorgonTop" 627 580 basechar 0
AnchorPoint: "apli" 588 -1 basechar 0
AnchorPoint: "klasmaTop" 560 620 basechar 0
AnchorPoint: "yfesis" 980 536 basechar 0
AnchorPoint: "diesis" 427 20 basechar 0
AnchorPoint: "gorgonBottom" 487 -18 basechar 0
AnchorPoint: "antikenoma" 566 70 basechar 0
AnchorPoint: "fthoraTop" 518 660 basechar 0
AnchorPoint: "fthoraBottom" 609 70 basechar 0
AnchorPoint: "noteTop" 242 703 basechar 0
AnchorPoint: "omalonConnecting" 1241 89 basechar 0
AnchorPoint: "heteronConnecting" 1420 -19 basechar 0
AnchorPoint: "measureNumber" 172 613 basechar 0
AnchorPoint: "isonIndicator" 528 897 basechar 0
AnchorPoint: "endofonon" 632 -37 basechar 0
AnchorPoint: "koronis" 560 746 basechar 0
AnchorPoint: "yfenAbove" 650 901 basechar 0
AnchorPoint: "yfenBelow" 659 -40 basechar 0
LayerCount: 2
Fore
SplineSet
60 360 m 256,0,1
 60 388 60 388 73.5 408 c 128,-1,2
 87 428 87 428 109 441 c 128,-1,3
 131 454 131 454 159 463 c 128,-1,4
 187 472 187 472 215.5 476 c 128,-1,5
 244 480 244 480 270.5 481 c 128,-1,6
 297 482 297 482 316 482 c 0,7,8
 376 482 376 482 433.5 476 c 128,-1,9
 491 470 491 470 547.5 460 c 128,-1,10
 604 450 604 450 660.5 437 c 128,-1,11
 717 424 717 424 774 408 c 0,12,13
 891 374 891 374 1040 276 c 0,14,15
 1186 178 1186 178 1185 138 c 0,16,17
 1184 120 1184 120 1149 120 c 0,18,19
 1102 120 1102 120 1052 126 c 128,-1,20
 1002 132 1002 132 956 142 c 1,21,22
 967 246 967 246 792 330 c 0,23,24
 624 410 624 410 452 410 c 0,25,26
 435 410 435 410 414.5 409 c 128,-1,27
 394 408 394 408 372.5 404 c 128,-1,28
 351 400 351 400 330.5 393 c 128,-1,29
 310 386 310 386 293.5 374 c 128,-1,30
 277 362 277 362 266.5 346 c 128,-1,31
 256 330 256 330 255 306 c 0,32,33
 254 276 254 276 301 240 c 0,34,35
 361 194 361 194 365 192 c 1,36,37
 226 194 226 194 155 222 c 0,38,39
 108 242 108 242 77 292 c 1,40,41
 60 332 60 332 60 360 c 256,0,1
EndSplineSet
EndChar

StartChar: runningElafron
Encoding: 57381 57381 32
Width: 1752
GlyphClass: 2
Flags: W
AnchorPoint: "gorgonTop" 1147 580 basechar 0
AnchorPoint: "apli" 1132 13 basechar 0
AnchorPoint: "klasmaTop" 1060 620 basechar 0
AnchorPoint: "yfesis" 1490 536 basechar 0
AnchorPoint: "diesis" 937 20 basechar 0
AnchorPoint: "antikenoma" 1191 101 basechar 0
AnchorPoint: "fthoraTop" 1098 660 basechar 0
AnchorPoint: "fthoraBottom" 1139 70 basechar 0
AnchorPoint: "noteTop" 742 703 basechar 0
AnchorPoint: "omalonConnecting" 1751 89 basechar 0
AnchorPoint: "heteronConnecting" 1929 -19 basechar 0
AnchorPoint: "measureNumber" 172 653 basechar 0
AnchorPoint: "isonIndicator" 1018 887 basechar 0
AnchorPoint: "endofonon" 1112 -37 basechar 0
AnchorPoint: "koronis" 1030 746 basechar 0
AnchorPoint: "yfenAbove" 1060 891 basechar 0
AnchorPoint: "yfenBelow" 1109 -40 basechar 0
AnchorPoint: "fthoraTopSecondary" 290 665 basechar 0
AnchorPoint: "yfesisSecondary" 388 570 basechar 0
AnchorPoint: "barline" 583 590 basechar 0
AnchorPoint: "diesisSecondary" 713 895 basechar 0
AnchorPoint: "stavros" 547 487 basechar 0
LayerCount: 2
Fore
SplineSet
54 432 m 1,0,1
 102 436 102 436 208 437 c 0,2,3
 280 437 280 437 358 422 c 0,4,5
 386 417 386 417 409 410.5 c 128,-1,6
 432 404 432 404 454 395 c 0,7,8
 502 384 502 384 541 367 c 128,-1,9
 580 350 580 350 606 329 c 0,10,11
 666 284 666 284 666 232 c 0,12,13
 666 206 666 206 652 185 c 0,14,15
 648 178 648 178 620 177 c 0,16,17
 584 177 584 177 508 192 c 0,18,19
 496 194 496 194 479 197.5 c 128,-1,20
 462 201 462 201 440 206 c 1,21,22
 466 222 466 222 480 240 c 0,23,24
 488 251 488 251 491 259.5 c 128,-1,25
 494 268 494 268 492 276 c 0,26,27
 480 302 480 302 437 326.5 c 128,-1,28
 394 351 394 351 318 367 c 0,29,30
 238 384 238 384 159 393.5 c 128,-1,31
 80 403 80 403 0 417 c 1,32,-1
 54 432 l 1,0,1
1558 137 m 1,33,34
 1572 235 1572 235 1406 317 c 0,35,36
 1326 357 1326 357 1248 377.5 c 128,-1,37
 1170 398 1170 398 1088 400 c 0,38,39
 1008 403 1008 403 958 378 c 1,40,41
 906 357 906 357 900 304 c 0,42,43
 898 273 898 273 942 239 c 0,44,45
 998 196 998 196 1004 195 c 1,46,47
 938 195 938 195 890 204 c 128,-1,48
 842 213 842 213 808 226 c 0,49,50
 764 244 764 244 734 292 c 0,51,52
 728 309 728 309 724 326 c 128,-1,53
 720 343 720 343 720 361 c 0,54,55
 720 419 720 419 786 445 c 0,56,57
 852 472 852 472 964 470 c 0,58,59
 1010 470 1010 470 1062 464.5 c 128,-1,60
 1114 459 1114 459 1168 449 c 0,61,62
 1224 437 1224 437 1280 422 c 128,-1,63
 1336 407 1336 407 1392 390 c 0,64,65
 1450 369 1450 369 1511 337.5 c 128,-1,66
 1572 306 1572 306 1638 260 c 0,67,68
 1772 167 1772 167 1772 126 c 0,69,70
 1772 110 1772 110 1738 111 c 0,71,72
 1716 111 1716 111 1687 113.5 c 128,-1,73
 1658 116 1658 116 1622 123 c 0,74,75
 1610 125 1610 125 1595 129 c 128,-1,76
 1580 133 1580 133 1558 137 c 1,33,34
EndSplineSet
EndChar

StartChar: elafronApostrofos
Encoding: 57382 57382 33
Width: 1243
GlyphClass: 2
Flags: W
AnchorPoint: "gorgonTop" 627 580 basechar 0
AnchorPoint: "apli" 600 -93 basechar 0
AnchorPoint: "klasmaTop" 560 620 basechar 0
AnchorPoint: "yfesis" 980 536 basechar 0
AnchorPoint: "diesis" 427 20 basechar 0
AnchorPoint: "gorgonBottom" 487 -93 basechar 0
AnchorPoint: "antikenoma" 581 -29 basechar 0
AnchorPoint: "fthoraTop" 518 660 basechar 0
AnchorPoint: "fthoraBottom" 609 -30 basechar 0
AnchorPoint: "noteTop" 232 703 basechar 0
AnchorPoint: "omalonConnecting" 1241 89 basechar 0
AnchorPoint: "heteronConnecting" 1420 -19 basechar 0
AnchorPoint: "measureNumber" 172 643 basechar 0
AnchorPoint: "isonIndicator" 528 897 basechar 0
AnchorPoint: "endofonon" 632 -37 basechar 0
AnchorPoint: "koronis" 560 746 basechar 0
AnchorPoint: "yfenAbove" 630 891 basechar 0
AnchorPoint: "yfenBelow" 659 -210 basechar 0
LayerCount: 2
Fore
SplineSet
82 366 m 0,0,1
 82 394 82 394 95.5 414 c 128,-1,2
 109 434 109 434 131 447.5 c 128,-1,3
 153 461 153 461 180.5 469 c 128,-1,4
 208 477 208 477 237 481.5 c 128,-1,5
 266 486 266 486 292.5 487 c 128,-1,6
 319 488 319 488 338 488 c 0,7,8
 399 488 399 488 456.5 482.5 c 128,-1,9
 514 477 514 477 570 467 c 128,-1,10
 626 457 626 457 682 443.5 c 128,-1,11
 738 430 738 430 796 413 c 0,12,13
 914 379 914 379 1062 282 c 0,14,15
 1208 186 1208 186 1207 144 c 0,16,17
 1207 125 1207 125 1171 126 c 0,18,19
 1124 126 1124 126 1074 132.5 c 128,-1,20
 1024 139 1024 139 978 149 c 1,21,22
 989 253 989 253 813 337 c 0,23,24
 646 417 646 417 474 416 c 0,25,26
 457 416 457 416 436.5 414.5 c 128,-1,27
 416 413 416 413 394.5 409.5 c 128,-1,28
 373 406 373 406 352.5 398.5 c 128,-1,29
 332 391 332 391 315.5 379.5 c 128,-1,30
 299 368 299 368 288.5 352 c 128,-1,31
 278 336 278 336 277 313 c 0,32,33
 276 282 276 282 323 246 c 0,34,35
 381 201 381 201 386 199 c 1,36,37
 247 200 247 200 177 229 c 0,38,39
 130 249 130 249 99 298 c 1,40,41
 82 337 82 337 82 366 c 0,0,1
366 240 m 1,42,43
 379 243 379 243 390 247.5 c 128,-1,44
 401 252 401 252 413 255 c 0,45,46
 449 257 449 257 484.5 258 c 128,-1,47
 520 259 520 259 556 259 c 0,48,49
 583 259 583 259 614 255 c 128,-1,50
 645 251 645 251 681 244 c 0,51,52
 703 240 703 240 723.5 233.5 c 128,-1,53
 744 227 744 227 765 222 c 0,54,55
 780 219 780 219 799.5 212.5 c 128,-1,56
 819 206 819 206 840 197 c 128,-1,57
 861 188 861 188 881.5 176.5 c 128,-1,58
 902 165 902 165 918 151 c 128,-1,59
 934 137 934 137 943.5 120 c 128,-1,60
 953 103 953 103 952 83 c 0,61,62
 952 61 952 61 938 43 c 0,63,64
 933 37 933 37 910 36 c 0,65,66
 893 36 893 36 869 39 c 128,-1,67
 845 42 845 42 812 49 c 0,68,69
 801 51 801 51 786 54 c 128,-1,70
 771 57 771 57 752 61 c 1,71,72
 772 71 772 71 787 90 c 0,73,74
 802 108 802 108 796 121 c 0,75,76
 786 144 786 144 748 164.5 c 128,-1,77
 710 185 710 185 645 198 c 0,78,79
 574 211 574 211 505.5 220 c 128,-1,80
 437 229 437 229 366 240 c 1,42,43
EndSplineSet
EndChar

StartChar: chamili
Encoding: 57383 57383 34
Width: 1113
GlyphClass: 2
Flags: W
AnchorPoint: "gorgonTop" 819 680 basechar 0
AnchorPoint: "apli" 640 76 basechar 0
AnchorPoint: "klasmaTop" 747 513 basechar 0
AnchorPoint: "yfesis" 953 747 basechar 0
AnchorPoint: "diesis" 393 201 basechar 0
AnchorPoint: "gorgonBottom" 393 125 basechar 0
AnchorPoint: "antikenoma" 642 169 basechar 0
AnchorPoint: "fthoraTop" 773 765 basechar 0
AnchorPoint: "fthoraBottom" 609 240 basechar 0
AnchorPoint: "noteTop" 242 923 basechar 0
AnchorPoint: "omalonConnecting" 1111 89 basechar 0
AnchorPoint: "heteronConnecting" 1284 -19 basechar 0
AnchorPoint: "measureNumber" 172 943 basechar 0
AnchorPoint: "isonIndicator" 528 897 basechar 0
AnchorPoint: "endofonon" 632 -37 basechar 0
AnchorPoint: "koronis" 770 916 basechar 0
AnchorPoint: "yfenAbove" 630 921 basechar 0
AnchorPoint: "yfenBelow" 659 -40 basechar 0
LayerCount: 2
Fore
SplineSet
746 444 m 1,0,1
 740 432 740 432 734 413 c 128,-1,2
 728 394 728 394 721 369 c 1,3,-1
 858 363 l 2,4,5
 1089 354 1089 354 1135 308 c 1,6,7
 993 308 993 308 886.5 308 c 128,-1,8
 780 308 780 308 701 309 c 1,9,10
 684 271 684 271 655 242 c 0,11,12
 644 228 644 228 612 219 c 0,13,14
 595 214 595 214 580 212.5 c 128,-1,15
 565 211 565 211 551 211 c 0,16,17
 529 211 529 211 520 214 c 0,18,19
 507 218 507 218 515 228 c 0,20,21
 540 264 540 264 556 314 c 1,22,-1
 543 314 l 1,23,24
 343 323 343 323 245 372 c 0,25,26
 161 411 161 411 59 536 c 0,27,28
 51 550 51 550 46 577 c 0,29,30
 33 651 33 651 29 660 c 1,31,32
 60 664 60 664 98 669 c 256,33,34
 136 674 136 674 151 674 c 0,35,36
 194 672 194 672 223 655 c 0,37,38
 231 650 231 650 230 630 c 2,39,-1
 228 584 l 2,40,41
 228 570 228 570 232 564 c 0,42,43
 324 433 324 433 535 391 c 0,44,45
 543 388 543 388 553 387 c 128,-1,46
 563 386 563 386 576 385 c 1,47,48
 581 401 581 401 586 413 c 128,-1,49
 591 425 591 425 596 436 c 0,50,51
 605 453 605 453 634 453 c 2,52,-1
 694 447 l 2,53,54
 707 445 707 445 720 444.5 c 128,-1,55
 733 444 733 444 746 444 c 1,0,1
EndSplineSet
EndChar

StartChar: chamiliApostrofos
Encoding: 57384 57384 35
Width: 1113
GlyphClass: 2
Flags: W
AnchorPoint: "gorgonTop" 819 680 basechar 0
AnchorPoint: "apli" 576 -211 basechar 0
AnchorPoint: "klasmaTop" 747 513 basechar 0
AnchorPoint: "yfesis" 953 747 basechar 0
AnchorPoint: "diesis" 328 16 basechar 0
AnchorPoint: "antikenoma" 579 -129 basechar 0
AnchorPoint: "fthoraTop" 773 765 basechar 0
AnchorPoint: "fthoraBottom" 609 -130 basechar 0
AnchorPoint: "noteTop" 242 933 basechar 0
AnchorPoint: "omalonConnecting" 1107 -40 basechar 0
AnchorPoint: "heteronConnecting" 1284 -180 basechar 0
AnchorPoint: "measureNumber" 172 943 basechar 0
AnchorPoint: "isonIndicator" 528 897 basechar 0
AnchorPoint: "endofonon" 632 -257 basechar 0
AnchorPoint: "koronis" 720 910 basechar 0
AnchorPoint: "yfenAbove" 630 921 basechar 0
AnchorPoint: "yfenBelow" 659 -300 basechar 0
LayerCount: 2
Fore
SplineSet
112 121 m 1,0,1
 164 126 164 126 277 126 c 0,2,3
 313 126 313 126 353 122 c 128,-1,4
 393 118 393 118 437 108 c 0,5,6
 463 102 463 102 488.5 96 c 128,-1,7
 514 90 514 90 539 82 c 0,8,9
 637 58 637 58 701 10 c 0,10,11
 764 -36 764 -36 765 -90 c 0,12,13
 765 -121 765 -121 750 -140 c 0,14,15
 743 -148 743 -148 715 -148 c 0,16,17
 674 -148 674 -148 596 -132 c 0,18,19
 584 -130 584 -130 565 -127 c 128,-1,20
 546 -124 546 -124 523 -118 c 1,21,22
 548 -106 548 -106 565 -82 c 256,23,24
 582 -58 582 -58 576 -44 c 0,25,26
 564 -15 564 -15 518.5 10 c 128,-1,27
 473 35 473 35 393 51 c 0,28,29
 309 68 309 68 224 79 c 128,-1,30
 139 90 139 90 54 102 c 1,31,-1
 112 121 l 1,0,1
759 429 m 1,32,33
 753 417 753 417 746.5 398 c 128,-1,34
 740 379 740 379 734 354 c 1,35,-1
 871 348 l 2,36,37
 1102 339 1102 339 1148 293 c 1,38,39
 1006 293 1006 293 899.5 293 c 128,-1,40
 793 293 793 293 713 294 c 1,41,42
 696 256 696 256 668 228 c 0,43,44
 657 214 657 214 625 204 c 0,45,46
 608 199 608 199 593 198 c 128,-1,47
 578 197 578 197 563 196 c 0,48,49
 541 196 541 196 532 199 c 0,50,51
 519 204 519 204 527 213 c 0,52,53
 552 249 552 249 568 299 c 1,54,-1
 556 299 l 1,55,56
 356 308 356 308 257 357 c 0,57,58
 173 396 173 396 71 521 c 0,59,60
 63 535 63 535 59 561 c 0,61,62
 46 635 46 635 42 644 c 1,63,64
 73 648 73 648 110 654 c 0,65,66
 148 659 148 659 164 659 c 0,67,68
 207 658 207 658 235 640 c 0,69,70
 242 636 242 636 243 615 c 2,71,-1
 240 569 l 2,72,73
 240 555 240 555 245 549 c 0,74,75
 337 418 337 418 548 376 c 0,76,77
 556 373 556 373 566 372 c 128,-1,78
 576 371 576 371 588 370 c 1,79,80
 593 386 593 386 598 398 c 128,-1,81
 603 410 603 410 609 421 c 0,82,83
 617 438 617 438 646 438 c 2,84,-1
 707 432 l 2,85,86
 720 431 720 431 733 430 c 128,-1,87
 746 429 746 429 759 429 c 1,32,33
EndSplineSet
EndChar

StartChar: chamiliElafron
Encoding: 57385 57385 36
Width: 1240
GlyphClass: 2
Flags: W
AnchorPoint: "gorgonTop" 819 1010 basechar 0
AnchorPoint: "apli" 575 -10 basechar 0
AnchorPoint: "klasmaTop" 807 820 basechar 0
AnchorPoint: "yfesis" 1005 1051 basechar 0
AnchorPoint: "diesis" 458 16 basechar 0
AnchorPoint: "antikenoma" 569 91 basechar 0
AnchorPoint: "fthoraTop" 773 1065 basechar 0
AnchorPoint: "fthoraBottom" 609 90 basechar 0
AnchorPoint: "noteTop" 242 1223 basechar 0
AnchorPoint: "omalonConnecting" 1240 89 basechar 0
AnchorPoint: "heteronConnecting" 1420 -19 basechar 0
AnchorPoint: "measureNumber" 172 1233 basechar 0
AnchorPoint: "isonIndicator" 528 1227 basechar 0
AnchorPoint: "endofonon" 632 -37 basechar 0
AnchorPoint: "koronis" 770 1226 basechar 0
AnchorPoint: "yfenAbove" 630 1301 basechar 0
AnchorPoint: "yfenBelow" 659 -40 basechar 0
LayerCount: 2
Fore
SplineSet
63 344 m 0,0,1
 63 372 63 372 76.5 391.5 c 128,-1,2
 90 411 90 411 112.5 424.5 c 128,-1,3
 135 438 135 438 163 445 c 128,-1,4
 191 452 191 452 220 456 c 128,-1,5
 249 460 249 460 276 461 c 128,-1,6
 303 462 303 462 322 462 c 0,7,8
 440 459 440 459 553.5 436 c 128,-1,9
 667 413 667 413 779 377 c 0,10,11
 899 338 899 338 1042 241 c 0,12,13
 1185 143 1185 143 1185 100 c 0,14,15
 1185 83 1185 83 1149 83 c 0,16,17
 1102 83 1102 83 1051.5 91 c 128,-1,18
 1001 99 1001 99 955 112 c 1,19,20
 969 213 969 213 794 301 c 0,21,22
 709 342 709 342 622.5 364 c 128,-1,23
 536 386 536 386 442 386 c 0,24,25
 416 386 416 386 385 383 c 128,-1,26
 354 380 354 380 327 369.5 c 128,-1,27
 300 359 300 359 280.5 339.5 c 128,-1,28
 261 320 261 320 258 286 c 0,29,30
 256 253 256 253 302 218 c 0,31,32
 363 171 363 171 366 171 c 1,33,34
 296 173 296 173 244.5 181.5 c 128,-1,35
 193 190 193 190 157 205 c 0,36,37
 112 225 112 225 80 274 c 1,38,39
 63 314 63 314 63 344 c 0,0,1
83 944 m 1,40,41
 99 946 99 946 116 948.5 c 128,-1,42
 133 951 133 951 152 954 c 0,43,44
 165 956 165 956 178 957 c 128,-1,45
 191 958 191 958 205 958 c 0,46,47
 248 957 248 957 277 940 c 0,48,49
 285 935 285 935 285 915 c 2,50,-1
 282 869 l 2,51,52
 282 856 282 856 287 849 c 0,53,54
 380 717 380 717 589 676 c 0,55,56
 597 673 597 673 607.5 672 c 128,-1,57
 618 671 618 671 630 669 c 1,58,59
 634 685 634 685 639.5 697 c 128,-1,60
 645 709 645 709 650 721 c 0,61,62
 658 738 658 738 688 738 c 2,63,-1
 749 732 l 2,64,65
 761 731 761 731 774.5 730 c 128,-1,66
 788 729 788 729 800 729 c 1,67,68
 794 716 794 716 788 697 c 128,-1,69
 782 678 782 678 775 654 c 1,70,-1
 913 647 l 2,71,72
 1144 638 1144 638 1189 593 c 1,73,-1
 1039 593 l 2,74,75
 951 593 951 593 882 593 c 128,-1,76
 813 593 813 593 755 594 c 1,77,78
 737 557 737 557 710 527 c 0,79,80
 703 517 703 517 688.5 511 c 128,-1,81
 674 505 674 505 658 501.5 c 128,-1,82
 642 498 642 498 626 497 c 128,-1,83
 610 496 610 496 598 496 c 0,84,85
 582 496 582 496 574 499 c 0,86,87
 561 504 561 504 569 513 c 0,88,89
 582 531 582 531 592 552.5 c 128,-1,90
 602 574 602 574 610 599 c 1,91,-1
 597 599 l 1,92,93
 496 604 496 604 422.5 618 c 128,-1,94
 349 632 349 632 299 657 c 0,95,96
 215 696 215 696 113 821 c 0,97,98
 105 835 105 835 101 862 c 0,99,100
 95 899 95 899 90 919 c 128,-1,101
 85 939 85 939 83 944 c 1,40,41
EndSplineSet
EndChar

StartChar: chamiliElafronApostrofos
Encoding: 57386 57386 37
Width: 1243
GlyphClass: 2
Flags: W
AnchorPoint: "gorgonTop" 819 1010 basechar 0
AnchorPoint: "apli" 575 -110 basechar 0
AnchorPoint: "klasmaTop" 807 820 basechar 0
AnchorPoint: "yfesis" 1005 1051 basechar 0
AnchorPoint: "diesis" 458 16 basechar 0
AnchorPoint: "antikenoma" 577 -18 basechar 0
AnchorPoint: "fthoraTop" 773 1085 basechar 0
AnchorPoint: "fthoraBottom" 609 -20 basechar 0
AnchorPoint: "noteTop" 242 1223 basechar 0
AnchorPoint: "omalonConnecting" 1240 89 basechar 0
AnchorPoint: "heteronConnecting" 1420 -19 basechar 0
AnchorPoint: "measureNumber" 172 1233 basechar 0
AnchorPoint: "isonIndicator" 528 1227 basechar 0
AnchorPoint: "endofonon" 632 -107 basechar 0
AnchorPoint: "koronis" 770 1216 basechar 0
AnchorPoint: "yfenAbove" 630 1251 basechar 0
AnchorPoint: "yfenBelow" 659 -230 basechar 0
LayerCount: 2
Fore
SplineSet
782 728 m 1,0,1
 776 716 776 716 769.5 697 c 128,-1,2
 763 678 763 678 756 653 c 1,3,-1
 894 647 l 2,4,5
 1125 638 1125 638 1170 592 c 1,6,7
 1028 592 1028 592 922 592 c 128,-1,8
 816 592 816 592 736 594 c 1,9,10
 719 556 719 556 691 526 c 0,11,12
 680 512 680 512 647 503 c 0,13,14
 630 498 630 498 615 497 c 128,-1,15
 600 496 600 496 586 495 c 0,16,17
 564 495 564 495 555 499 c 0,18,19
 542 504 542 504 550 513 c 0,20,21
 575 549 575 549 591 599 c 1,22,-1
 578 599 l 1,23,24
 378 608 378 608 280 656 c 0,25,26
 196 695 196 695 94 820 c 0,27,28
 86 834 86 834 82 861 c 0,29,30
 69 935 69 935 64 944 c 1,31,32
 95 948 95 948 133 953 c 256,33,34
 171 958 171 958 186 958 c 0,35,36
 229 957 229 957 258 939 c 0,37,38
 265 934 265 934 266 914 c 2,39,-1
 263 869 l 2,40,41
 263 855 263 855 268 849 c 0,42,43
 360 718 360 718 570 675 c 0,44,45
 578 672 578 672 588.5 671 c 128,-1,46
 599 670 599 670 611 669 c 1,47,48
 615 685 615 685 620.5 697.5 c 128,-1,49
 626 710 626 710 631 720 c 0,50,51
 639 737 639 737 669 737 c 2,52,-1
 730 732 l 2,53,54
 743 730 743 730 756 729 c 128,-1,55
 769 728 769 728 782 728 c 1,0,1
938 128 m 1,56,57
 948 232 948 232 774 315 c 0,58,59
 606 396 606 396 435 396 c 0,60,61
 345 396 345 396 295 370 c 0,62,63
 240 342 240 342 238 292 c 0,64,65
 237 261 237 261 283 225 c 0,66,67
 345 178 345 178 347 178 c 1,68,69
 208 178 208 178 138 208 c 0,70,71
 92 227 92 227 60 276 c 1,72,73
 43 315 43 315 42 345 c 0,74,75
 42 406 42 406 111 438 c 0,76,77
 176 468 176 468 299 467 c 0,78,79
 354 467 354 467 412.5 461.5 c 128,-1,80
 471 456 471 456 519 448 c 0,81,82
 578 439 578 439 637 424 c 128,-1,83
 696 409 696 409 756 392 c 0,84,85
 873 359 873 359 1022 261 c 0,86,87
 1168 165 1168 165 1167 124 c 0,88,89
 1167 105 1167 105 1131 105 c 0,90,91
 1108 105 1108 105 1076.5 107 c 128,-1,92
 1045 109 1045 109 1008 116 c 0,93,94
 995 118 995 118 977 121 c 128,-1,95
 959 124 959 124 938 128 c 1,56,57
327 219 m 1,96,97
 340 222 340 222 350.5 227 c 128,-1,98
 361 232 361 232 374 234 c 0,99,100
 396 235 396 235 430 236 c 128,-1,101
 464 237 464 237 511 237 c 0,102,103
 567 237 567 237 641 224 c 0,104,105
 662 220 662 220 683.5 213.5 c 128,-1,106
 705 207 705 207 725 202 c 0,107,108
 806 181 806 181 860 144 c 0,109,110
 913 107 913 107 913 63 c 0,111,112
 913 41 913 41 899 22 c 0,113,114
 894 16 894 16 871 16 c 0,115,116
 854 16 854 16 829.5 18.5 c 128,-1,117
 805 21 805 21 772 28 c 0,118,119
 761 30 761 30 746 33 c 128,-1,120
 731 36 731 36 713 41 c 1,121,122
 733 50 733 50 747 69 c 0,123,124
 762 88 762 88 756 100 c 0,125,126
 746 123 746 123 708 144 c 128,-1,127
 670 165 670 165 605 177 c 0,128,129
 535 190 535 190 466 199 c 128,-1,130
 397 208 397 208 327 219 c 1,96,97
EndSplineSet
EndChar

StartChar: doubleChamili
Encoding: 57387 57387 38
Width: 1107
GlyphClass: 2
Flags: W
AnchorPoint: "gorgonTop" 819 1027 basechar 0
AnchorPoint: "apli" 595 70 basechar 0
AnchorPoint: "klasmaTop" 707 933 basechar 0
AnchorPoint: "yfesis" 965 1097 basechar 0
AnchorPoint: "diesis" 464 161 basechar 0
AnchorPoint: "antikenoma" 594 175 basechar 0
AnchorPoint: "fthoraTop" 773 1105 basechar 0
AnchorPoint: "fthoraBottom" 609 240 basechar 0
AnchorPoint: "noteTop" 242 1223 basechar 0
AnchorPoint: "omalonConnecting" 1108 89 basechar 0
AnchorPoint: "heteronConnecting" 1284 -19 basechar 0
AnchorPoint: "measureNumber" 172 1223 basechar 0
AnchorPoint: "isonIndicator" 528 1227 basechar 0
AnchorPoint: "endofonon" 632 -37 basechar 0
AnchorPoint: "koronis" 770 1226 basechar 0
AnchorPoint: "yfenAbove" 630 1241 basechar 0
AnchorPoint: "yfenBelow" 659 -40 basechar 0
LayerCount: 2
Fore
SplineSet
755 432 m 1,0,1
 749 419 749 419 743 400.5 c 128,-1,2
 737 382 737 382 730 357 c 1,3,-1
 868 351 l 2,4,5
 1099 342 1099 342 1145 296 c 1,6,7
 1003 296 1003 296 896.5 296 c 128,-1,8
 790 296 790 296 710 298 c 1,9,10
 692 260 692 260 665 230 c 0,11,12
 654 216 654 216 621 207 c 0,13,14
 604 202 604 202 589 201 c 128,-1,15
 574 200 574 200 560 199 c 0,16,17
 538 198 538 198 529 202 c 0,18,19
 516 207 516 207 524 216 c 0,20,21
 549 252 549 252 565 302 c 1,22,-1
 552 302 l 1,23,24
 352 311 352 311 254 360 c 0,25,26
 170 399 170 399 68 524 c 0,27,28
 60 538 60 538 56 565 c 0,29,30
 43 639 43 639 39 647 c 1,31,32
 70 652 70 652 107 657 c 0,33,34
 145 662 145 662 160 662 c 0,35,36
 204 661 204 661 232 643 c 0,37,38
 240 638 240 638 240 618 c 2,39,-1
 237 573 l 2,40,41
 237 559 237 559 242 552 c 0,42,43
 334 421 334 421 544 379 c 0,44,45
 552 376 552 376 562.5 375 c 128,-1,46
 573 374 573 374 585 373 c 1,47,48
 589 389 589 389 594.5 401 c 128,-1,49
 600 413 600 413 605 424 c 0,50,51
 613 441 613 441 643 441 c 2,52,-1
 704 435 l 2,53,54
 716 434 716 434 729.5 433 c 128,-1,55
 743 432 743 432 755 432 c 1,0,1
801 772 m 1,56,57
 795 760 795 760 788.5 741.5 c 128,-1,58
 782 723 782 723 776 698 c 1,59,-1
 914 691 l 2,60,61
 1145 682 1145 682 1190 637 c 1,62,63
 1048 637 1048 637 941.5 637 c 128,-1,64
 835 637 835 637 755 638 c 1,65,66
 738 600 738 600 710 571 c 0,67,68
 699 557 699 557 667 548 c 0,69,70
 650 543 650 543 635 541.5 c 128,-1,71
 620 540 620 540 605 540 c 0,72,73
 583 540 583 540 574 543 c 0,74,75
 561 548 561 548 570 557 c 0,76,77
 595 593 595 593 610 643 c 1,78,-1
 598 643 l 1,79,80
 398 652 398 652 299 701 c 0,81,82
 215 740 215 740 113 865 c 0,83,84
 105 880 105 880 101 905 c 0,85,86
 88 979 88 979 83 988 c 1,87,88
 114 992 114 992 152 998 c 0,89,90
 190 1003 190 1003 206 1002 c 0,91,92
 249 1001 249 1001 277 983 c 0,93,94
 284 979 284 979 285 958 c 2,95,-1
 282 913 l 2,96,97
 282 899 282 899 287 893 c 0,98,99
 379 762 379 762 590 720 c 0,100,101
 598 717 598 717 608 716 c 128,-1,102
 618 715 618 715 630 713 c 1,103,104
 635 729 635 729 640.5 741.5 c 128,-1,105
 646 754 646 754 651 765 c 0,106,107
 660 783 660 783 688 782 c 2,108,-1
 750 776 l 2,109,110
 762 775 762 775 775.5 773.5 c 128,-1,111
 789 772 789 772 801 772 c 1,56,57
EndSplineSet
EndChar

StartChar: doubleChamiliApostrofos
Encoding: 57388 57388 39
Width: 1107
GlyphClass: 2
Flags: W
AnchorPoint: "gorgonTop" 819 1047 basechar 0
AnchorPoint: "apli" 575 -230 basechar 0
AnchorPoint: "klasmaTop" 707 933 basechar 0
AnchorPoint: "yfesis" 965 1097 basechar 0
AnchorPoint: "diesis" 458 16 basechar 0
AnchorPoint: "antikenoma" 581 -120 basechar 0
AnchorPoint: "fthoraTop" 773 1105 basechar 0
AnchorPoint: "fthoraBottom" 609 -120 basechar 0
AnchorPoint: "noteTop" 242 1223 basechar 0
AnchorPoint: "omalonConnecting" 1087 -113 basechar 0
AnchorPoint: "heteronConnecting" 1284 -180 basechar 0
AnchorPoint: "measureNumber" 172 1223 basechar 0
AnchorPoint: "isonIndicator" 528 1227 basechar 0
AnchorPoint: "endofonon" 632 -297 basechar 0
AnchorPoint: "koronis" 770 1236 basechar 0
AnchorPoint: "yfenAbove" 630 1231 basechar 0
AnchorPoint: "yfenBelow" 659 -310 basechar 0
LayerCount: 2
Fore
SplineSet
108 123 m 1,0,1
 160 128 160 128 274 128 c 0,2,3
 310 128 310 128 350 124 c 128,-1,4
 390 120 390 120 434 111 c 0,5,6
 460 105 460 105 485 98.5 c 128,-1,7
 510 92 510 92 535 84 c 0,8,9
 634 60 634 60 698 13 c 0,10,11
 761 -33 761 -33 762 -88 c 0,12,13
 762 -119 762 -119 746 -137 c 0,14,15
 739 -145 739 -145 711 -145 c 0,16,17
 670 -145 670 -145 593 -130 c 0,18,19
 581 -128 581 -128 562 -125 c 128,-1,20
 543 -122 543 -122 520 -116 c 1,21,22
 545 -104 545 -104 562 -80 c 256,23,24
 579 -56 579 -56 573 -42 c 0,25,26
 561 -13 561 -13 515 12 c 128,-1,27
 469 37 469 37 390 53 c 0,28,29
 306 70 306 70 220.5 81 c 128,-1,30
 135 92 135 92 51 105 c 1,31,-1
 108 123 l 1,0,1
755 431 m 1,32,33
 749 419 749 419 743 400 c 128,-1,34
 737 381 737 381 730 356 c 1,35,-1
 868 350 l 2,36,37
 1099 341 1099 341 1145 295 c 1,38,39
 1003 295 1003 295 896.5 295 c 128,-1,40
 790 295 790 295 710 297 c 1,41,42
 693 259 693 259 665 230 c 0,43,44
 654 216 654 216 621 206 c 0,45,46
 604 201 604 201 589 200 c 128,-1,47
 574 199 574 199 560 199 c 0,48,49
 538 199 538 199 529 202 c 0,50,51
 516 207 516 207 524 216 c 0,52,53
 549 252 549 252 565 302 c 1,54,-1
 552 302 l 1,55,56
 352 311 352 311 254 359 c 0,57,58
 170 398 170 398 68 523 c 0,59,60
 60 537 60 537 55 564 c 0,61,62
 42 638 42 638 38 647 c 1,63,64
 69 651 69 651 107 656 c 256,65,66
 145 661 145 661 160 661 c 0,67,68
 203 660 203 660 232 642 c 0,69,70
 239 638 239 638 240 617 c 2,71,-1
 237 572 l 2,72,73
 237 558 237 558 241 552 c 0,74,75
 333 421 333 421 544 378 c 0,76,77
 552 375 552 375 562.5 374 c 128,-1,78
 573 373 573 373 585 372 c 1,79,80
 590 388 590 388 595 400 c 128,-1,81
 600 412 600 412 605 423 c 0,82,83
 614 441 614 441 643 441 c 2,84,-1
 704 434 l 2,85,86
 717 433 717 433 729.5 432 c 128,-1,87
 742 431 742 431 755 431 c 1,32,33
801 772 m 1,88,89
 795 759 795 759 788.5 740.5 c 128,-1,90
 782 722 782 722 776 697 c 1,91,-1
 913 691 l 2,92,93
 1144 681 1144 681 1190 636 c 1,94,95
 1047 636 1047 636 941 636 c 128,-1,96
 835 636 835 636 755 638 c 1,97,98
 738 600 738 600 710 570 c 0,99,100
 699 555 699 555 667 547 c 0,101,102
 649 542 649 542 634.5 540.5 c 128,-1,103
 620 539 620 539 605 539 c 0,104,105
 583 539 583 539 574 542 c 0,106,107
 561 547 561 547 569 556 c 0,108,109
 594 592 594 592 610 642 c 1,110,-1
 598 642 l 1,111,112
 398 652 398 652 299 700 c 0,113,114
 215 739 215 739 113 864 c 0,115,116
 105 878 105 878 101 905 c 0,117,118
 88 978 88 978 83 988 c 1,119,120
 114 993 114 993 152 997 c 0,121,122
 190 1002 190 1002 206 1001 c 0,123,124
 249 1000 249 1000 277 983 c 0,125,126
 285 978 285 978 285 958 c 2,127,-1
 282 912 l 2,128,129
 282 898 282 898 287 892 c 0,130,131
 380 761 380 761 590 719 c 0,132,133
 598 716 598 716 608 715 c 128,-1,134
 618 714 618 714 630 712 c 1,135,136
 635 728 635 728 640 740.5 c 128,-1,137
 645 753 645 753 651 764 c 0,138,139
 659 781 659 781 688 781 c 2,140,-1
 749 775 l 2,141,142
 762 774 762 774 775 773 c 128,-1,143
 788 772 788 772 801 772 c 1,88,89
EndSplineSet
EndChar

StartChar: doubleChamiliElafron
Encoding: 57389 57389 40
Width: 1174
GlyphClass: 2
Flags: W
AnchorPoint: "gorgonTop" 819 1047 basechar 0
AnchorPoint: "apli" 575 -200 basechar 0
AnchorPoint: "klasmaTop" 707 933 basechar 0
AnchorPoint: "yfesis" 965 1097 basechar 0
AnchorPoint: "diesis" 462 -191 basechar 0
AnchorPoint: "antikenoma" 644 -123 basechar 0
AnchorPoint: "fthoraTop" 773 1105 basechar 0
AnchorPoint: "fthoraBottom" 609 -120 basechar 0
AnchorPoint: "noteTop" 242 1223 basechar 0
AnchorPoint: "omalonConnecting" 1153 -140 basechar 0
AnchorPoint: "heteronConnecting" 1284 -240 basechar 0
AnchorPoint: "measureNumber" 172 1223 basechar 0
AnchorPoint: "isonIndicator" 528 1227 basechar 0
AnchorPoint: "endofonon" 632 -267 basechar 0
AnchorPoint: "koronis" 770 1226 basechar 0
AnchorPoint: "yfenAbove" 630 1231 basechar 0
AnchorPoint: "yfenBelow" 659 -310 basechar 0
LayerCount: 2
Fore
SplineSet
63 41 m 0,0,1
 63 69 63 69 76.5 88.5 c 128,-1,2
 90 108 90 108 112.5 121 c 128,-1,3
 135 134 135 134 163 141.5 c 128,-1,4
 191 149 191 149 220 152.5 c 128,-1,5
 249 156 249 156 276 157 c 128,-1,6
 303 158 303 158 322 158 c 0,7,8
 440 155 440 155 553.5 132 c 128,-1,9
 667 109 667 109 779 73 c 0,10,11
 900 35 900 35 1042 -63 c 0,12,13
 1185 -161 1185 -161 1185 -203 c 0,14,15
 1185 -220 1185 -220 1149 -220 c 0,16,17
 1102 -220 1102 -220 1051.5 -212.5 c 128,-1,18
 1001 -205 1001 -205 955 -192 c 1,19,20
 969 -91 969 -91 794 -3 c 0,21,22
 709 38 709 38 622.5 60.5 c 128,-1,23
 536 83 536 83 442 83 c 0,24,25
 416 83 416 83 385 79.5 c 128,-1,26
 354 76 354 76 327 65.5 c 128,-1,27
 300 55 300 55 280.5 35.5 c 128,-1,28
 261 16 261 16 258 -17 c 0,29,30
 256 -50 256 -50 302 -86 c 0,31,32
 363 -133 363 -133 366 -133 c 1,33,34
 296 -131 296 -131 244.5 -122.5 c 128,-1,35
 193 -114 193 -114 157 -98 c 0,36,37
 112 -78 112 -78 80 -30 c 1,38,39
 63 11 63 11 63 41 c 0,0,1
83 640 m 1,40,41
 99 642 99 642 116 645 c 128,-1,42
 133 648 133 648 152 650 c 0,43,44
 165 652 165 652 178 653.5 c 128,-1,45
 191 655 191 655 205 655 c 0,46,47
 249 654 249 654 277 636 c 0,48,49
 285 631 285 631 285 611 c 2,50,-1
 282 566 l 2,51,52
 282 553 282 553 287 545 c 0,53,54
 380 413 380 413 589 372 c 0,55,56
 597 369 597 369 607.5 368 c 128,-1,57
 618 367 618 367 630 365 c 1,58,59
 634 381 634 381 639.5 393.5 c 128,-1,60
 645 406 645 406 650 417 c 0,61,62
 658 434 658 434 688 434 c 2,63,-1
 749 428 l 2,64,65
 761 427 761 427 774.5 426 c 128,-1,66
 788 425 788 425 800 425 c 1,67,68
 794 412 794 412 788 393.5 c 128,-1,69
 782 375 782 375 775 350 c 1,70,-1
 913 343 l 2,71,72
 1144 334 1144 334 1189 289 c 1,73,-1
 1039 289 l 2,74,75
 951 289 951 289 882 289 c 128,-1,76
 813 289 813 289 755 291 c 1,77,78
 737 254 737 254 710 223 c 0,79,80
 703 213 703 213 688.5 207 c 128,-1,81
 674 201 674 201 658 198 c 128,-1,82
 642 195 642 195 626 193.5 c 128,-1,83
 610 192 610 192 598 192 c 0,84,85
 582 192 582 192 574 195 c 0,86,87
 561 200 561 200 569 209 c 0,88,89
 582 227 582 227 592 248.5 c 128,-1,90
 602 270 602 270 610 295 c 1,91,-1
 597 295 l 1,92,93
 496 300 496 300 422.5 314 c 128,-1,94
 349 328 349 328 299 353 c 0,95,96
 215 392 215 392 113 517 c 0,97,98
 105 531 105 531 101 558 c 0,99,100
 95 595 95 595 90 615 c 128,-1,101
 85 635 85 635 83 640 c 1,40,41
128 981 m 1,102,103
 144 983 144 983 161.5 985.5 c 128,-1,104
 179 988 179 988 197 990 c 0,105,106
 214 992 214 992 226.5 993.5 c 128,-1,107
 239 995 239 995 247 995 c 0,108,109
 267 995 267 995 286 991 c 128,-1,110
 305 987 305 987 322 976 c 0,111,112
 329 971 329 971 330 951 c 2,113,-1
 327 906 l 2,114,115
 327 893 327 893 332 886 c 0,116,117
 425 755 425 755 635 713 c 0,118,119
 643 710 643 710 653 709 c 128,-1,120
 663 708 663 708 675 706 c 1,121,122
 680 722 680 722 685 734 c 128,-1,123
 690 746 690 746 696 758 c 0,124,125
 705 775 705 775 733 775 c 2,126,-1
 794 769 l 2,127,128
 806 768 806 768 819.5 766.5 c 128,-1,129
 833 765 833 765 846 765 c 1,130,131
 840 753 840 753 833.5 734.5 c 128,-1,132
 827 716 827 716 821 691 c 1,133,-1
 958 684 l 2,134,135
 1189 675 1189 675 1235 630 c 1,136,-1
 1062 630 l 2,137,138
 982 630 982 630 918 630 c 128,-1,139
 854 630 854 630 800 631 c 1,140,141
 783 593 783 593 755 564 c 0,142,143
 747 554 747 554 733 548 c 128,-1,144
 719 542 719 542 703 538.5 c 128,-1,145
 687 535 687 535 671 534 c 128,-1,146
 655 533 655 533 643 533 c 0,147,148
 626 533 626 533 619 536 c 0,149,150
 606 541 606 541 615 550 c 0,151,152
 640 585 640 585 655 636 c 1,153,-1
 643 636 l 1,154,155
 444 645 444 645 344 694 c 0,156,157
 260 733 260 733 158 858 c 0,158,159
 150 871 150 871 146 898 c 0,160,161
 133 972 133 972 128 981 c 1,102,103
EndSplineSet
EndChar

StartChar: doubleChamiliElafronApostrofos
Encoding: 57390 57390 41
Width: 1174
GlyphClass: 2
Flags: W
AnchorPoint: "gorgonTop" 819 1047 basechar 0
AnchorPoint: "apli" 575 -320 basechar 0
AnchorPoint: "klasmaTop" 707 933 basechar 0
AnchorPoint: "yfesis" 965 1097 basechar 0
AnchorPoint: "diesis" 462 -191 basechar 0
AnchorPoint: "antikenoma" 572 -232 basechar 0
AnchorPoint: "fthoraTop" 773 1105 basechar 0
AnchorPoint: "fthoraBottom" 609 -230 basechar 0
AnchorPoint: "noteTop" 242 1223 basechar 0
AnchorPoint: "omalonConnecting" 1160 -180 basechar 0
AnchorPoint: "heteronConnecting" 1284 -240 basechar 0
AnchorPoint: "measureNumber" 172 1223 basechar 0
AnchorPoint: "isonIndicator" 528 1227 basechar 0
AnchorPoint: "endofonon" 632 -347 basechar 0
AnchorPoint: "koronis" 770 1236 basechar 0
AnchorPoint: "yfenAbove" 630 1231 basechar 0
AnchorPoint: "yfenBelow" 659 -310 basechar 0
LayerCount: 2
Fore
SplineSet
781 426 m 1,0,1
 775 414 775 414 768.5 395 c 128,-1,2
 762 376 762 376 755 351 c 1,3,-1
 893 345 l 2,4,5
 1124 336 1124 336 1169 290 c 1,6,7
 1027 290 1027 290 921 290 c 128,-1,8
 815 290 815 290 735 292 c 1,9,10
 718 254 718 254 690 225 c 0,11,12
 679 211 679 211 646 201 c 0,13,14
 629 196 629 196 614 195 c 128,-1,15
 599 194 599 194 585 193 c 0,16,17
 563 193 563 193 554 197 c 0,18,19
 541 202 541 202 549 211 c 0,20,21
 574 247 574 247 590 297 c 1,22,-1
 577 297 l 1,23,24
 377 306 377 306 279 354 c 0,25,26
 195 393 195 393 93 518 c 0,27,28
 85 532 85 532 81 559 c 0,29,30
 68 633 68 633 63 642 c 1,31,32
 94 646 94 646 132 651 c 256,33,34
 170 656 170 656 185 656 c 0,35,36
 228 655 228 655 257 637 c 0,37,38
 264 632 264 632 265 612 c 2,39,-1
 262 567 l 2,40,41
 262 553 262 553 267 547 c 0,42,43
 359 416 359 416 569 373 c 0,44,45
 577 370 577 370 587.5 369.5 c 128,-1,46
 598 369 598 369 610 367 c 1,47,48
 614 383 614 383 619.5 395.5 c 128,-1,49
 625 408 625 408 630 418 c 0,50,51
 638 435 638 435 668 435 c 2,52,-1
 729 430 l 2,53,54
 742 428 742 428 755 427 c 128,-1,55
 768 426 768 426 781 426 c 1,0,1
826 767 m 1,56,57
 820 754 820 754 813.5 735.5 c 128,-1,58
 807 717 807 717 801 692 c 1,59,-1
 938 685 l 2,60,61
 1169 676 1169 676 1215 631 c 1,62,63
 1073 631 1073 631 966.5 631 c 128,-1,64
 860 631 860 631 781 633 c 1,65,66
 763 595 763 595 735 565 c 0,67,68
 724 551 724 551 691 542 c 0,69,70
 674 537 674 537 659.5 536 c 128,-1,71
 645 535 645 535 630 534 c 0,72,73
 608 534 608 534 599 537 c 0,74,75
 586 542 586 542 595 551 c 0,76,77
 620 587 620 587 635 637 c 1,78,-1
 623 637 l 1,79,80
 423 646 423 646 324 695 c 0,81,82
 240 734 240 734 138 859 c 0,83,84
 130 873 130 873 126 900 c 0,85,86
 113 973 113 973 108 982 c 1,87,88
 139 987 139 987 177 992 c 256,89,90
 215 997 215 997 230 997 c 0,91,92
 274 996 274 996 302 978 c 0,93,94
 310 973 310 973 310 953 c 2,95,-1
 307 908 l 2,96,97
 307 894 307 894 312 887 c 0,98,99
 404 756 404 756 615 714 c 0,100,101
 623 711 623 711 633 710 c 128,-1,102
 643 709 643 709 656 707 c 1,103,104
 660 723 660 723 665 735 c 128,-1,105
 670 747 670 747 676 759 c 0,106,107
 684 776 684 776 713 776 c 2,108,-1
 774 770 l 2,109,110
 786 769 786 769 800 768 c 128,-1,111
 814 767 814 767 826 767 c 1,56,57
937 -174 m 1,112,113
 947 -70 947 -70 773 14 c 0,114,115
 605 95 605 95 434 94 c 0,116,117
 344 94 344 94 294 68 c 0,118,119
 239 40 239 40 237 -10 c 0,120,121
 236 -41 236 -41 282 -77 c 0,122,123
 344 -124 344 -124 346 -124 c 1,124,125
 207 -124 207 -124 137 -94 c 0,126,127
 91 -75 91 -75 59 -25 c 1,128,129
 42 14 42 14 42 43 c 0,130,131
 42 104 42 104 110 136 c 0,132,133
 175 166 175 166 298 165 c 0,134,135
 353 165 353 165 411.5 159.5 c 128,-1,136
 470 154 470 154 518 146 c 0,137,138
 577 137 577 137 636 122 c 128,-1,139
 695 107 695 107 755 90 c 0,140,141
 872 57 872 57 1021 -41 c 0,142,143
 1167 -137 1167 -137 1167 -178 c 0,144,145
 1167 -197 1167 -197 1130 -197 c 0,146,147
 1107 -197 1107 -197 1075.5 -195 c 128,-1,148
 1044 -193 1044 -193 1007 -186 c 0,149,150
 994 -184 994 -184 976 -181 c 128,-1,151
 958 -178 958 -178 937 -174 c 1,112,113
326 -83 m 1,152,153
 339 -80 339 -80 349.5 -75 c 128,-1,154
 360 -70 360 -70 373 -67 c 0,155,156
 395 -66 395 -66 429 -65.5 c 128,-1,157
 463 -65 463 -65 510 -65 c 0,158,159
 566 -65 566 -65 640 -78 c 0,160,161
 661 -82 661 -82 682.5 -88.5 c 128,-1,162
 704 -95 704 -95 724 -100 c 0,163,164
 805 -121 805 -121 859 -158 c 0,165,166
 912 -195 912 -195 912 -239 c 0,167,168
 912 -261 912 -261 898 -280 c 0,169,170
 893 -286 893 -286 870 -286 c 0,171,172
 853 -286 853 -286 828.5 -283.5 c 128,-1,173
 804 -281 804 -281 771 -274 c 0,174,175
 760 -272 760 -272 745 -269 c 128,-1,176
 730 -266 730 -266 712 -261 c 1,177,178
 732 -252 732 -252 746 -233 c 0,179,180
 761 -214 761 -214 755 -202 c 0,181,182
 745 -179 745 -179 707 -158 c 128,-1,183
 669 -137 669 -137 604 -125 c 0,184,185
 534 -112 534 -112 465 -103 c 128,-1,186
 396 -94 396 -94 326 -83 c 1,152,153
EndSplineSet
EndChar

StartChar: tripleChamili
Encoding: 57391 57391 42
Width: 1006
GlyphClass: 2
Flags: W
AnchorPoint: "gorgonTop" 779 1197 basechar 0
AnchorPoint: "apli" 575 10 basechar 0
AnchorPoint: "klasmaTop" 687 1107 basechar 0
AnchorPoint: "yfesis" 893 1227 basechar 0
AnchorPoint: "diesis" 464 167 basechar 0
AnchorPoint: "antikenoma" 571 131 basechar 0
AnchorPoint: "fthoraTop" 773 1235 basechar 0
AnchorPoint: "fthoraBottom" 609 120 basechar 0
AnchorPoint: "noteTop" 242 1363 basechar 0
AnchorPoint: "omalonConnecting" 1001 89 basechar 0
AnchorPoint: "heteronConnecting" 1284 -19 basechar 0
AnchorPoint: "measureNumber" 172 1363 basechar 0
AnchorPoint: "isonIndicator" 528 1317 basechar 0
AnchorPoint: "endofonon" 632 -37 basechar 0
AnchorPoint: "koronis" 670 1330 basechar 0
AnchorPoint: "yfenAbove" 630 1321 basechar 0
AnchorPoint: "yfenBelow" 659 -40 basechar 0
LayerCount: 2
Fore
SplineSet
738 691 m 1,0,1
 732 678 732 678 726 659.5 c 128,-1,2
 720 641 720 641 713 616 c 1,3,-1
 851 610 l 2,4,5
 1082 601 1082 601 1127 555 c 1,6,7
 985 555 985 555 878.5 555 c 128,-1,8
 772 555 772 555 693 556 c 1,9,10
 676 519 676 519 647 490 c 0,11,12
 636 476 636 476 604 466 c 0,13,14
 587 461 587 461 572 460 c 128,-1,15
 557 459 557 459 543 458 c 0,16,17
 521 458 521 458 512 461 c 0,18,19
 499 466 499 466 507 475 c 0,20,21
 532 511 532 511 548 561 c 1,22,-1
 535 561 l 1,23,24
 335 570 335 570 237 619 c 0,25,26
 153 658 153 658 51 783 c 0,27,28
 43 797 43 797 38 824 c 0,29,30
 25 897 25 897 21 906 c 1,31,32
 52 910 52 910 90 916 c 0,33,34
 128 921 128 921 143 921 c 0,35,36
 186 921 186 921 215 902 c 0,37,38
 223 897 223 897 223 877 c 2,39,-1
 220 832 l 2,40,41
 220 818 220 818 224 811 c 0,42,43
 316 680 316 680 527 638 c 0,44,45
 535 635 535 635 545.5 634 c 128,-1,46
 556 633 556 633 568 632 c 1,47,48
 573 648 573 648 578 660 c 128,-1,49
 583 672 583 672 588 683 c 0,50,51
 596 700 596 700 626 700 c 2,52,-1
 687 694 l 2,53,54
 700 693 700 693 712.5 692 c 128,-1,55
 725 691 725 691 738 691 c 1,0,1
784 1031 m 1,56,57
 778 1019 778 1019 771.5 1000.5 c 128,-1,58
 765 982 765 982 759 957 c 1,59,-1
 896 950 l 2,60,61
 1127 941 1127 941 1173 896 c 1,62,63
 1030 896 1030 896 924 896 c 128,-1,64
 818 896 818 896 738 897 c 1,65,66
 721 859 721 859 693 830 c 0,67,68
 682 816 682 816 649 806 c 0,69,70
 631 801 631 801 617 800 c 128,-1,71
 603 799 603 799 588 799 c 0,72,73
 566 799 566 799 557 802 c 0,74,75
 544 808 544 808 552 816 c 0,76,77
 577 852 577 852 593 902 c 1,78,-1
 581 902 l 1,79,80
 381 911 381 911 282 960 c 0,81,82
 198 999 198 999 96 1124 c 0,83,84
 88 1138 88 1138 83 1164 c 0,85,86
 70 1238 70 1238 66 1247 c 1,87,88
 97 1251 97 1251 135 1257 c 0,89,90
 173 1262 173 1262 188 1261 c 0,91,92
 231 1260 231 1260 260 1242 c 0,93,94
 267 1238 267 1238 268 1218 c 2,95,-1
 265 1172 l 2,96,97
 265 1158 265 1158 270 1152 c 0,98,99
 363 1021 363 1021 573 978 c 0,100,101
 581 975 581 975 591 974.5 c 128,-1,102
 601 974 601 974 613 972 c 1,103,104
 618 988 618 988 623 1000 c 128,-1,105
 628 1012 628 1012 634 1024 c 0,106,107
 642 1041 642 1041 671 1041 c 2,108,-1
 732 1035 l 2,109,110
 745 1033 745 1033 758 1032 c 128,-1,111
 771 1031 771 1031 784 1031 c 1,56,57
748 328 m 1,112,113
 742 316 742 316 735.5 297.5 c 128,-1,114
 729 279 729 279 723 254 c 1,115,-1
 860 247 l 2,116,117
 1091 238 1091 238 1137 193 c 1,118,119
 995 193 995 193 888.5 193 c 128,-1,120
 782 193 782 193 702 194 c 1,121,122
 685 156 685 156 657 127 c 0,123,124
 646 113 646 113 613 103 c 0,125,126
 596 98 596 98 581 97 c 128,-1,127
 566 96 566 96 552 95 c 0,128,129
 530 95 530 95 521 99 c 0,130,131
 508 105 508 105 517 113 c 0,132,133
 542 149 542 149 557 199 c 1,134,-1
 544 199 l 1,135,136
 344 208 344 208 246 257 c 0,137,138
 162 296 162 296 60 421 c 0,139,140
 52 435 52 435 48 461 c 0,141,142
 35 535 35 535 30 544 c 1,143,144
 61 548 61 548 99 553 c 256,145,146
 137 558 137 558 152 558 c 0,147,148
 195 557 195 557 224 539 c 0,149,150
 231 535 231 535 232 514 c 2,151,-1
 229 469 l 2,152,153
 229 455 229 455 233 449 c 0,154,155
 325 318 325 318 537 275 c 0,156,157
 545 272 545 272 555 271.5 c 128,-1,158
 565 271 565 271 577 269 c 1,159,160
 582 285 582 285 587 297 c 128,-1,161
 592 309 592 309 598 321 c 0,162,163
 606 338 606 338 635 338 c 2,164,-1
 696 332 l 2,165,166
 708 330 708 330 722 329 c 128,-1,167
 736 328 736 328 748 328 c 1,112,113
EndSplineSet
EndChar

StartChar: petastiIson
Encoding: 57408 57408 43
Width: 1318
GlyphClass: 2
Flags: W
AnchorPoint: "apli" 765 -10 basechar 0
AnchorPoint: "klasmaBottom" 800 83 basechar 0
AnchorPoint: "yfesis" 1179 915 basechar 0
AnchorPoint: "diesis" 464 147 basechar 0
AnchorPoint: "psifiston" 854 140 basechar 0
AnchorPoint: "antikenoma" 713 62 basechar 0
AnchorPoint: "fthoraTop" 734 846 basechar 0
AnchorPoint: "fthoraBottom" 352 162 basechar 0
AnchorPoint: "noteTop" 298 1040 basechar 0
AnchorPoint: "heteronConnecting" 1316 -19 basechar 0
AnchorPoint: "measureNumber" 172 1073 basechar 0
AnchorPoint: "isonIndicator" 714 1049 basechar 0
AnchorPoint: "endofonon" 772 -127 basechar 0
AnchorPoint: "koronis" 730 1046 basechar 0
AnchorPoint: "yfenAbove" 792 1049 basechar 0
AnchorPoint: "yfenBelow" 729 -40 basechar 0
LayerCount: 2
Fore
SplineSet
1268 459 m 1,0,1
 1284 423 1284 423 1284 388 c 0,2,3
 1284 304 1284 304 1187 262 c 0,4,5
 1088 219 1088 219 929 220 c 0,6,7
 790 220 790 220 615 256 c 0,8,9
 480 284 480 284 324 356 c 0,10,11
 157 434 157 434 157 479 c 0,12,13
 157 497 157 497 181 504 c 0,14,15
 209 512 209 512 268 512 c 0,16,17
 301 512 301 512 333 511 c 128,-1,18
 365 510 365 510 396 506 c 0,19,20
 455 499 455 499 479 487 c 1,21,22
 485 476 485 476 485 476 c 1,23,-1
 477 467 l 1,24,25
 471 468 471 468 464 469 c 128,-1,26
 457 470 457 470 448 470 c 0,27,28
 436 470 436 470 425.5 469 c 128,-1,29
 415 468 415 468 404 467 c 0,30,31
 393 468 393 468 393 459 c 0,32,33
 393 443 393 443 423 413 c 0,34,35
 440 396 440 396 460 382 c 128,-1,36
 480 368 480 368 506 356 c 0,37,38
 549 335 549 335 596.5 320 c 128,-1,39
 644 305 644 305 699 292 c 0,40,41
 805 267 805 267 907 266 c 0,42,43
 1004 266 1004 266 1054 292 c 0,44,45
 1109 319 1109 319 1109 373 c 1,46,-1
 1105 399 l 2,47,48
 1097 441 1097 441 1012 486 c 0,49,50
 1009 490 1009 490 1007.5 493 c 128,-1,51
 1006 496 1006 496 1002 501 c 1,52,53
 1015 504 1015 504 1029 505.5 c 128,-1,54
 1043 507 1043 507 1060 509 c 256,55,56
 1077 511 1077 511 1089 512 c 128,-1,57
 1101 513 1101 513 1113 513 c 0,58,59
 1152 513 1152 513 1183 505.5 c 128,-1,60
 1214 498 1214 498 1237 486 c 0,61,62
 1245 482 1245 482 1252.5 474.5 c 128,-1,63
 1260 467 1260 467 1268 459 c 1,0,1
117 876 m 0,64,65
 125 879 125 879 136 879.5 c 128,-1,66
 147 880 147 880 163 880 c 0,67,68
 211 880 211 880 261.5 866.5 c 128,-1,69
 312 853 312 853 365 824 c 1,70,-1
 434 765 l 1,71,72
 424 765 424 765 405.5 767 c 128,-1,73
 387 769 387 769 358 772 c 0,74,75
 330 775 330 775 309 776.5 c 128,-1,76
 288 778 288 778 276 778 c 0,77,78
 250 778 250 778 228 770 c 0,79,80
 211 763 211 763 211 747 c 0,81,82
 211 739 211 739 217 728 c 0,83,84
 224 714 224 714 228 704 c 128,-1,85
 232 694 232 694 238 692 c 0,86,87
 253 686 253 686 266.5 682.5 c 128,-1,88
 280 679 280 679 295 677 c 2,89,-1
 341 666 l 2,90,91
 349 664 349 664 364.5 663 c 128,-1,92
 380 662 380 662 404 662 c 0,93,94
 479 670 479 670 550 677.5 c 128,-1,95
 621 685 621 685 689 692 c 0,96,97
 824 706 824 706 976 706 c 0,98,99
 1077 706 1077 706 1224 611 c 1,100,-1
 1257 569 l 1,101,-1
 1237 574 l 1,102,-1
 1178 584 l 1,103,-1
 1089 594 l 2,104,105
 1007 604 1007 604 934 603 c 1,106,-1
 891 600 l 2,107,108
 869 599 869 599 836 598 c 128,-1,109
 803 597 803 597 760 594 c 0,110,111
 743 593 743 593 715.5 592.5 c 128,-1,112
 688 592 688 592 649 592 c 0,113,114
 619 592 619 592 587.5 593 c 128,-1,115
 556 594 556 594 522 595 c 0,116,117
 455 598 455 598 371 609 c 0,118,119
 313 616 313 616 258.5 639 c 128,-1,120
 204 662 204 662 147 697 c 0,121,122
 39 764 39 764 39 822 c 0,123,124
 39 862 39 862 117 876 c 0,64,65
EndSplineSet
EndChar

StartChar: petasti
Encoding: 57409 57409 44
Width: 1243
GlyphClass: 2
Flags: W
AnchorPoint: "apli" 765 -80 basechar 0
AnchorPoint: "klasmaBottom" 800 83 basechar 0
AnchorPoint: "yfesis" 1113 691 basechar 0
AnchorPoint: "diesis" 464 147 basechar 0
AnchorPoint: "psifiston" 795 140 basechar 0
AnchorPoint: "antikenoma" 713 62 basechar 0
AnchorPoint: "fthoraTop" 656 600 basechar 0
AnchorPoint: "fthoraBottom" 352 162 basechar 0
AnchorPoint: "noteTop" 214 636 basechar 0
AnchorPoint: "heteronConnecting" 1316 -19 basechar 0
AnchorPoint: "measureNumber" 172 743 basechar 0
AnchorPoint: "isonIndicator" 664 1049 basechar 0
AnchorPoint: "endofonon" 772 -127 basechar 0
AnchorPoint: "koronis" 730 1046 basechar 0
AnchorPoint: "yfenAbove" 792 1049 basechar 0
AnchorPoint: "yfenBelow" 769 -40 basechar 0
LayerCount: 2
Fore
SplineSet
1179 404 m 1,0,1
 1195 368 1195 368 1194 334 c 0,2,3
 1194 250 1194 250 1098 208 c 0,4,5
 999 166 999 166 840 165 c 0,6,7
 701 165 701 165 526 201 c 0,8,9
 392 228 392 228 235 301 c 0,10,11
 68 379 68 379 68 424 c 0,12,13
 68 443 68 443 91 450 c 0,14,15
 119 458 119 458 179 458 c 0,16,17
 212 458 212 458 244 456.5 c 128,-1,18
 276 455 276 455 307 451 c 0,19,20
 367 444 367 444 390 432 c 1,21,22
 396 421 396 421 396 422 c 1,23,-1
 388 412 l 1,24,25
 382 413 382 413 375 414 c 128,-1,26
 368 415 368 415 359 415 c 0,27,28
 346 415 346 415 336 414.5 c 128,-1,29
 326 414 326 414 315 412 c 0,30,31
 304 413 304 413 304 404 c 0,32,33
 304 388 304 388 334 359 c 0,34,35
 351 342 351 342 371 327.5 c 128,-1,36
 391 313 391 313 416 301 c 0,37,38
 460 280 460 280 507.5 265 c 128,-1,39
 555 250 555 250 610 237 c 0,40,41
 716 212 716 212 818 212 c 0,42,43
 915 212 915 212 965 237 c 0,44,45
 1020 264 1020 264 1020 319 c 1,46,-1
 1016 345 l 2,47,48
 1008 387 1008 387 922 431 c 0,49,50
 919 436 919 436 917.5 439 c 128,-1,51
 916 442 916 442 913 446 c 1,52,53
 926 449 926 449 940 450.5 c 128,-1,54
 954 452 954 452 971 454 c 0,55,56
 989 456 989 456 1000.5 457.5 c 128,-1,57
 1012 459 1012 459 1024 459 c 0,58,59
 1063 459 1063 459 1093.5 451.5 c 128,-1,60
 1124 444 1124 444 1148 431 c 0,61,62
 1156 427 1156 427 1163.5 419.5 c 128,-1,63
 1171 412 1171 412 1179 404 c 1,0,1
EndSplineSet
EndChar

StartChar: petastiOligon
Encoding: 57410 57410 45
Width: 1367
GlyphClass: 2
Flags: W
AnchorPoint: "apli" 785 -80 basechar 0
AnchorPoint: "klasmaBottom" 800 83 basechar 0
AnchorPoint: "yfesis" 1113 991 basechar 0
AnchorPoint: "diesis" 464 147 basechar 0
AnchorPoint: "psifiston" 860 140 basechar 0
AnchorPoint: "antikenoma" 713 62 basechar 0
AnchorPoint: "fthoraTop" 734 846 basechar 0
AnchorPoint: "fthoraBottom" 352 162 basechar 0
AnchorPoint: "noteTop" 214 916 basechar 0
AnchorPoint: "heteronConnecting" 1316 -19 basechar 0
AnchorPoint: "measureNumber" 172 953 basechar 0
AnchorPoint: "isonIndicator" 724 1049 basechar 0
AnchorPoint: "endofonon" 772 -127 basechar 0
AnchorPoint: "koronis" 730 1046 basechar 0
AnchorPoint: "yfenAbove" 792 1049 basechar 0
AnchorPoint: "yfenBelow" 789 -40 basechar 0
LayerCount: 2
Fore
SplineSet
271 633 m 0,0,1
 219 639 219 639 152 714 c 1,2,-1
 152 735 l 1,3,4
 210 714 210 714 279 711 c 0,5,6
 315 710 315 710 360.5 709 c 128,-1,7
 406 708 406 708 460 708 c 0,8,9
 537 708 537 708 720 713 c 0,10,11
 814 716 814 716 881.5 716 c 128,-1,12
 949 716 949 716 996 716 c 0,13,14
 1085 716 1085 716 1220 638 c 1,15,-1
 1251 603 l 1,16,-1
 1230 605 l 1,17,18
 1183 614 1183 614 1178 614 c 2,19,-1
 1107 622 l 2,20,21
 1074 625 1074 625 1043 626.5 c 128,-1,22
 1012 628 1012 628 980 628 c 0,23,24
 959 628 959 628 910.5 625.5 c 128,-1,25
 862 623 862 623 787 620 c 256,26,27
 712 617 712 617 656.5 615 c 128,-1,28
 601 613 601 613 565 613 c 0,29,30
 490 613 490 613 418 618 c 0,31,32
 382 621 382 621 345 624 c 128,-1,33
 308 627 308 627 271 633 c 0,0,1
1269 422 m 1,34,35
 1285 386 1285 386 1285 352 c 0,36,37
 1285 268 1285 268 1188 225 c 0,38,39
 1089 183 1089 183 930 183 c 0,40,41
 791 183 791 183 616 219 c 0,42,43
 481 247 481 247 325 319 c 0,44,45
 158 397 158 397 158 443 c 0,46,47
 158 461 158 461 182 468 c 0,48,49
 210 476 210 476 269 475 c 0,50,51
 302 475 302 475 334 474 c 128,-1,52
 366 473 366 473 398 469 c 0,53,54
 457 462 457 462 480 451 c 1,55,56
 486 440 486 440 487 439 c 2,57,-1
 479 430 l 1,58,59
 473 431 473 431 465.5 432 c 128,-1,60
 458 433 458 433 449 433 c 0,61,62
 437 433 437 433 426.5 432 c 128,-1,63
 416 431 416 431 406 430 c 0,64,65
 395 431 395 431 394 422 c 0,66,67
 394 406 394 406 424 377 c 0,68,69
 441 360 441 360 461.5 345.5 c 128,-1,70
 482 331 482 331 507 319 c 0,71,72
 550 298 550 298 598 283 c 128,-1,73
 646 268 646 268 700 255 c 0,74,75
 806 230 806 230 908 230 c 0,76,77
 1005 230 1005 230 1055 255 c 0,78,79
 1110 282 1110 282 1110 336 c 1,80,-1
 1107 363 l 2,81,82
 1099 405 1099 405 1013 449 c 0,83,84
 1010 453 1010 453 1008.5 456.5 c 128,-1,85
 1007 460 1007 460 1004 465 c 1,86,87
 1017 468 1017 468 1030.5 469 c 128,-1,88
 1044 470 1044 470 1062 473 c 0,89,90
 1079 475 1079 475 1090.5 476 c 128,-1,91
 1102 477 1102 477 1115 477 c 0,92,93
 1154 477 1154 477 1184.5 469.5 c 128,-1,94
 1215 462 1215 462 1238 449 c 0,95,96
 1246 445 1246 445 1253.5 437.5 c 128,-1,97
 1261 430 1261 430 1269 422 c 1,34,35
EndSplineSet
EndChar

StartChar: petastiKentima
Encoding: 57411 57411 46
Width: 1236
GlyphClass: 2
Flags: W
AnchorPoint: "apli" 765 -80 basechar 0
AnchorPoint: "klasmaBottom" 800 83 basechar 0
AnchorPoint: "yfesis" 1113 691 basechar 0
AnchorPoint: "diesis" 464 147 basechar 0
AnchorPoint: "psifiston" 795 140 basechar 0
AnchorPoint: "antikenoma" 713 62 basechar 0
AnchorPoint: "fthoraTop" 1091 660 basechar 0
AnchorPoint: "fthoraBottom" 352 162 basechar 0
AnchorPoint: "noteTop" 158 670 basechar 0
AnchorPoint: "heteronConnecting" 1316 -19 basechar 0
AnchorPoint: "measureNumber" 172 853 basechar 0
AnchorPoint: "isonIndicator" 664 1049 basechar 0
AnchorPoint: "endofonon" 772 -127 basechar 0
AnchorPoint: "koronis" 730 1046 basechar 0
AnchorPoint: "yfenAbove" 792 1049 basechar 0
AnchorPoint: "yfenBelow" 729 -40 basechar 0
LayerCount: 2
Fore
SplineSet
1169 418 m 1,0,1
 1185 382 1185 382 1185 348 c 0,2,3
 1185 264 1185 264 1088 222 c 0,4,5
 989 180 989 180 830 179 c 0,6,7
 691 179 691 179 516 215 c 0,8,9
 381 243 381 243 225 315 c 0,10,11
 58 392 58 392 58 439 c 0,12,13
 58 457 58 457 82 464 c 0,14,15
 110 472 110 472 169 472 c 0,16,17
 202 472 202 472 234 470.5 c 128,-1,18
 266 469 266 469 297 465 c 0,19,20
 356 458 356 458 380 447 c 1,21,22
 386 436 386 436 386 435 c 2,23,-1
 378 426 l 1,24,25
 372 427 372 427 365 428.5 c 128,-1,26
 358 430 358 430 349 430 c 0,27,28
 337 430 337 430 326.5 429 c 128,-1,29
 316 428 316 428 305 426 c 0,30,31
 294 427 294 427 294 418 c 0,32,33
 294 402 294 402 324 373 c 0,34,35
 341 356 341 356 361 342 c 128,-1,36
 381 328 381 328 407 315 c 0,37,38
 450 294 450 294 497.5 279.5 c 128,-1,39
 545 265 545 265 600 251 c 0,40,41
 706 226 706 226 808 226 c 0,42,43
 904 226 904 226 955 251 c 0,44,45
 1009 278 1009 278 1010 332 c 1,46,-1
 1006 359 l 2,47,48
 998 401 998 401 913 445 c 0,49,50
 910 449 910 449 908.5 452.5 c 128,-1,51
 907 456 907 456 903 461 c 1,52,53
 916 464 916 464 930 465 c 128,-1,54
 944 466 944 466 961 469 c 0,55,56
 978 471 978 471 990 472 c 128,-1,57
 1002 473 1002 473 1014 473 c 0,58,59
 1053 473 1053 473 1083.5 465.5 c 128,-1,60
 1114 458 1114 458 1138 445 c 0,61,62
 1146 441 1146 441 1153.5 433.5 c 128,-1,63
 1161 426 1161 426 1169 418 c 1,0,1
474 734 m 0,64,65
 478 739 478 739 497 739 c 0,66,67
 519 739 519 739 555 734 c 2,68,-1
 602 726 l 2,69,70
 678 714 678 714 696 614 c 0,71,72
 707 552 707 552 721 536 c 256,73,74
 735 520 735 520 752 517 c 0,75,76
 773 515 773 515 772 514 c 0,77,78
 772 510 772 510 766 503 c 0,79,80
 750 487 750 487 713 487 c 0,81,82
 691 487 691 487 665.5 492 c 128,-1,83
 640 497 640 497 608 509 c 0,84,85
 551 530 551 530 529 662 c 0,86,87
 520 718 520 718 494 718 c 2,88,-1
 479 718 l 2,89,90
 470 718 470 718 468 720 c 0,91,92
 465 722 465 722 474 734 c 0,64,65
EndSplineSet
EndChar

